<mxfile host="Electron" agent="Mozilla/5.0 (X11; Linux x86_64) AppleWebKit/537.36 (KHTML, like Gecko) draw.io/26.1.1 Chrome/132.0.6834.210 Electron/34.3.3 Safari/537.36" version="26.1.1" pages="7">
  <diagram name="multi-cloud" id="IcrBRAoHBqmVVg_rm2AD">
    <mxGraphModel dx="1865" dy="1533" grid="1" gridSize="10" guides="1" tooltips="1" connect="1" arrows="1" fold="1" page="1" pageScale="1" pageWidth="1600" pageHeight="900" math="0" shadow="0">
      <root>
        <mxCell id="0" />
        <mxCell id="1" parent="0" />
        <mxCell id="luQS9ncK3TV_NcdUdcDW-1" value="Generic group" style="fillColor=#EFF0F3;strokeColor=none;dashed=0;verticalAlign=top;fontStyle=0;fontColor=#232F3D;whiteSpace=wrap;html=1;" parent="1" vertex="1">
          <mxGeometry x="540" y="120" width="800" height="400" as="geometry" />
        </mxCell>
        <mxCell id="luQS9ncK3TV_NcdUdcDW-2" value="Generic group" style="fillColor=#EFF0F3;strokeColor=none;dashed=0;verticalAlign=top;fontStyle=0;fontColor=#232F3D;whiteSpace=wrap;html=1;" parent="1" vertex="1">
          <mxGeometry x="540" y="560" width="800" height="400" as="geometry" />
        </mxCell>
        <mxCell id="luQS9ncK3TV_NcdUdcDW-3" value="Generic group" style="fillColor=#EFF0F3;strokeColor=none;dashed=0;verticalAlign=top;fontStyle=0;fontColor=#232F3D;whiteSpace=wrap;html=1;" parent="1" vertex="1">
          <mxGeometry x="540" y="1000" width="800" height="400" as="geometry" />
        </mxCell>
      </root>
    </mxGraphModel>
  </diagram>
  <diagram id="leLsuHiboCAjxkR7IvEo" name="AWS">
    <mxGraphModel dx="1865" dy="1533" grid="1" gridSize="10" guides="1" tooltips="1" connect="1" arrows="1" fold="1" page="1" pageScale="1" pageWidth="1600" pageHeight="900" math="0" shadow="0">
      <root>
        <mxCell id="0" />
        <mxCell id="1" parent="0" />
        <mxCell id="J9soDipoNxHQr6FtKPc_-2" value="AWS Cloud" style="points=[[0,0],[0.25,0],[0.5,0],[0.75,0],[1,0],[1,0.25],[1,0.5],[1,0.75],[1,1],[0.75,1],[0.5,1],[0.25,1],[0,1],[0,0.75],[0,0.5],[0,0.25]];outlineConnect=0;gradientColor=none;html=1;whiteSpace=wrap;fontSize=12;fontStyle=0;container=1;pointerEvents=0;collapsible=0;recursiveResize=0;shape=mxgraph.aws4.group;grIcon=mxgraph.aws4.group_aws_cloud_alt;strokeColor=#232F3E;fillColor=none;verticalAlign=top;align=left;spacingLeft=30;fontColor=#232F3E;dashed=0;" parent="1" vertex="1">
          <mxGeometry x="380" y="80" width="1170" height="560" as="geometry" />
        </mxCell>
        <mxCell id="J9soDipoNxHQr6FtKPc_-3" value="VPC" style="points=[[0,0],[0.25,0],[0.5,0],[0.75,0],[1,0],[1,0.25],[1,0.5],[1,0.75],[1,1],[0.75,1],[0.5,1],[0.25,1],[0,1],[0,0.75],[0,0.5],[0,0.25]];outlineConnect=0;gradientColor=none;html=1;whiteSpace=wrap;fontSize=12;fontStyle=0;container=1;pointerEvents=0;collapsible=0;recursiveResize=0;shape=mxgraph.aws4.group;grIcon=mxgraph.aws4.group_vpc2;strokeColor=#8C4FFF;fillColor=none;verticalAlign=top;align=left;spacingLeft=30;fontColor=#AAB7B8;dashed=0;" parent="J9soDipoNxHQr6FtKPc_-2" vertex="1">
          <mxGeometry x="250" y="40" width="760" height="440" as="geometry" />
        </mxCell>
        <mxCell id="J9soDipoNxHQr6FtKPc_-4" value="Private subnet" style="points=[[0,0],[0.25,0],[0.5,0],[0.75,0],[1,0],[1,0.25],[1,0.5],[1,0.75],[1,1],[0.75,1],[0.5,1],[0.25,1],[0,1],[0,0.75],[0,0.5],[0,0.25]];outlineConnect=0;gradientColor=none;html=1;whiteSpace=wrap;fontSize=12;fontStyle=0;container=1;pointerEvents=0;collapsible=0;recursiveResize=0;shape=mxgraph.aws4.group;grIcon=mxgraph.aws4.group_security_group;grStroke=0;strokeColor=#00A4A6;fillColor=#E6F6F7;verticalAlign=top;align=left;spacingLeft=30;fontColor=#147EBA;dashed=0;" parent="J9soDipoNxHQr6FtKPc_-3" vertex="1">
          <mxGeometry x="280" y="119" width="440" height="240" as="geometry" />
        </mxCell>
        <mxCell id="J9soDipoNxHQr6FtKPc_-8" value="HAMTARO EKS Cluster&lt;br&gt;W/ Traefik Ingress" style="sketch=0;points=[[0,0,0],[0.25,0,0],[0.5,0,0],[0.75,0,0],[1,0,0],[0,1,0],[0.25,1,0],[0.5,1,0],[0.75,1,0],[1,1,0],[0,0.25,0],[0,0.5,0],[0,0.75,0],[1,0.25,0],[1,0.5,0],[1,0.75,0]];outlineConnect=0;fontColor=#232F3E;fillColor=#ED7100;strokeColor=#ffffff;dashed=0;verticalLabelPosition=bottom;verticalAlign=top;align=center;html=1;fontSize=12;fontStyle=0;aspect=fixed;shape=mxgraph.aws4.resourceIcon;resIcon=mxgraph.aws4.eks;" parent="J9soDipoNxHQr6FtKPc_-4" vertex="1">
          <mxGeometry x="40" y="91" width="78" height="78" as="geometry" />
        </mxCell>
        <mxCell id="J9soDipoNxHQr6FtKPc_-9" value="API Gateway" style="sketch=0;points=[[0,0,0],[0.25,0,0],[0.5,0,0],[0.75,0,0],[1,0,0],[0,1,0],[0.25,1,0],[0.5,1,0],[0.75,1,0],[1,1,0],[0,0.25,0],[0,0.5,0],[0,0.75,0],[1,0.25,0],[1,0.5,0],[1,0.75,0]];outlineConnect=0;fontColor=#232F3E;fillColor=#8C4FFF;strokeColor=#ffffff;dashed=0;verticalLabelPosition=bottom;verticalAlign=top;align=center;html=1;fontSize=12;fontStyle=0;aspect=fixed;shape=mxgraph.aws4.resourceIcon;resIcon=mxgraph.aws4.api_gateway;" parent="J9soDipoNxHQr6FtKPc_-4" vertex="1">
          <mxGeometry x="180" y="91" width="78" height="78" as="geometry" />
        </mxCell>
        <mxCell id="J9soDipoNxHQr6FtKPc_-10" value="pre-signed&lt;br&gt;url generator" style="sketch=0;points=[[0,0,0],[0.25,0,0],[0.5,0,0],[0.75,0,0],[1,0,0],[0,1,0],[0.25,1,0],[0.5,1,0],[0.75,1,0],[1,1,0],[0,0.25,0],[0,0.5,0],[0,0.75,0],[1,0.25,0],[1,0.5,0],[1,0.75,0]];outlineConnect=0;fontColor=#232F3E;fillColor=#ED7100;strokeColor=#ffffff;dashed=0;verticalLabelPosition=bottom;verticalAlign=top;align=center;html=1;fontSize=12;fontStyle=0;aspect=fixed;shape=mxgraph.aws4.resourceIcon;resIcon=mxgraph.aws4.lambda;" parent="J9soDipoNxHQr6FtKPc_-4" vertex="1">
          <mxGeometry x="340" y="91" width="78" height="78" as="geometry" />
        </mxCell>
        <mxCell id="J9soDipoNxHQr6FtKPc_-11" value="Protected Application&lt;br&gt;Bucket" style="sketch=0;points=[[0,0,0],[0.25,0,0],[0.5,0,0],[0.75,0,0],[1,0,0],[0,1,0],[0.25,1,0],[0.5,1,0],[0.75,1,0],[1,1,0],[0,0.25,0],[0,0.5,0],[0,0.75,0],[1,0.25,0],[1,0.5,0],[1,0.75,0]];outlineConnect=0;fontColor=#232F3E;fillColor=#7AA116;strokeColor=#ffffff;dashed=0;verticalLabelPosition=bottom;verticalAlign=top;align=center;html=1;fontSize=12;fontStyle=0;aspect=fixed;shape=mxgraph.aws4.resourceIcon;resIcon=mxgraph.aws4.s3;" parent="J9soDipoNxHQr6FtKPc_-4" vertex="1">
          <mxGeometry x="520" y="91" width="78" height="78" as="geometry" />
        </mxCell>
        <mxCell id="J9soDipoNxHQr6FtKPc_-28" value="2" style="ellipse;whiteSpace=wrap;html=1;aspect=fixed;" parent="J9soDipoNxHQr6FtKPc_-4" vertex="1">
          <mxGeometry y="50.999999999999886" width="20" height="20" as="geometry" />
        </mxCell>
        <mxCell id="J9soDipoNxHQr6FtKPc_-29" value="Desired midleware&lt;br&gt;process request" style="text;html=1;align=center;verticalAlign=middle;resizable=0;points=[];autosize=1;strokeColor=none;fillColor=none;" parent="J9soDipoNxHQr6FtKPc_-4" vertex="1">
          <mxGeometry x="20" y="41" width="120" height="40" as="geometry" />
        </mxCell>
        <mxCell id="J9soDipoNxHQr6FtKPc_-30" style="edgeStyle=orthogonalEdgeStyle;rounded=0;orthogonalLoop=1;jettySize=auto;html=1;exitX=1;exitY=0.25;exitDx=0;exitDy=0;exitPerimeter=0;entryX=0;entryY=0.25;entryDx=0;entryDy=0;entryPerimeter=0;strokeColor=#FF0000;" parent="J9soDipoNxHQr6FtKPc_-4" source="J9soDipoNxHQr6FtKPc_-8" target="J9soDipoNxHQr6FtKPc_-9" edge="1">
          <mxGeometry relative="1" as="geometry" />
        </mxCell>
        <mxCell id="J9soDipoNxHQr6FtKPc_-31" style="edgeStyle=orthogonalEdgeStyle;rounded=0;orthogonalLoop=1;jettySize=auto;html=1;exitX=1;exitY=0.25;exitDx=0;exitDy=0;exitPerimeter=0;entryX=0;entryY=0.25;entryDx=0;entryDy=0;entryPerimeter=0;strokeColor=#FF0000;" parent="J9soDipoNxHQr6FtKPc_-4" source="J9soDipoNxHQr6FtKPc_-9" target="J9soDipoNxHQr6FtKPc_-10" edge="1">
          <mxGeometry relative="1" as="geometry" />
        </mxCell>
        <mxCell id="J9soDipoNxHQr6FtKPc_-32" value="3" style="ellipse;whiteSpace=wrap;html=1;aspect=fixed;" parent="J9soDipoNxHQr6FtKPc_-4" vertex="1">
          <mxGeometry x="210" y="50.999999999999886" width="20" height="20" as="geometry" />
        </mxCell>
        <mxCell id="J9soDipoNxHQr6FtKPc_-33" value="After clamurai inspection&lt;br&gt;the storage api is called&lt;br&gt;triggering a pre-signed url&amp;nbsp;" style="text;html=1;align=center;verticalAlign=middle;resizable=0;points=[];autosize=1;strokeColor=none;fillColor=none;" parent="J9soDipoNxHQr6FtKPc_-4" vertex="1">
          <mxGeometry x="225" y="31" width="160" height="60" as="geometry" />
        </mxCell>
        <mxCell id="J9soDipoNxHQr6FtKPc_-34" style="edgeStyle=orthogonalEdgeStyle;rounded=0;orthogonalLoop=1;jettySize=auto;html=1;exitX=1;exitY=0.25;exitDx=0;exitDy=0;exitPerimeter=0;entryX=0;entryY=0.25;entryDx=0;entryDy=0;entryPerimeter=0;strokeColor=#FF0000;" parent="J9soDipoNxHQr6FtKPc_-4" source="J9soDipoNxHQr6FtKPc_-10" target="J9soDipoNxHQr6FtKPc_-11" edge="1">
          <mxGeometry relative="1" as="geometry" />
        </mxCell>
        <mxCell id="J9soDipoNxHQr6FtKPc_-35" style="edgeStyle=orthogonalEdgeStyle;rounded=0;orthogonalLoop=1;jettySize=auto;html=1;exitX=0;exitY=0.75;exitDx=0;exitDy=0;exitPerimeter=0;entryX=1;entryY=0.75;entryDx=0;entryDy=0;entryPerimeter=0;dashed=1;" parent="J9soDipoNxHQr6FtKPc_-4" source="J9soDipoNxHQr6FtKPc_-11" target="J9soDipoNxHQr6FtKPc_-10" edge="1">
          <mxGeometry relative="1" as="geometry" />
        </mxCell>
        <mxCell id="J9soDipoNxHQr6FtKPc_-36" style="edgeStyle=orthogonalEdgeStyle;rounded=0;orthogonalLoop=1;jettySize=auto;html=1;exitX=0;exitY=0.75;exitDx=0;exitDy=0;exitPerimeter=0;entryX=1;entryY=0.75;entryDx=0;entryDy=0;entryPerimeter=0;dashed=1;" parent="J9soDipoNxHQr6FtKPc_-4" source="J9soDipoNxHQr6FtKPc_-10" target="J9soDipoNxHQr6FtKPc_-9" edge="1">
          <mxGeometry relative="1" as="geometry" />
        </mxCell>
        <mxCell id="J9soDipoNxHQr6FtKPc_-37" style="edgeStyle=orthogonalEdgeStyle;rounded=0;orthogonalLoop=1;jettySize=auto;html=1;exitX=0;exitY=0.75;exitDx=0;exitDy=0;exitPerimeter=0;entryX=1;entryY=0.75;entryDx=0;entryDy=0;entryPerimeter=0;dashed=1;" parent="J9soDipoNxHQr6FtKPc_-4" source="J9soDipoNxHQr6FtKPc_-9" target="J9soDipoNxHQr6FtKPc_-8" edge="1">
          <mxGeometry relative="1" as="geometry" />
        </mxCell>
        <mxCell id="J9soDipoNxHQr6FtKPc_-6" value="Public subnet" style="points=[[0,0],[0.25,0],[0.5,0],[0.75,0],[1,0],[1,0.25],[1,0.5],[1,0.75],[1,1],[0.75,1],[0.5,1],[0.25,1],[0,1],[0,0.75],[0,0.5],[0,0.25]];outlineConnect=0;gradientColor=none;html=1;whiteSpace=wrap;fontSize=12;fontStyle=0;container=1;pointerEvents=0;collapsible=0;recursiveResize=0;shape=mxgraph.aws4.group;grIcon=mxgraph.aws4.group_security_group;grStroke=0;strokeColor=#7AA116;fillColor=#F2F6E8;verticalAlign=top;align=left;spacingLeft=30;fontColor=#248814;dashed=0;" parent="J9soDipoNxHQr6FtKPc_-3" vertex="1">
          <mxGeometry x="40" y="119" width="200" height="240" as="geometry" />
        </mxCell>
        <mxCell id="J9soDipoNxHQr6FtKPc_-12" value="Application LoadBalancer" style="sketch=0;points=[[0,0,0],[0.25,0,0],[0.5,0,0],[0.75,0,0],[1,0,0],[0,1,0],[0.25,1,0],[0.5,1,0],[0.75,1,0],[1,1,0],[0,0.25,0],[0,0.5,0],[0,0.75,0],[1,0.25,0],[1,0.5,0],[1,0.75,0]];outlineConnect=0;fontColor=#232F3E;fillColor=#8C4FFF;strokeColor=#ffffff;dashed=0;verticalLabelPosition=bottom;verticalAlign=top;align=center;html=1;fontSize=12;fontStyle=0;aspect=fixed;shape=mxgraph.aws4.resourceIcon;resIcon=mxgraph.aws4.elastic_load_balancing;" parent="J9soDipoNxHQr6FtKPc_-6" vertex="1">
          <mxGeometry x="61" y="91" width="78" height="78" as="geometry" />
        </mxCell>
        <mxCell id="J9soDipoNxHQr6FtKPc_-25" value="1" style="ellipse;whiteSpace=wrap;html=1;aspect=fixed;" parent="J9soDipoNxHQr6FtKPc_-6" vertex="1">
          <mxGeometry x="10" y="40.99999999999987" width="20" height="20" as="geometry" />
        </mxCell>
        <mxCell id="J9soDipoNxHQr6FtKPc_-26" value="ALB forwards request to &lt;br&gt;Traefik Ingress Controller" style="text;html=1;align=center;verticalAlign=middle;resizable=0;points=[];autosize=1;strokeColor=none;fillColor=none;" parent="J9soDipoNxHQr6FtKPc_-6" vertex="1">
          <mxGeometry x="30" y="31" width="160" height="40" as="geometry" />
        </mxCell>
        <mxCell id="J9soDipoNxHQr6FtKPc_-24" style="edgeStyle=orthogonalEdgeStyle;rounded=0;orthogonalLoop=1;jettySize=auto;html=1;exitX=1;exitY=0.25;exitDx=0;exitDy=0;exitPerimeter=0;entryX=0;entryY=0.25;entryDx=0;entryDy=0;entryPerimeter=0;strokeColor=#FF0000;" parent="J9soDipoNxHQr6FtKPc_-3" source="J9soDipoNxHQr6FtKPc_-12" target="J9soDipoNxHQr6FtKPc_-8" edge="1">
          <mxGeometry relative="1" as="geometry" />
        </mxCell>
        <mxCell id="J9soDipoNxHQr6FtKPc_-38" value="4" style="ellipse;whiteSpace=wrap;html=1;aspect=fixed;" parent="J9soDipoNxHQr6FtKPc_-3" vertex="1">
          <mxGeometry x="421" y="369.9999999999999" width="20" height="20" as="geometry" />
        </mxCell>
        <mxCell id="J9soDipoNxHQr6FtKPc_-39" value="The url is returned by the api&lt;br&gt;the artifact is then uploaded to&lt;br&gt;the target bucket" style="text;html=1;align=center;verticalAlign=middle;resizable=0;points=[];autosize=1;strokeColor=none;fillColor=none;" parent="J9soDipoNxHQr6FtKPc_-3" vertex="1">
          <mxGeometry x="441" y="359" width="180" height="60" as="geometry" />
        </mxCell>
        <mxCell id="J9soDipoNxHQr6FtKPc_-40" style="edgeStyle=orthogonalEdgeStyle;rounded=0;orthogonalLoop=1;jettySize=auto;html=1;exitX=0;exitY=0.75;exitDx=0;exitDy=0;exitPerimeter=0;entryX=1;entryY=0.75;entryDx=0;entryDy=0;entryPerimeter=0;" parent="J9soDipoNxHQr6FtKPc_-3" source="J9soDipoNxHQr6FtKPc_-8" target="J9soDipoNxHQr6FtKPc_-12" edge="1">
          <mxGeometry relative="1" as="geometry" />
        </mxCell>
        <mxCell id="J9soDipoNxHQr6FtKPc_-41" value="5" style="ellipse;whiteSpace=wrap;html=1;aspect=fixed;" parent="J9soDipoNxHQr6FtKPc_-3" vertex="1">
          <mxGeometry x="50" y="369.9999999999999" width="20" height="20" as="geometry" />
        </mxCell>
        <mxCell id="J9soDipoNxHQr6FtKPc_-42" value="Inspection result is then&lt;br&gt;returned into the app" style="text;html=1;align=center;verticalAlign=middle;resizable=0;points=[];autosize=1;strokeColor=none;fillColor=none;" parent="J9soDipoNxHQr6FtKPc_-3" vertex="1">
          <mxGeometry x="75" y="360" width="150" height="40" as="geometry" />
        </mxCell>
        <mxCell id="J9soDipoNxHQr6FtKPc_-17" value="Internet Facing Components" style="fillColor=#e1d5e7;strokeColor=#9673a6;verticalAlign=top;fontStyle=0;whiteSpace=wrap;html=1;" parent="J9soDipoNxHQr6FtKPc_-2" vertex="1">
          <mxGeometry x="20" y="41" width="220" height="439" as="geometry" />
        </mxCell>
        <mxCell id="J9soDipoNxHQr6FtKPc_-18" value="" style="sketch=0;points=[[0,0,0],[0.25,0,0],[0.5,0,0],[0.75,0,0],[1,0,0],[0,1,0],[0.25,1,0],[0.5,1,0],[0.75,1,0],[1,1,0],[0,0.25,0],[0,0.5,0],[0,0.75,0],[1,0.25,0],[1,0.5,0],[1,0.75,0]];outlineConnect=0;fontColor=#232F3E;fillColor=#8C4FFF;strokeColor=#ffffff;dashed=0;verticalLabelPosition=bottom;verticalAlign=top;align=center;html=1;fontSize=12;fontStyle=0;aspect=fixed;shape=mxgraph.aws4.resourceIcon;resIcon=mxgraph.aws4.route_53;" parent="J9soDipoNxHQr6FtKPc_-2" vertex="1">
          <mxGeometry x="20" y="41" width="30" height="30" as="geometry" />
        </mxCell>
        <mxCell id="J9soDipoNxHQr6FtKPc_-20" value="CloudFront Distribution" style="sketch=0;points=[[0,0,0],[0.25,0,0],[0.5,0,0],[0.75,0,0],[1,0,0],[0,1,0],[0.25,1,0],[0.5,1,0],[0.75,1,0],[1,1,0],[0,0.25,0],[0,0.5,0],[0,0.75,0],[1,0.25,0],[1,0.5,0],[1,0.75,0]];outlineConnect=0;fontColor=#232F3E;fillColor=#8C4FFF;strokeColor=#ffffff;dashed=0;verticalLabelPosition=bottom;verticalAlign=top;align=center;html=1;fontSize=12;fontStyle=0;aspect=fixed;shape=mxgraph.aws4.resourceIcon;resIcon=mxgraph.aws4.cloudfront;" parent="J9soDipoNxHQr6FtKPc_-2" vertex="1">
          <mxGeometry x="91" y="250" width="78" height="78" as="geometry" />
        </mxCell>
        <mxCell id="J9soDipoNxHQr6FtKPc_-21" style="edgeStyle=orthogonalEdgeStyle;rounded=0;orthogonalLoop=1;jettySize=auto;html=1;entryX=0;entryY=0.5;entryDx=0;entryDy=0;entryPerimeter=0;startArrow=classic;startFill=1;" parent="J9soDipoNxHQr6FtKPc_-2" source="J9soDipoNxHQr6FtKPc_-20" target="J9soDipoNxHQr6FtKPc_-12" edge="1">
          <mxGeometry relative="1" as="geometry" />
        </mxCell>
        <mxCell id="J9soDipoNxHQr6FtKPc_-15" style="edgeStyle=orthogonalEdgeStyle;rounded=0;orthogonalLoop=1;jettySize=auto;html=1;endArrow=none;startFill=0;" parent="1" source="J9soDipoNxHQr6FtKPc_-13" target="J9soDipoNxHQr6FtKPc_-14" edge="1">
          <mxGeometry relative="1" as="geometry" />
        </mxCell>
        <mxCell id="J9soDipoNxHQr6FtKPc_-13" value="" style="sketch=0;outlineConnect=0;fontColor=#232F3E;gradientColor=none;fillColor=#232F3D;strokeColor=none;dashed=0;verticalLabelPosition=bottom;verticalAlign=top;align=center;html=1;fontSize=12;fontStyle=0;aspect=fixed;pointerEvents=1;shape=mxgraph.aws4.user;" parent="1" vertex="1">
          <mxGeometry x="100" y="340.3" width="78" height="78" as="geometry" />
        </mxCell>
        <mxCell id="J9soDipoNxHQr6FtKPc_-23" style="edgeStyle=orthogonalEdgeStyle;rounded=0;orthogonalLoop=1;jettySize=auto;html=1;entryX=-0.008;entryY=0.588;entryDx=0;entryDy=0;entryPerimeter=0;" parent="1" source="J9soDipoNxHQr6FtKPc_-14" target="J9soDipoNxHQr6FtKPc_-17" edge="1">
          <mxGeometry relative="1" as="geometry" />
        </mxCell>
        <mxCell id="J9soDipoNxHQr6FtKPc_-14" value="" style="verticalLabelPosition=bottom;html=1;verticalAlign=top;strokeWidth=1;align=center;outlineConnect=0;dashed=0;outlineConnect=0;shape=mxgraph.aws3d.file;aspect=fixed;strokeColor=#292929;" parent="1" vertex="1">
          <mxGeometry x="270" y="344" width="30.8" height="70.6" as="geometry" />
        </mxCell>
        <mxCell id="Rwr5Ts_VPCZCV-CPFw-7-8" value="" style="group" parent="1" vertex="1" connectable="0">
          <mxGeometry x="270" y="490" width="100" height="40" as="geometry" />
        </mxCell>
        <mxCell id="Rwr5Ts_VPCZCV-CPFw-7-2" style="edgeStyle=orthogonalEdgeStyle;rounded=0;orthogonalLoop=1;jettySize=auto;html=1;" parent="Rwr5Ts_VPCZCV-CPFw-7-8" edge="1">
          <mxGeometry relative="1" as="geometry">
            <mxPoint y="40" as="sourcePoint" />
            <mxPoint x="100" y="40" as="targetPoint" />
          </mxGeometry>
        </mxCell>
        <mxCell id="Rwr5Ts_VPCZCV-CPFw-7-3" value="Client Request/Response" style="text;html=1;align=center;verticalAlign=middle;whiteSpace=wrap;rounded=0;" parent="Rwr5Ts_VPCZCV-CPFw-7-8" vertex="1">
          <mxGeometry x="20" width="60" height="30" as="geometry" />
        </mxCell>
        <mxCell id="Rwr5Ts_VPCZCV-CPFw-7-9" value="" style="group" parent="1" vertex="1" connectable="0">
          <mxGeometry x="270" y="550" width="100" height="40" as="geometry" />
        </mxCell>
        <mxCell id="Rwr5Ts_VPCZCV-CPFw-7-4" style="edgeStyle=orthogonalEdgeStyle;rounded=0;orthogonalLoop=1;jettySize=auto;html=1;exitX=1;exitY=0.25;exitDx=0;exitDy=0;exitPerimeter=0;strokeColor=#FF0000;" parent="Rwr5Ts_VPCZCV-CPFw-7-9" edge="1">
          <mxGeometry relative="1" as="geometry">
            <mxPoint y="40" as="sourcePoint" />
            <mxPoint x="100" y="40" as="targetPoint" />
          </mxGeometry>
        </mxCell>
        <mxCell id="Rwr5Ts_VPCZCV-CPFw-7-5" value="Middleware&lt;br&gt;Request/Response" style="text;html=1;align=center;verticalAlign=middle;whiteSpace=wrap;rounded=0;" parent="Rwr5Ts_VPCZCV-CPFw-7-9" vertex="1">
          <mxGeometry x="20" width="60" height="30" as="geometry" />
        </mxCell>
        <mxCell id="Rwr5Ts_VPCZCV-CPFw-7-10" value="" style="group" parent="1" vertex="1" connectable="0">
          <mxGeometry x="270" y="610" width="102" height="30" as="geometry" />
        </mxCell>
        <mxCell id="Rwr5Ts_VPCZCV-CPFw-7-6" style="edgeStyle=orthogonalEdgeStyle;rounded=0;orthogonalLoop=1;jettySize=auto;html=1;exitX=0;exitY=0.75;exitDx=0;exitDy=0;exitPerimeter=0;entryX=1;entryY=0.75;entryDx=0;entryDy=0;entryPerimeter=0;dashed=1;" parent="Rwr5Ts_VPCZCV-CPFw-7-10" edge="1">
          <mxGeometry relative="1" as="geometry">
            <mxPoint x="102" y="30" as="sourcePoint" />
            <mxPoint y="30" as="targetPoint" />
          </mxGeometry>
        </mxCell>
        <mxCell id="Rwr5Ts_VPCZCV-CPFw-7-7" value="S3 Response" style="text;html=1;align=center;verticalAlign=middle;whiteSpace=wrap;rounded=0;" parent="Rwr5Ts_VPCZCV-CPFw-7-10" vertex="1">
          <mxGeometry x="18" width="60" height="30" as="geometry" />
        </mxCell>
        <mxCell id="Rwr5Ts_VPCZCV-CPFw-7-12" value="1" style="ellipse;whiteSpace=wrap;html=1;aspect=fixed;" parent="1" vertex="1">
          <mxGeometry x="178" y="289.9999999999999" width="20" height="20" as="geometry" />
        </mxCell>
        <mxCell id="Rwr5Ts_VPCZCV-CPFw-7-13" value="User sends file with PUT&amp;nbsp;&lt;br&gt;Request to an public facing app" style="text;html=1;align=center;verticalAlign=middle;resizable=0;points=[];autosize=1;strokeColor=none;fillColor=none;" parent="1" vertex="1">
          <mxGeometry x="190.4" y="280" width="190" height="40" as="geometry" />
        </mxCell>
      </root>
    </mxGraphModel>
  </diagram>
  <diagram name="AWS Alternative" id="-PBlyRgEBqPNsmzCHJZ8">
    <mxGraphModel dx="1578" dy="1297" grid="1" gridSize="10" guides="1" tooltips="1" connect="1" arrows="1" fold="1" page="1" pageScale="1" pageWidth="1600" pageHeight="900" math="0" shadow="0">
      <root>
        <mxCell id="FbVoNSjNT4G8p-eyErVp-0" />
        <mxCell id="FbVoNSjNT4G8p-eyErVp-1" parent="FbVoNSjNT4G8p-eyErVp-0" />
        <mxCell id="FbVoNSjNT4G8p-eyErVp-2" value="AWS Cloud" style="points=[[0,0],[0.25,0],[0.5,0],[0.75,0],[1,0],[1,0.25],[1,0.5],[1,0.75],[1,1],[0.75,1],[0.5,1],[0.25,1],[0,1],[0,0.75],[0,0.5],[0,0.25]];outlineConnect=0;gradientColor=none;html=1;whiteSpace=wrap;fontSize=12;fontStyle=0;container=1;pointerEvents=0;collapsible=0;recursiveResize=0;shape=mxgraph.aws4.group;grIcon=mxgraph.aws4.group_aws_cloud_alt;strokeColor=#232F3E;fillColor=none;verticalAlign=top;align=left;spacingLeft=30;fontColor=#232F3E;dashed=0;" vertex="1" parent="FbVoNSjNT4G8p-eyErVp-1">
          <mxGeometry x="380" y="80" width="1170" height="568" as="geometry" />
        </mxCell>
        <mxCell id="FbVoNSjNT4G8p-eyErVp-3" value="VPC" style="points=[[0,0],[0.25,0],[0.5,0],[0.75,0],[1,0],[1,0.25],[1,0.5],[1,0.75],[1,1],[0.75,1],[0.5,1],[0.25,1],[0,1],[0,0.75],[0,0.5],[0,0.25]];outlineConnect=0;gradientColor=none;html=1;whiteSpace=wrap;fontSize=12;fontStyle=0;container=1;pointerEvents=0;collapsible=0;recursiveResize=0;shape=mxgraph.aws4.group;grIcon=mxgraph.aws4.group_vpc2;strokeColor=#8C4FFF;fillColor=none;verticalAlign=top;align=left;spacingLeft=30;fontColor=#AAB7B8;dashed=0;" vertex="1" parent="FbVoNSjNT4G8p-eyErVp-2">
          <mxGeometry x="250" y="40" width="760" height="510" as="geometry" />
        </mxCell>
        <mxCell id="FbVoNSjNT4G8p-eyErVp-4" value="Private subnet" style="points=[[0,0],[0.25,0],[0.5,0],[0.75,0],[1,0],[1,0.25],[1,0.5],[1,0.75],[1,1],[0.75,1],[0.5,1],[0.25,1],[0,1],[0,0.75],[0,0.5],[0,0.25]];outlineConnect=0;gradientColor=none;html=1;whiteSpace=wrap;fontSize=12;fontStyle=0;container=1;pointerEvents=0;collapsible=0;recursiveResize=0;shape=mxgraph.aws4.group;grIcon=mxgraph.aws4.group_security_group;grStroke=0;strokeColor=#00A4A6;fillColor=#E6F6F7;verticalAlign=top;align=left;spacingLeft=30;fontColor=#147EBA;dashed=0;" vertex="1" parent="FbVoNSjNT4G8p-eyErVp-3">
          <mxGeometry x="280" y="119" width="340" height="381" as="geometry" />
        </mxCell>
        <mxCell id="FbVoNSjNT4G8p-eyErVp-8" value="Protected Application&lt;br&gt;Bucket" style="sketch=0;points=[[0,0,0],[0.25,0,0],[0.5,0,0],[0.75,0,0],[1,0,0],[0,1,0],[0.25,1,0],[0.5,1,0],[0.75,1,0],[1,1,0],[0,0.25,0],[0,0.5,0],[0,0.75,0],[1,0.25,0],[1,0.5,0],[1,0.75,0]];outlineConnect=0;fontColor=#232F3E;fillColor=#7AA116;strokeColor=#ffffff;dashed=0;verticalLabelPosition=bottom;verticalAlign=top;align=center;html=1;fontSize=12;fontStyle=0;aspect=fixed;shape=mxgraph.aws4.resourceIcon;resIcon=mxgraph.aws4.s3;" vertex="1" parent="FbVoNSjNT4G8p-eyErVp-4">
          <mxGeometry x="520" y="91" width="78" height="78" as="geometry" />
        </mxCell>
        <mxCell id="FbVoNSjNT4G8p-eyErVp-12" style="edgeStyle=orthogonalEdgeStyle;rounded=0;orthogonalLoop=1;jettySize=auto;html=1;exitX=1;exitY=0.25;exitDx=0;exitDy=0;exitPerimeter=0;entryX=0;entryY=0.25;entryDx=0;entryDy=0;entryPerimeter=0;strokeColor=#FF0000;" edge="1" parent="FbVoNSjNT4G8p-eyErVp-4" target="FbVoNSjNT4G8p-eyErVp-7">
          <mxGeometry relative="1" as="geometry">
            <mxPoint x="258" y="110.50000000000011" as="sourcePoint" />
          </mxGeometry>
        </mxCell>
        <mxCell id="FbVoNSjNT4G8p-eyErVp-17" style="edgeStyle=orthogonalEdgeStyle;rounded=0;orthogonalLoop=1;jettySize=auto;html=1;exitX=0;exitY=0.75;exitDx=0;exitDy=0;exitPerimeter=0;entryX=1;entryY=0.75;entryDx=0;entryDy=0;entryPerimeter=0;dashed=1;" edge="1" parent="FbVoNSjNT4G8p-eyErVp-4" source="FbVoNSjNT4G8p-eyErVp-7">
          <mxGeometry relative="1" as="geometry">
            <mxPoint x="258" y="149.5000000000001" as="targetPoint" />
          </mxGeometry>
        </mxCell>
        <mxCell id="zssucl3n_P7FNy54XGou-2" value="Traefik Instances/Pods" style="points=[[0,0],[0.25,0],[0.5,0],[0.75,0],[1,0],[1,0.25],[1,0.5],[1,0.75],[1,1],[0.75,1],[0.5,1],[0.25,1],[0,1],[0,0.75],[0,0.5],[0,0.25]];outlineConnect=0;gradientColor=none;html=1;whiteSpace=wrap;fontSize=12;fontStyle=0;container=1;pointerEvents=0;collapsible=0;recursiveResize=0;shape=mxgraph.aws4.group;grIcon=mxgraph.aws4.group_ec2_instance_contents;strokeColor=#D86613;fillColor=none;verticalAlign=top;align=left;spacingLeft=30;fontColor=#D86613;dashed=0;" vertex="1" parent="FbVoNSjNT4G8p-eyErVp-4">
          <mxGeometry x="20" y="39" width="310" height="181" as="geometry" />
        </mxCell>
        <mxCell id="zssucl3n_P7FNy54XGou-7" value="" style="sketch=0;points=[[0,0,0],[0.25,0,0],[0.5,0,0],[0.75,0,0],[1,0,0],[0,1,0],[0.25,1,0],[0.5,1,0],[0.75,1,0],[1,1,0],[0,0.25,0],[0,0.5,0],[0,0.75,0],[1,0.25,0],[1,0.5,0],[1,0.75,0]];outlineConnect=0;fontColor=#232F3E;fillColor=#ED7100;strokeColor=#ffffff;dashed=0;verticalLabelPosition=bottom;verticalAlign=top;align=center;html=1;fontSize=12;fontStyle=0;aspect=fixed;shape=mxgraph.aws4.resourceIcon;resIcon=mxgraph.aws4.compute;" vertex="1" parent="zssucl3n_P7FNy54XGou-2">
          <mxGeometry x="20" y="51.5" width="78" height="78" as="geometry" />
        </mxCell>
        <mxCell id="zssucl3n_P7FNy54XGou-9" value="" style="sketch=0;points=[[0,0,0],[0.25,0,0],[0.5,0,0],[0.75,0,0],[1,0,0],[0,1,0],[0.25,1,0],[0.5,1,0],[0.75,1,0],[1,1,0],[0,0.25,0],[0,0.5,0],[0,0.75,0],[1,0.25,0],[1,0.5,0],[1,0.75,0]];outlineConnect=0;fontColor=#232F3E;fillColor=#ED7100;strokeColor=#ffffff;dashed=0;verticalLabelPosition=bottom;verticalAlign=top;align=center;html=1;fontSize=12;fontStyle=0;aspect=fixed;shape=mxgraph.aws4.resourceIcon;resIcon=mxgraph.aws4.compute;" vertex="1" parent="zssucl3n_P7FNy54XGou-2">
          <mxGeometry x="200" y="51.5" width="78" height="78" as="geometry" />
        </mxCell>
        <mxCell id="zssucl3n_P7FNy54XGou-10" style="edgeStyle=orthogonalEdgeStyle;rounded=0;orthogonalLoop=1;jettySize=auto;html=1;exitX=1;exitY=0.25;exitDx=0;exitDy=0;exitPerimeter=0;entryX=0;entryY=0.25;entryDx=0;entryDy=0;entryPerimeter=0;" edge="1" parent="zssucl3n_P7FNy54XGou-2" source="zssucl3n_P7FNy54XGou-7" target="zssucl3n_P7FNy54XGou-9">
          <mxGeometry relative="1" as="geometry" />
        </mxCell>
        <mxCell id="zssucl3n_P7FNy54XGou-11" style="edgeStyle=orthogonalEdgeStyle;rounded=0;orthogonalLoop=1;jettySize=auto;html=1;exitX=0;exitY=0.75;exitDx=0;exitDy=0;exitPerimeter=0;entryX=1;entryY=0.75;entryDx=0;entryDy=0;entryPerimeter=0;" edge="1" parent="zssucl3n_P7FNy54XGou-2" source="zssucl3n_P7FNy54XGou-9" target="zssucl3n_P7FNy54XGou-7">
          <mxGeometry relative="1" as="geometry" />
        </mxCell>
        <mxCell id="zssucl3n_P7FNy54XGou-14" value="" style="sketch=0;points=[[0,0,0],[0.25,0,0],[0.5,0,0],[0.75,0,0],[1,0,0],[0,1,0],[0.25,1,0],[0.5,1,0],[0.75,1,0],[1,1,0],[0,0.25,0],[0,0.5,0],[0,0.75,0],[1,0.25,0],[1,0.5,0],[1,0.75,0]];outlineConnect=0;fontColor=#232F3E;fillColor=#ED7100;strokeColor=#ffffff;dashed=0;verticalLabelPosition=bottom;verticalAlign=top;align=center;html=1;fontSize=12;fontStyle=0;aspect=fixed;shape=mxgraph.aws4.resourceIcon;resIcon=mxgraph.aws4.compute;" vertex="1" parent="zssucl3n_P7FNy54XGou-2">
          <mxGeometry x="20" y="51.5" width="78" height="78" as="geometry" />
        </mxCell>
        <mxCell id="zssucl3n_P7FNy54XGou-17" style="edgeStyle=orthogonalEdgeStyle;rounded=0;orthogonalLoop=1;jettySize=auto;html=1;exitX=0;exitY=0.75;exitDx=0;exitDy=0;exitPerimeter=0;entryX=1;entryY=0.75;entryDx=0;entryDy=0;entryPerimeter=0;" edge="1" parent="FbVoNSjNT4G8p-eyErVp-4" source="FbVoNSjNT4G8p-eyErVp-8" target="zssucl3n_P7FNy54XGou-9">
          <mxGeometry relative="1" as="geometry" />
        </mxCell>
        <mxCell id="zssucl3n_P7FNy54XGou-23" value="ClamAV Instances/Pods" style="points=[[0,0],[0.25,0],[0.5,0],[0.75,0],[1,0],[1,0.25],[1,0.5],[1,0.75],[1,1],[0.75,1],[0.5,1],[0.25,1],[0,1],[0,0.75],[0,0.5],[0,0.25]];outlineConnect=0;gradientColor=none;html=1;whiteSpace=wrap;fontSize=12;fontStyle=0;container=1;pointerEvents=0;collapsible=0;recursiveResize=0;shape=mxgraph.aws4.group;grIcon=mxgraph.aws4.group_ec2_instance_contents;strokeColor=#D86613;fillColor=none;verticalAlign=top;align=left;spacingLeft=30;fontColor=#D86613;dashed=0;" vertex="1" parent="FbVoNSjNT4G8p-eyErVp-4">
          <mxGeometry x="160" y="228" width="170" height="143" as="geometry" />
        </mxCell>
        <mxCell id="zssucl3n_P7FNy54XGou-26" style="edgeStyle=orthogonalEdgeStyle;rounded=0;orthogonalLoop=1;jettySize=auto;html=1;exitX=1;exitY=0.25;exitDx=0;exitDy=0;exitPerimeter=0;entryX=0;entryY=0.25;entryDx=0;entryDy=0;entryPerimeter=0;" edge="1" parent="zssucl3n_P7FNy54XGou-23" target="zssucl3n_P7FNy54XGou-25">
          <mxGeometry relative="1" as="geometry">
            <mxPoint x="98" y="71" as="sourcePoint" />
          </mxGeometry>
        </mxCell>
        <mxCell id="zssucl3n_P7FNy54XGou-27" style="edgeStyle=orthogonalEdgeStyle;rounded=0;orthogonalLoop=1;jettySize=auto;html=1;exitX=0;exitY=0.75;exitDx=0;exitDy=0;exitPerimeter=0;entryX=1;entryY=0.75;entryDx=0;entryDy=0;entryPerimeter=0;" edge="1" parent="zssucl3n_P7FNy54XGou-23" source="zssucl3n_P7FNy54XGou-25">
          <mxGeometry relative="1" as="geometry">
            <mxPoint x="98" y="109.99999999999977" as="targetPoint" />
          </mxGeometry>
        </mxCell>
        <mxCell id="zssucl3n_P7FNy54XGou-28" value="" style="sketch=0;points=[[0,0,0],[0.25,0,0],[0.5,0,0],[0.75,0,0],[1,0,0],[0,1,0],[0.25,1,0],[0.5,1,0],[0.75,1,0],[1,1,0],[0,0.25,0],[0,0.5,0],[0,0.75,0],[1,0.25,0],[1,0.5,0],[1,0.75,0]];outlineConnect=0;fontColor=#232F3E;fillColor=#ED7100;strokeColor=#ffffff;dashed=0;verticalLabelPosition=bottom;verticalAlign=top;align=center;html=1;fontSize=12;fontStyle=0;aspect=fixed;shape=mxgraph.aws4.resourceIcon;resIcon=mxgraph.aws4.compute;" vertex="1" parent="zssucl3n_P7FNy54XGou-23">
          <mxGeometry x="46" y="32.5" width="78" height="78" as="geometry" />
        </mxCell>
        <mxCell id="zssucl3n_P7FNy54XGou-29" style="edgeStyle=orthogonalEdgeStyle;rounded=0;orthogonalLoop=1;jettySize=auto;html=1;exitX=0.5;exitY=1;exitDx=0;exitDy=0;exitPerimeter=0;entryX=0;entryY=0.5;entryDx=0;entryDy=0;entryPerimeter=0;startArrow=classic;startFill=1;" edge="1" parent="FbVoNSjNT4G8p-eyErVp-4" source="zssucl3n_P7FNy54XGou-14" target="zssucl3n_P7FNy54XGou-28">
          <mxGeometry relative="1" as="geometry" />
        </mxCell>
        <mxCell id="FbVoNSjNT4G8p-eyErVp-19" value="Public subnet" style="points=[[0,0],[0.25,0],[0.5,0],[0.75,0],[1,0],[1,0.25],[1,0.5],[1,0.75],[1,1],[0.75,1],[0.5,1],[0.25,1],[0,1],[0,0.75],[0,0.5],[0,0.25]];outlineConnect=0;gradientColor=none;html=1;whiteSpace=wrap;fontSize=12;fontStyle=0;container=1;pointerEvents=0;collapsible=0;recursiveResize=0;shape=mxgraph.aws4.group;grIcon=mxgraph.aws4.group_security_group;grStroke=0;strokeColor=#7AA116;fillColor=#F2F6E8;verticalAlign=top;align=left;spacingLeft=30;fontColor=#248814;dashed=0;" vertex="1" parent="FbVoNSjNT4G8p-eyErVp-3">
          <mxGeometry x="40" y="119" width="200" height="240" as="geometry" />
        </mxCell>
        <mxCell id="FbVoNSjNT4G8p-eyErVp-20" value="Application LoadBalancer" style="sketch=0;points=[[0,0,0],[0.25,0,0],[0.5,0,0],[0.75,0,0],[1,0,0],[0,1,0],[0.25,1,0],[0.5,1,0],[0.75,1,0],[1,1,0],[0,0.25,0],[0,0.5,0],[0,0.75,0],[1,0.25,0],[1,0.5,0],[1,0.75,0]];outlineConnect=0;fontColor=#232F3E;fillColor=#8C4FFF;strokeColor=#ffffff;dashed=0;verticalLabelPosition=bottom;verticalAlign=top;align=center;html=1;fontSize=12;fontStyle=0;aspect=fixed;shape=mxgraph.aws4.resourceIcon;resIcon=mxgraph.aws4.elastic_load_balancing;" vertex="1" parent="FbVoNSjNT4G8p-eyErVp-19">
          <mxGeometry x="61" y="91" width="78" height="78" as="geometry" />
        </mxCell>
        <mxCell id="FbVoNSjNT4G8p-eyErVp-21" value="1" style="ellipse;whiteSpace=wrap;html=1;aspect=fixed;" vertex="1" parent="FbVoNSjNT4G8p-eyErVp-19">
          <mxGeometry x="10" y="40.99999999999987" width="20" height="20" as="geometry" />
        </mxCell>
        <mxCell id="FbVoNSjNT4G8p-eyErVp-22" value="ALB forwards request to &lt;br&gt;Traefik Ingress Controller" style="text;html=1;align=center;verticalAlign=middle;resizable=0;points=[];autosize=1;strokeColor=none;fillColor=none;" vertex="1" parent="FbVoNSjNT4G8p-eyErVp-19">
          <mxGeometry x="30" y="31" width="160" height="40" as="geometry" />
        </mxCell>
        <mxCell id="FbVoNSjNT4G8p-eyErVp-27" value="5" style="ellipse;whiteSpace=wrap;html=1;aspect=fixed;" vertex="1" parent="FbVoNSjNT4G8p-eyErVp-3">
          <mxGeometry x="50" y="369.9999999999999" width="20" height="20" as="geometry" />
        </mxCell>
        <mxCell id="FbVoNSjNT4G8p-eyErVp-28" value="Inspection result is then&lt;br&gt;returned into the app" style="text;html=1;align=center;verticalAlign=middle;resizable=0;points=[];autosize=1;strokeColor=none;fillColor=none;" vertex="1" parent="FbVoNSjNT4G8p-eyErVp-3">
          <mxGeometry x="75" y="360" width="150" height="40" as="geometry" />
        </mxCell>
        <mxCell id="zssucl3n_P7FNy54XGou-5" value="" style="group" vertex="1" connectable="0" parent="FbVoNSjNT4G8p-eyErVp-3">
          <mxGeometry x="100" y="70" width="140" height="40" as="geometry" />
        </mxCell>
        <mxCell id="FbVoNSjNT4G8p-eyErVp-10" value="Desired midleware&lt;br&gt;process request" style="text;html=1;align=center;verticalAlign=middle;resizable=0;points=[];autosize=1;strokeColor=none;fillColor=none;" vertex="1" parent="zssucl3n_P7FNy54XGou-5">
          <mxGeometry x="20" width="120" height="40" as="geometry" />
        </mxCell>
        <mxCell id="FbVoNSjNT4G8p-eyErVp-9" value="2" style="ellipse;whiteSpace=wrap;html=1;aspect=fixed;" vertex="1" parent="zssucl3n_P7FNy54XGou-5">
          <mxGeometry y="9.999999999999886" width="20" height="20" as="geometry" />
        </mxCell>
        <mxCell id="zssucl3n_P7FNy54XGou-8" style="edgeStyle=orthogonalEdgeStyle;rounded=0;orthogonalLoop=1;jettySize=auto;html=1;exitX=1;exitY=0.25;exitDx=0;exitDy=0;exitPerimeter=0;entryX=0;entryY=0.25;entryDx=0;entryDy=0;entryPerimeter=0;" edge="1" parent="FbVoNSjNT4G8p-eyErVp-3" source="FbVoNSjNT4G8p-eyErVp-20" target="zssucl3n_P7FNy54XGou-7">
          <mxGeometry relative="1" as="geometry" />
        </mxCell>
        <mxCell id="zssucl3n_P7FNy54XGou-12" style="edgeStyle=orthogonalEdgeStyle;rounded=0;orthogonalLoop=1;jettySize=auto;html=1;exitX=0;exitY=0.75;exitDx=0;exitDy=0;exitPerimeter=0;entryX=1;entryY=0.75;entryDx=0;entryDy=0;entryPerimeter=0;" edge="1" parent="FbVoNSjNT4G8p-eyErVp-3" source="zssucl3n_P7FNy54XGou-7" target="FbVoNSjNT4G8p-eyErVp-20">
          <mxGeometry relative="1" as="geometry" />
        </mxCell>
        <mxCell id="zssucl3n_P7FNy54XGou-13" value="" style="sketch=0;outlineConnect=0;fontColor=#232F3E;gradientColor=none;fillColor=#DD344C;strokeColor=none;dashed=0;verticalLabelPosition=bottom;verticalAlign=top;align=center;html=1;fontSize=12;fontStyle=0;aspect=fixed;pointerEvents=1;shape=mxgraph.aws4.role;" vertex="1" parent="FbVoNSjNT4G8p-eyErVp-3">
          <mxGeometry x="650" y="206.5" width="78" height="44" as="geometry" />
        </mxCell>
        <mxCell id="zssucl3n_P7FNy54XGou-15" style="edgeStyle=orthogonalEdgeStyle;rounded=0;orthogonalLoop=1;jettySize=auto;html=1;exitX=1;exitY=0.25;exitDx=0;exitDy=0;exitPerimeter=0;" edge="1" parent="FbVoNSjNT4G8p-eyErVp-3" source="zssucl3n_P7FNy54XGou-9" target="zssucl3n_P7FNy54XGou-13">
          <mxGeometry relative="1" as="geometry" />
        </mxCell>
        <mxCell id="zssucl3n_P7FNy54XGou-16" style="edgeStyle=orthogonalEdgeStyle;rounded=0;orthogonalLoop=1;jettySize=auto;html=1;entryX=0;entryY=0.25;entryDx=0;entryDy=0;entryPerimeter=0;" edge="1" parent="FbVoNSjNT4G8p-eyErVp-3" source="zssucl3n_P7FNy54XGou-13" target="FbVoNSjNT4G8p-eyErVp-8">
          <mxGeometry relative="1" as="geometry" />
        </mxCell>
        <mxCell id="FbVoNSjNT4G8p-eyErVp-29" value="Internet Facing Components" style="fillColor=#e1d5e7;strokeColor=#9673a6;verticalAlign=top;fontStyle=0;whiteSpace=wrap;html=1;" vertex="1" parent="FbVoNSjNT4G8p-eyErVp-2">
          <mxGeometry x="20" y="41" width="220" height="509" as="geometry" />
        </mxCell>
        <mxCell id="FbVoNSjNT4G8p-eyErVp-30" value="" style="sketch=0;points=[[0,0,0],[0.25,0,0],[0.5,0,0],[0.75,0,0],[1,0,0],[0,1,0],[0.25,1,0],[0.5,1,0],[0.75,1,0],[1,1,0],[0,0.25,0],[0,0.5,0],[0,0.75,0],[1,0.25,0],[1,0.5,0],[1,0.75,0]];outlineConnect=0;fontColor=#232F3E;fillColor=#8C4FFF;strokeColor=#ffffff;dashed=0;verticalLabelPosition=bottom;verticalAlign=top;align=center;html=1;fontSize=12;fontStyle=0;aspect=fixed;shape=mxgraph.aws4.resourceIcon;resIcon=mxgraph.aws4.route_53;" vertex="1" parent="FbVoNSjNT4G8p-eyErVp-2">
          <mxGeometry x="20" y="41" width="30" height="30" as="geometry" />
        </mxCell>
        <mxCell id="FbVoNSjNT4G8p-eyErVp-31" value="CloudFront Distribution" style="sketch=0;points=[[0,0,0],[0.25,0,0],[0.5,0,0],[0.75,0,0],[1,0,0],[0,1,0],[0.25,1,0],[0.5,1,0],[0.75,1,0],[1,1,0],[0,0.25,0],[0,0.5,0],[0,0.75,0],[1,0.25,0],[1,0.5,0],[1,0.75,0]];outlineConnect=0;fontColor=#232F3E;fillColor=#8C4FFF;strokeColor=#ffffff;dashed=0;verticalLabelPosition=bottom;verticalAlign=top;align=center;html=1;fontSize=12;fontStyle=0;aspect=fixed;shape=mxgraph.aws4.resourceIcon;resIcon=mxgraph.aws4.cloudfront;" vertex="1" parent="FbVoNSjNT4G8p-eyErVp-2">
          <mxGeometry x="91" y="250" width="78" height="78" as="geometry" />
        </mxCell>
        <mxCell id="FbVoNSjNT4G8p-eyErVp-32" style="edgeStyle=orthogonalEdgeStyle;rounded=0;orthogonalLoop=1;jettySize=auto;html=1;entryX=0;entryY=0.5;entryDx=0;entryDy=0;entryPerimeter=0;startArrow=classic;startFill=1;" edge="1" parent="FbVoNSjNT4G8p-eyErVp-2" source="FbVoNSjNT4G8p-eyErVp-31" target="FbVoNSjNT4G8p-eyErVp-20">
          <mxGeometry relative="1" as="geometry" />
        </mxCell>
        <mxCell id="FbVoNSjNT4G8p-eyErVp-33" style="edgeStyle=orthogonalEdgeStyle;rounded=0;orthogonalLoop=1;jettySize=auto;html=1;endArrow=none;startFill=0;" edge="1" parent="FbVoNSjNT4G8p-eyErVp-1" source="FbVoNSjNT4G8p-eyErVp-34" target="FbVoNSjNT4G8p-eyErVp-36">
          <mxGeometry relative="1" as="geometry" />
        </mxCell>
        <mxCell id="FbVoNSjNT4G8p-eyErVp-34" value="" style="sketch=0;outlineConnect=0;fontColor=#232F3E;gradientColor=none;fillColor=#232F3D;strokeColor=none;dashed=0;verticalLabelPosition=bottom;verticalAlign=top;align=center;html=1;fontSize=12;fontStyle=0;aspect=fixed;pointerEvents=1;shape=mxgraph.aws4.user;" vertex="1" parent="FbVoNSjNT4G8p-eyErVp-1">
          <mxGeometry x="100" y="340.3" width="78" height="78" as="geometry" />
        </mxCell>
        <mxCell id="FbVoNSjNT4G8p-eyErVp-35" style="edgeStyle=orthogonalEdgeStyle;rounded=0;orthogonalLoop=1;jettySize=auto;html=1;entryX=-0.008;entryY=0.588;entryDx=0;entryDy=0;entryPerimeter=0;" edge="1" parent="FbVoNSjNT4G8p-eyErVp-1" source="FbVoNSjNT4G8p-eyErVp-36" target="FbVoNSjNT4G8p-eyErVp-29">
          <mxGeometry relative="1" as="geometry" />
        </mxCell>
        <mxCell id="FbVoNSjNT4G8p-eyErVp-36" value="" style="verticalLabelPosition=bottom;html=1;verticalAlign=top;strokeWidth=1;align=center;outlineConnect=0;dashed=0;outlineConnect=0;shape=mxgraph.aws3d.file;aspect=fixed;strokeColor=#292929;" vertex="1" parent="FbVoNSjNT4G8p-eyErVp-1">
          <mxGeometry x="270" y="344" width="30.8" height="70.6" as="geometry" />
        </mxCell>
        <mxCell id="FbVoNSjNT4G8p-eyErVp-37" value="" style="group" vertex="1" connectable="0" parent="FbVoNSjNT4G8p-eyErVp-1">
          <mxGeometry x="270" y="490" width="100" height="40" as="geometry" />
        </mxCell>
        <mxCell id="FbVoNSjNT4G8p-eyErVp-38" style="edgeStyle=orthogonalEdgeStyle;rounded=0;orthogonalLoop=1;jettySize=auto;html=1;" edge="1" parent="FbVoNSjNT4G8p-eyErVp-37">
          <mxGeometry relative="1" as="geometry">
            <mxPoint y="40" as="sourcePoint" />
            <mxPoint x="100" y="40" as="targetPoint" />
          </mxGeometry>
        </mxCell>
        <mxCell id="FbVoNSjNT4G8p-eyErVp-39" value="Client Request/Response" style="text;html=1;align=center;verticalAlign=middle;whiteSpace=wrap;rounded=0;" vertex="1" parent="FbVoNSjNT4G8p-eyErVp-37">
          <mxGeometry x="20" width="60" height="30" as="geometry" />
        </mxCell>
        <mxCell id="FbVoNSjNT4G8p-eyErVp-40" value="" style="group" vertex="1" connectable="0" parent="FbVoNSjNT4G8p-eyErVp-1">
          <mxGeometry x="270" y="550" width="100" height="40" as="geometry" />
        </mxCell>
        <mxCell id="FbVoNSjNT4G8p-eyErVp-41" style="edgeStyle=orthogonalEdgeStyle;rounded=0;orthogonalLoop=1;jettySize=auto;html=1;exitX=1;exitY=0.25;exitDx=0;exitDy=0;exitPerimeter=0;strokeColor=#FF0000;" edge="1" parent="FbVoNSjNT4G8p-eyErVp-40">
          <mxGeometry relative="1" as="geometry">
            <mxPoint y="40" as="sourcePoint" />
            <mxPoint x="100" y="40" as="targetPoint" />
          </mxGeometry>
        </mxCell>
        <mxCell id="FbVoNSjNT4G8p-eyErVp-42" value="Middleware&lt;br&gt;Request/Response" style="text;html=1;align=center;verticalAlign=middle;whiteSpace=wrap;rounded=0;" vertex="1" parent="FbVoNSjNT4G8p-eyErVp-40">
          <mxGeometry x="20" width="60" height="30" as="geometry" />
        </mxCell>
        <mxCell id="FbVoNSjNT4G8p-eyErVp-43" value="" style="group" vertex="1" connectable="0" parent="FbVoNSjNT4G8p-eyErVp-1">
          <mxGeometry x="270" y="610" width="102" height="30" as="geometry" />
        </mxCell>
        <mxCell id="FbVoNSjNT4G8p-eyErVp-44" style="edgeStyle=orthogonalEdgeStyle;rounded=0;orthogonalLoop=1;jettySize=auto;html=1;exitX=0;exitY=0.75;exitDx=0;exitDy=0;exitPerimeter=0;entryX=1;entryY=0.75;entryDx=0;entryDy=0;entryPerimeter=0;dashed=1;" edge="1" parent="FbVoNSjNT4G8p-eyErVp-43">
          <mxGeometry relative="1" as="geometry">
            <mxPoint x="102" y="30" as="sourcePoint" />
            <mxPoint y="30" as="targetPoint" />
          </mxGeometry>
        </mxCell>
        <mxCell id="FbVoNSjNT4G8p-eyErVp-45" value="S3 Response" style="text;html=1;align=center;verticalAlign=middle;whiteSpace=wrap;rounded=0;" vertex="1" parent="FbVoNSjNT4G8p-eyErVp-43">
          <mxGeometry x="18" width="60" height="30" as="geometry" />
        </mxCell>
        <mxCell id="FbVoNSjNT4G8p-eyErVp-46" value="1" style="ellipse;whiteSpace=wrap;html=1;aspect=fixed;" vertex="1" parent="FbVoNSjNT4G8p-eyErVp-1">
          <mxGeometry x="178" y="289.9999999999999" width="20" height="20" as="geometry" />
        </mxCell>
        <mxCell id="FbVoNSjNT4G8p-eyErVp-47" value="User sends file with PUT&amp;nbsp;&lt;br&gt;Request to an public facing app" style="text;html=1;align=center;verticalAlign=middle;resizable=0;points=[];autosize=1;strokeColor=none;fillColor=none;" vertex="1" parent="FbVoNSjNT4G8p-eyErVp-1">
          <mxGeometry x="190.4" y="280" width="190" height="40" as="geometry" />
        </mxCell>
      </root>
    </mxGraphModel>
  </diagram>
  <diagram name="Concept" id="C9z4E8maQqq1AdLHYmnz">
    <mxGraphModel dx="1710" dy="1405" grid="1" gridSize="10" guides="1" tooltips="1" connect="1" arrows="1" fold="1" page="1" pageScale="1" pageWidth="1600" pageHeight="900" math="0" shadow="0">
      <root>
        <mxCell id="KeGFRRylSvWP-kbDqHwY-0" />
        <mxCell id="KeGFRRylSvWP-kbDqHwY-1" parent="KeGFRRylSvWP-kbDqHwY-0" />
        <mxCell id="KeGFRRylSvWP-kbDqHwY-38" style="edgeStyle=orthogonalEdgeStyle;rounded=0;orthogonalLoop=1;jettySize=auto;html=1;endArrow=none;startFill=0;" edge="1" parent="KeGFRRylSvWP-kbDqHwY-1" source="KeGFRRylSvWP-kbDqHwY-39" target="KeGFRRylSvWP-kbDqHwY-41">
          <mxGeometry relative="1" as="geometry" />
        </mxCell>
        <mxCell id="KeGFRRylSvWP-kbDqHwY-39" value="" style="sketch=0;outlineConnect=0;fontColor=#232F3E;gradientColor=none;fillColor=#232F3D;strokeColor=none;dashed=0;verticalLabelPosition=bottom;verticalAlign=top;align=center;html=1;fontSize=12;fontStyle=0;aspect=fixed;pointerEvents=1;shape=mxgraph.aws4.user;" vertex="1" parent="KeGFRRylSvWP-kbDqHwY-1">
          <mxGeometry x="100" y="340.3" width="78" height="78" as="geometry" />
        </mxCell>
        <mxCell id="KeGFRRylSvWP-kbDqHwY-41" value="" style="verticalLabelPosition=bottom;html=1;verticalAlign=top;strokeWidth=1;align=center;outlineConnect=0;dashed=0;outlineConnect=0;shape=mxgraph.aws3d.file;aspect=fixed;strokeColor=#292929;" vertex="1" parent="KeGFRRylSvWP-kbDqHwY-1">
          <mxGeometry x="270" y="344" width="30.8" height="70.6" as="geometry" />
        </mxCell>
        <mxCell id="KeGFRRylSvWP-kbDqHwY-42" value="" style="group" vertex="1" connectable="0" parent="KeGFRRylSvWP-kbDqHwY-1">
          <mxGeometry x="270" y="490" width="100" height="40" as="geometry" />
        </mxCell>
        <mxCell id="KeGFRRylSvWP-kbDqHwY-43" style="edgeStyle=orthogonalEdgeStyle;rounded=0;orthogonalLoop=1;jettySize=auto;html=1;" edge="1" parent="KeGFRRylSvWP-kbDqHwY-42">
          <mxGeometry relative="1" as="geometry">
            <mxPoint y="40" as="sourcePoint" />
            <mxPoint x="100" y="40" as="targetPoint" />
          </mxGeometry>
        </mxCell>
        <mxCell id="KeGFRRylSvWP-kbDqHwY-44" value="Client Request/Response" style="text;html=1;align=center;verticalAlign=middle;whiteSpace=wrap;rounded=0;" vertex="1" parent="KeGFRRylSvWP-kbDqHwY-42">
          <mxGeometry x="20" width="60" height="30" as="geometry" />
        </mxCell>
        <mxCell id="KeGFRRylSvWP-kbDqHwY-45" value="" style="group" vertex="1" connectable="0" parent="KeGFRRylSvWP-kbDqHwY-1">
          <mxGeometry x="270" y="550" width="100" height="40" as="geometry" />
        </mxCell>
        <mxCell id="KeGFRRylSvWP-kbDqHwY-46" style="edgeStyle=orthogonalEdgeStyle;rounded=0;orthogonalLoop=1;jettySize=auto;html=1;exitX=1;exitY=0.25;exitDx=0;exitDy=0;exitPerimeter=0;strokeColor=#FF0000;" edge="1" parent="KeGFRRylSvWP-kbDqHwY-45">
          <mxGeometry relative="1" as="geometry">
            <mxPoint y="40" as="sourcePoint" />
            <mxPoint x="100" y="40" as="targetPoint" />
          </mxGeometry>
        </mxCell>
        <mxCell id="KeGFRRylSvWP-kbDqHwY-47" value="Middleware&lt;br&gt;Request/Response" style="text;html=1;align=center;verticalAlign=middle;whiteSpace=wrap;rounded=0;" vertex="1" parent="KeGFRRylSvWP-kbDqHwY-45">
          <mxGeometry x="20" width="60" height="30" as="geometry" />
        </mxCell>
        <mxCell id="KeGFRRylSvWP-kbDqHwY-48" value="" style="group" vertex="1" connectable="0" parent="KeGFRRylSvWP-kbDqHwY-1">
          <mxGeometry x="270" y="610" width="102" height="30" as="geometry" />
        </mxCell>
        <mxCell id="KeGFRRylSvWP-kbDqHwY-49" style="edgeStyle=orthogonalEdgeStyle;rounded=0;orthogonalLoop=1;jettySize=auto;html=1;exitX=0;exitY=0.75;exitDx=0;exitDy=0;exitPerimeter=0;entryX=1;entryY=0.75;entryDx=0;entryDy=0;entryPerimeter=0;dashed=1;" edge="1" parent="KeGFRRylSvWP-kbDqHwY-48">
          <mxGeometry relative="1" as="geometry">
            <mxPoint x="102" y="30" as="sourcePoint" />
            <mxPoint y="30" as="targetPoint" />
          </mxGeometry>
        </mxCell>
        <mxCell id="KeGFRRylSvWP-kbDqHwY-50" value="S3 Response" style="text;html=1;align=center;verticalAlign=middle;whiteSpace=wrap;rounded=0;" vertex="1" parent="KeGFRRylSvWP-kbDqHwY-48">
          <mxGeometry x="18" width="60" height="30" as="geometry" />
        </mxCell>
        <mxCell id="KeGFRRylSvWP-kbDqHwY-51" value="1" style="ellipse;whiteSpace=wrap;html=1;aspect=fixed;" vertex="1" parent="KeGFRRylSvWP-kbDqHwY-1">
          <mxGeometry x="178" y="289.9999999999999" width="20" height="20" as="geometry" />
        </mxCell>
        <mxCell id="KeGFRRylSvWP-kbDqHwY-52" value="User sends file with PUT&amp;nbsp;&lt;br&gt;Request to an public facing app" style="text;html=1;align=center;verticalAlign=middle;resizable=0;points=[];autosize=1;strokeColor=none;fillColor=none;" vertex="1" parent="KeGFRRylSvWP-kbDqHwY-1">
          <mxGeometry x="190.4" y="280" width="190" height="40" as="geometry" />
        </mxCell>
      </root>
    </mxGraphModel>
  </diagram>
  <diagram id="xLXFq30T6LW8MMc8Y7kx" name="Azure">
    <mxGraphModel dx="1099" dy="843" grid="1" gridSize="10" guides="1" tooltips="1" connect="1" arrows="1" fold="1" page="1" pageScale="1" pageWidth="1600" pageHeight="900" math="0" shadow="0">
      <root>
        <mxCell id="0" />
        <mxCell id="1" parent="0" />
      </root>
    </mxGraphModel>
  </diagram>
  <diagram id="i5Vffi4ZNaYBEZ1iPCoO" name="GCP">
    <mxGraphModel dx="1099" dy="843" grid="1" gridSize="10" guides="1" tooltips="1" connect="1" arrows="1" fold="1" page="1" pageScale="1" pageWidth="1600" pageHeight="900" math="0" shadow="0">
      <root>
        <mxCell id="0" />
        <mxCell id="1" parent="0" />
      </root>
    </mxGraphModel>
  </diagram>
  <diagram id="SB8VeVuk9wdqNDvrGTA6" name="Traefik">
    <mxGraphModel dx="1673" dy="1405" grid="1" gridSize="10" guides="1" tooltips="1" connect="1" arrows="1" fold="1" page="1" pageScale="1" pageWidth="1600" pageHeight="900" math="0" shadow="0">
      <root>
        <mxCell id="0" />
        <mxCell id="1" parent="0" />
        <mxCell id="aXNV5PWUIg0wZnKMUR2M-1" value="" style="shape=image;verticalLabelPosition=bottom;labelBackgroundColor=default;verticalAlign=top;aspect=fixed;imageAspect=0;image=https://doc.traefik.io/traefik/assets/img/traefik-architecture.png;" vertex="1" parent="1">
          <mxGeometry x="400" width="1200" height="675" as="geometry" />
        </mxCell>
        <mxCell id="aXNV5PWUIg0wZnKMUR2M-3" value="" style="shape=image;verticalLabelPosition=bottom;labelBackgroundColor=default;verticalAlign=top;aspect=fixed;imageAspect=0;image=data:image/png,iVBORw0KGgoAAAANSUhEUgAAAq0AAAD3CAIAAAC4tPpEAAAACXBIWXMAAA7EAAAOxAGVKw4bAAAgAElEQVR4nOxdd4AURdZ/Vd2TNkd2WcISJCMHKklRERD1iN4ZABFQRD0OVFRO/QyoHBJUQAEVEThFBUUkLQIqgmQkS5AkGcmwCzu7E7rrfX+8mdpmZjawoKBbvzuXnp7q15Wm3quXilXOrAMA588dAwUFBQUFBYUyBn6lK6CgoKCgoKBwxaDTP2fOnLnSNVFQUFBQUFD442AYhq7rSh+goKCgoKBQFqHrurILKCgoKCgolGkoOUBBQUFBQaHsQskBCgoKCgoKZRdKDlBQUFBQUCi7UHKAgoKCgoJC2YWSAxQUFBQUFMoulBygoKCgoKBQdqHkAAUFBQUFhbIL/RKfR0TGGCIWW5KKMcYuhVoRRKzPRiQScpOIFFulqxlFd1dJOvzqRHi7QkY2/G+xNC9jb0R89Z+3txUUFMo4LkkOsC6IJSxcBOstIbXCvrU+G5FIyE3JV4qt+VWLorur2A6/ahHerpC2hP+1Pl7E6F96VxTx6j9XJysoKCgQLkkOsC6IQgjOuZW/hmyVOOdUuFhGLh8MX3OL1QcIIQCAcy6EkJyDCtBNWV7W9s+7fMsmh/Q2fVVsh1+1kCNOAABN0+TImqapaVrI3AhhzKZpUvPlBJCPXGLd5FtowstXy28vRwcoKCgo/HG4VH0A/TUMg9gqAAghSCygNVHTNCpD63jRjJz+mqYpKSAiJUAOUQsXVh8q4Pf7ZX2IIxqG4ff7qT5y+f6zywGy/qZpSiGJjo6gC5vNZtWoX+nKXgSsqn5E9Pl8NI7Wb+VfmiqmaRL7N01T13W6luUNw7gsooDs4RAJzCp6KigoKPyJcKlygNx0yvXa6XRay/h8PsYY7efC908h1Kz3HQ6HvDZNsySaf0lH13XDMOgQBVqvbTZbxBdd3oU7oo9CYV4LpVBTh9C33rdqAux2u/W+tXB4DS97D4TfvCivjvBiJAgS6HQsmkuSDdMjuq5TSV3XrUIeiZVyJpS6SuHTxufzcc41TYvor1D0zYvtBAUFBYXfCZfBLmDlQE6nMzc3d+fOnWfPntU0rWLFijVq1AAAj8dDzElqcSNSo1Wbdld79+7dtWsX57xevXrly5enp6RuvwjvMNr8EeOX6/7WrVsPHTrkcrnq1auXkpIihKDdYWGsq3RdEZFtFCa7lNzHLfwt1t0wIsrGEqtbtmxZXl5eXFxco0aNSJyK6M5WigpElD8K+7YkLS2sPtQQGqadO3cePHgQERs0aJCWlkZ78RARxzCMbdu2HT58OCoqqn79+klJST6fjwQCmnh+v59UU8W2vYgqWV9KskiIyBXx2WL7vISDokQEBQWF3wWVM+tUzqyDpYIIwufz0cXLL7/cvHnz8uXLR0dHx8bG1qhRo3379osWLSJVgbAgnBrt2wzD8Hq9iPjaa6/ZbDa73T5lyhTr49JqEF4ZSQQRt23btmzZMiFEfn4+Ivbt2xcAEhISZs6cKfXMIUQi1qrYHrBeyL8hLQ25sH4sCfGQO+GPL1u2bMeOHfTx3LlzqampAFCjRo0DBw5Qn8huiViNYjuh5PUUkRDSP4W1yFofuvZ4PIg4YMAAu91ut9s///xzRPR4PHIO0HwwTVMI0atXLwCIjY3NyspCRJpFiLhmzZoVK1YYhlHCzi+sk0OqSjcXLFiwb98+qkbE4S6CYLFvvKhRUFBQUCgdLkP+ANq0nTlzpl27doMHD161atXRo0fdbvf58+d3796dlZXVoUOHDz/8kEy29FZ6ikCWe+tXtFP3+/1+v58YNmkC5B5RQvIA0iKQmXzfvn2PPvpoixYtNm7cKNXCMTExaWlp8fHxtCm0+jGEiBcRWQW9Rd4hA3yIfdq6QSerhKyhYRhEn64lKaozXcuGhAsQsqNo4ysfAYANGzZ07NjxrrvuOnr0qGxsYmJiuXLlXC6Xtc70aqtEJStPNOVLrSyTHpTdFbJPtY6mtYuIJtGh+zSO1F75Rivzo49UgN4oX0HTwOfzWbvdOjRULCoqKi0tLTExUe6b9+zZ07t379tvv33Tpk2aptHjclCsIxs+qeRwyAGVzSE6CxcubNOmTZcuXc6cOSO9E2R564tCJhhd0JyXX4WPuBTg5MdSKG8UFBQUisWl2gVohdI07bPPPps/fz5jLD4+/pZbbrHZbJzzPXv2/PLLL3l5eUOGDGndunW1atXIvkvrOK2nxODJCZz8++iOdHQnPTCpdv1+v81mk0ToQa/Xa7PZaKHXdf3ZZ5/9+uuviaP4/X673Y6Iw4YNGz58uJQ/yL5Abw/hOpqmkSBCxbxer/QuJO5F9mDSM1vt7lazBefc7/dLx3JyUJBebNZXE49xOp1S1UwErb5+0hPT4/HQSyUr7dSp0+HDhyW/ZIzFxcXt3LnTWitqtdfrdTqd9EYSBex2O8lw1JPUz5I41YR6VV4XZpEJYd7kEWL15Oec5+fnU98SQcksdV2nvrKKetKKRM9KDwB6hPrB6hMghBg3bty4ceOkqykADBo06PPPP6ea+/1+aQySjgJWnxWbzUYFqAz1kpQaCwRnzjVNO3jwYPfu3U+dOhUfHy+EIBdUmhVEmRxiZCiNFLnITcHj8VCXSsHLbrdT66QHIs0iaj49qIQABQWF3wOXIX8Arexr165ljEVHR0+YMOGee+6hAsePH+/QocPatWsPHjy4cOHCvn370sJnXcFDIFlpyO7TMAyHwyHd/Yifcc5tNhvdNE2TpIGYmBhin8nJyTabjXiefJfVw4DWa7nWS5BegTiE1e0xpKTkDUTKGlEWkaxkPJJUSA/Inbeu69LwTHKD3W5njMnmk+gAADExMYwxXddTU1Pp2xB3Ntn28G8lKV3XiedZO0q2UTpshjsZSCFDjkII/H4/+WxaC8hXSO8Nq09oSG9YZ4LX6+WcR0VFWfuTJDPrg9QhAJCcnEx3UlJS6O0kaEYcHdruW/lu+Pyk13HOU1NTY2JiTp8+rWka9TyNrCRL4Qk0J62dSYKmy+UKby95HUbsCqtHQsRvFRQUFEqNS80nGOLf5/f7c3NzZfR2WlraK6+88sUXX+Tn55cvX16yEE3T1q9fP23atA0bNuTl5TmdzkaNGnXp0qVJkyYh/lyS/ei63rt37x07diQnJ48YMaJWrVrkSdCnT5+9e/fGx8ePGTOmQoUKrVq12rt3L9Xn1Vdf/eCDD956662mTZsOHz58zpw5Dofj5Zdfvu2220ivIIT4+uuvZ8+evWfPHiFE+fLlmzRp0qNHj4yMDKmZeOCBB/bu3dusWbOBAwdOnTo1KyvL7/fHx8d37dq1a9eutDRbOSvdWbhw4WuvvcY5f/fddxcsWPDtt98yxjp27PjUU09xzn0+36effjpv3rzffvtNCJGRkdGqVavu3bvHxcWRbmPr1q19+vTRNK1mzZrvv/8+rf4bN27s168fItapU+ejjz768ccfX3jhhQMHDtBL77///goVKowYMaJ+/frt2rXLzc1NTk5+//33MzIyfv311+eee+63335r165dv379Xn755Q0bNjDGKlas2Lt37zZt2hDTInY+derUL774gjhchw4dunfvPnTo0LVr12ZkZEyfPt3qoi/tIJqm7dmz56OPPvr5559Pnz6t63pCQkLTpk379u2bkpJCfLpjx46nT59u2rRpp06dRo0alZ2dnZCQMGrUqKpVqwLA3LlzZ8yY8euvv5qmGRMT07Rp0549e15zzTU+n886E2JiYpYsWfLWW29lZ2c7HI6WLVs+/vjjqampJLe9/vrrCxcutNlsQ4YMqVmzZu/evdeuXUtM/cUXXxw5cmTfvn27devGGDt69OjkyZOXLFly/vz56Ojoxo0b9+jRo06dOqT7Ianl4MGDkyZN+umnn7KzszVNq1q1aseOHTt27Mg5nz59+ogRI86cOYOI58+f79SpU2Zm5pQpU7Zs2fLiiy/6/f6bbrpp0KBBtMWfOXPmyJEjTdNs1arVSy+95HA4Fi9e/NJLLzHG7rvvvvT09Pfeew8A/vnPf/bt25d6csKECT/99JPX601ISLj55pt79OhRoUIF+ZtSfoIKCgqXGZfiJ0gKWFLqvvHGGwBAm9Q2bdrMnTt3165dJ0+epGL5+fmkxybPr7Fjx8bFxYXUxG63v/fee9L6/vLLL9P9SZMmEZE6deqQr9/GjRtJDe7xeK655hoAiI6O3rJly/nz58MbOH/+fETs3r07KQOImfl8vvPnz99///3h+8L69ev//PPPVGdErFixIgDUrl27cuXKISXHjRsni1mN64j46aefUpnrrrtOlh80aBAiHj9+vEmTJuGreYMGDcgrHhFXr15NNxs2bOj3+4nm4sWL6WajRo0QccaMGVJ1TK2Ij49fvny5FKSSk5P37NmDiNu3byfPwWuuuaZu3brWl8bHxy9atIg07YZhvP766+G1atasGQCUK1dOmnKkmZyG/uTJkw0aNAjv+fr1658/f540NzTcqamp5cqVkwUOHTrk8/meeOKJ8FFITk7esGED9Ub//v1JZ3DDDTeEbJfvu+8+j8fj8/lM07z33nvp5ty5c48dO0ZN1nVdEn/zzTepN6699trw133zzTfkhIiIGzduJAHFCpvN9sILLyDiO++8I3UYsquzs7O/+eYbKnnXXXfl5+dT57z//vt0s1OnTuS6OH36dLpjfUWfPn0QccWKFbGxsSHvrVy58u7du0P8PRUUFBQuFy5DvAC5UO3du7dx48YyTx8AuFyuFi1a9O/ff8aMGdKsi4hZWVnR0dEAUL58+bfffps2THJNXLhwITHUl156ie5MnjyZHm/SpAnnvEqVKlu2bKH3er3e6667jnNeoUKFzZs3m6Y5Y8aMm2++mRbovn37zpgx48CBA0KIf/3rX5zz+Pj4OXPmkAwxYMAAot+0adOPP/541qxZjz/+OGnj69Spc/ToUbL11qpVi3htUlLSm2++OWvWrHvvvZc0xjfddFN2djaZh63u60KIL7/8Uup4U1JSHnrooYceeig3N9fj8XTr1k1yi88///zLL7/s1asXlbzzzjtzcnKEED/99BNpI2699VbpxLds2TK62apVKyHE8ePHv/jii7S0NFJHDxkyJCsr6+TJk3l5eampqZzz6tWrkyv7zp07q1WrRuNSt27dyZMnT5s2rW3btnSnbdu2xF3mz59PFYuNjSX1yf/93//RHc55tWrVpFcdCQE+n8/v93u9XmLAnPMnnnhi3rx5Y8aMIeEMAD755BPqmQoVKsiJcccddzzyyCNffvklIs6dO5fuX3/99f/73/++/vrrhx9+mIrVrl07JycHEfv16yfn1WOPPTZ37tzRo0dXqFCBNATLly+nAX3ooYc45wkJCfPmzfN4PPPnz2/ZsiWR+ve//z1jxozdu3cLIW677Ta6+fTTT8+ePXvEiBGkpW/YsOHRo0cNwzh16hRJb06n85lnnpk7d+7YsWOrVKki5+e+ffvGjh1LckZcXNxbb731zTffmKaZlZUVHx/POSfphAwNkyZNcjgcnPPu3buTiWr27Nm6rpPEnJaW9uCDD/bq1WvlypU5OTnUb4mJiW+88cbs2bMHDBhAdWvZsqXX65XOlQoKCgqXEZckB0gXaGKEe/fufeCBB8g8H4JXXnmFip09e5YWYrvdLjf6tLsl4aBDhw50J1wfcMMNN9D2iPbrxIQaNmxIIgUpCRDxwQcfJDngww8/lDu8xx9/nNgGxQ0eOnQoOjqaMZaamrp//35ZDeIlAPDGG2/QHcp/IMURCsyrVKkSaSY2b94sQ9Ss+oBp06bRU3a7/dtvv5X0s7KyiOU3a9bs3Llz8v4///lPUoCTjmHFihX0eIsWLWQwxdKlS+nmbbfdJh+k6pGdhe7k5OSkpKQAQJUqVfbu3YuIO3bsIDbmcrkWLFhAxRYtWkQd3rx589zcXL/f/49//IPoy7Yj4osvvkg3MzMz5YhLZQB58k+fPr1fv359+vSR/vwDBw6kWv3nP/+hbpFWodatW+fl5cmebN68OalzVq9eTTezs7PvvPPO/v37T5gwgbqI5AAAuPvuu2WYQO/evenmuHHjyAuyZ8+eNMRz586lMjToAEABh4i4du1aMth36dJFtnHIkCG0rZ86dSoizpkzh+ZA+/btZZlp06bdf//9b7755tKlS61zIDExkZQu9CDt5v/5z39KfcDEiRPpjV27dqV5Mnv2bBJrdF3/4IMP5CtGjx5N1XjllVfkza5duwJAUlLSihUraM5HjGdRUFBQKDUuWx4hj8dTtWrVTz75ZM+ePZs2bVq4cOE333yTk5OTn5/vdDpff/31cuXK/fvf/z58+PC2bdtoAe3RowdZZBGxU6dOTZo0Wbx48aZNm7Zt21avXj1r6jers1iIt5rM6krW0/Pnz5NRGQDIGOHz+RwOh9XxGwC+/fZbt9sNAE899VRmZqbX6xVCOByOLl26TJ48mXNObElq7zVNa9SokWEYlJ+nfPnyhw4doi2aTKpora18sF69erfffjuFvEdFRS1ZssTr9Wqa1rlz59jY2Pz8fK/XGxcX16xZM9KabNiwIdwh0UpZtsIajMc5z83NlQ7/srysDDG2qlWr1q5dm/zRypUrl5qa6na7SZ3DGNuxYweR6ty5M/F4h8Nx//33k1hgzdEb4hd5zz333HPPPXl5efn5+Tk5Od99992XX34pk/xbOwQRBw8e7HK5yCnk1KlT69atA4D09PQ6derQwLlcri+//DI6OpocKawNb926NQBkZ2dHR0dLBVJeXp41wY58Ee2erTOBcz5v3jwKv2zXrt2ZM2e8Xq+u67fddlt0dLTH46EeoEwMuq736NHDNE3KR3T33Xd37tyZZDjDMM6fPy+jHLOzs2XSYuukpZpIx1h5hzwqTNOsXbt2p06d/H5/fn5+dHT0qlWrTNN0Op21a9c+ffp0Xl5eTEzMTTfdNHfu3Nzc3FWrVjVv3jzEkVP5CigoKFw6LoOfoPS6P3TokNPprFmzZs2aNe+77z4hxPfffz9hwoSsrCzG2KRJk3r27ElZBCTnJp02MQyyHJ84cWLXrl316tWTi7h07w/J6iplGVqaiZlZtRF6EOTAaF03T58+TcyjZs2a1ti5lJQUl8uVn59/6tQp6/kImZmZMTEx5Okt12IiXvRa3LBhQ6v/vxQXEhMTyS+PKFSrVo3em52dbbWtyEA+a7QeucXJAEIZWkkJdyPG9RHBChUqVK5cmQIEpGxE5a1Rf5qmUZQahUo6HA6PxyO/lTKBHMfs7OyZM2euXLnyq6++ys7OdrlcTqeTHPSsBzvRu2JiYqjhjDESicglkyL3iEnHxsaSsidEqIqPj6fqkY+nPL/KWkamoKYwFllnatGhQ4foEVIahWDNmjVCiJycHPpINheKgCWa+fn5Pp8vLi7OeqwATQPi7tb5SbNaBpdaB4VCRpOSktLT0yn0g3NO3i2GYUjLkRUnTpyQYbryLcptUEFB4dJxqXIArarbt29/++23161bV7t27S+++IKYrhCibdu2zZo1q1+//qFDhzZu3EhpX2l1tnI4qVEgva4M95KvCNEHSCs1cSwpVVj5gYxEt/ISuXzLpMJut9sa0082b6qG1SueBB0iYj3IzprHPmJ4d1RUlNyOW1tEsf5kK9E07fTp09QtFBQn2Se5YVLrrHF3sl1EWQajW/lEeB+G7JitJzFa5S3ZybquUyKEcIKyhnl5eU8//fTkyZMBoHPnzrfcckvDhg2nTZv24YcfykGRFZDCH3FrYufWhEtyJthsNpfLRX0i60mtlqkjCjs/KfxUBRnNL5MN9OrVq3r16jLcg6pE5nkpsZ0+fZr6geQhRHS5XCEhf9SNRFyKqpT1iBI/hCgq5MyUk1DWlt7rcDh69uxZpUoVqpvsrhYtWkgBNORAzvDRUVBQUCg5LoMcAAC5ubmTJk0CgG3btk2cOFHabsldnxKulS9fPjY21ul0Vq5ceevWrefOnVuzZk3Tpk1pLdu4ceOqVavIH61JkyZW3XiISt/tdlMaFofDsXfv3tOnT4ckzJH8Uu5KrXyLqJEvIWPsvffe6969u4xu/+6774j31KxZM0QPb7VKyJU9RLywLtB0IbetFEpevXp1+nbVqlX//ve/7XY7ZSjasmULccFKlSrJdITEZaVKY+/evRE7n+ByuaRxpIgTmKxtsUZmRkdHp6am7ty5Uwixe/fumjVrEsPbs2ePTNhHha1pA+x2+6pVq/73v/9pmtayZcuZM2dSGXKPCDlUKfxOdHR0YmLi8ePHT548eerUqaSkJPrq0UcfJZ+GoUOHZmZmhuuBZOdb+Wi4+t3KYkkiadWq1UcffWSaZtOmTaX3QAjI4mCa5rx58+6++27K3LBs2bJnn322SpUq11577WuvvSZzW9E8lAoSupmdnc0YI0/AQ4cOSUEq5IhLWWGfz2e32ytVqkQ6kvbt23fu3Dm8YjLrkdIEKCgoXEZcUloSuRY3atSInMZ1XX/88ccfeeSRrKysefPm9evX7+GHHyaHKQpwT0pKateuHYXbvfTSS7t27Tpy5MiOHTuGDBly6tQpIcQDDzxAC2h4ypSoqCjSQs+bN+/IkSNHjhx54403ZAB9oD3BODryqD948GB+fr7MXSOL1atX74YbbkDEdevWvfjii4cOHTp69Oj8+fPHjx9PAkTPnj0jbjfDz/gJOVHGWsz6FEkkbdq0qVKlCiJ+9dVXo0ePPnz48LFjx7766quZM2cKIWrUqNG7d2/yXiSV8s6dO3/44Yfjx49v2bLlrbfeImrylGHKQkgdtX///mPHjpHcEJKIKfxUmxA+RJaRbt26kXbnxRdf3L59+/Hjx5cvX/6vf/2LniqMCIXRA8CRI0fWr19PCaPmzZsXfjpwyGgahpGWlvbcc8+RuDNs2LD9+/f/9ttvM2bMmDx58qpVq+bNmxdiTLEiRJoJ54uUWpE658CBA4cOHaLU1ykpKZzzp556atasWQcOHNizZ0+3bt0aNWo0YMCArVu3UvxIRkYGY+ybb76ZNWvW0aNHd+3aNWbMmE2bNs2aNYs6n6QuSiB45MiRo0ePer3eevXqkaC5bdu2b7/99tixYxs3biS3D+vcs2oy6Jo0B4899lhcXBwivvLKK0uXLj1w4MD27dtbtGjRrFmzIUOGHD9+3CrkqRzDCgoKlw2XHjdIDu1r1qyhUK6IaNSoEW2MTNM8ceLEXXfdRfdjY2Pr1KmTkJBAHx988EFy2RNCDBo0iDa4U6ZMIXW3DMoHgGrVqpH5ICkpiXOekZGxefNmKkbO6rqup6Wlpaamfv/990KIxx9/nHOemJg4a9Ysor98+fL09HSiVrFixdq1a9MK63Q6P/30U4oCEELUrVuXc167dm2KwaObLVq0oBC1n3/+mXrAmp1eCDF16lSqfL9+/eRNt9uNiDNnzpQ5CjMzM6tVq0bXLpeLIgsMw/B4PHRqDmMsKipK1i0hIYFzTpF+pKlu27YtKdhTU1Pr16+/evVqwzCI1V1zzTVU5127dtWsWZNzfuedd8qkwrt27apRowbnvFmzZqdOnTJN8+zZs9ZxqV27NnUjhRVUr17dGi9A6ZwNw9izZw95zpN3hWwO7ZKffvppmicVK1ak0/m2b99OPUbnBZw8eZLyE1AUvozOAIAxY8bQswMGDKDO/OSTT4QQeXl5QoghQ4bQzVGjRtG4UKxHXFzcnDlzaCaMHDmSmpCampqWlvbuu+8iIuUeJoZds2bNtLQ0+piamrp9+3aSWUePHk03bTZbzZo1Kf6Cojxk8B6pdnRdT09Pv+6663777TdElEGJ8fHx1IFxcXE0ag888ICMG6TOadmypewKcvkkqYgmQ61ataSBrEGDBseOHSMnmJCjLhQUFBQuEZchblAGzm3ZsmXAgAEhmWqaNGkycODAXbt2yaODhBAnTpwYOnQo6f8JjRs3Hj58uFwWEfGZZ56hryi5EKXTGTx4cEZGBt2vXr36lClTiBG6XK6ffvqJarJ79+6OHTtKyl999ZXMI8QYmzZtmqzw+vXrH3vsMRkaHhsb2759ezqtzjAMShBETC4tLY3CwyjmrVatWvTIunXrQo5SpD6ZMmUKFejRo4esvFzuf/jhh169ekkpJDY2tkuXLt9//z1FORKD/O2333r06CGzC7dv3/6zzz4jR7nGjRuTH7sQ4ueff6a0DSQSLV++nCzT1pC2zZs3U7B78+bN5RBs376dWGDdunVPnjxJ1T506FCvXr3kS7t16zZ58mSS0lq0aGGNFCVQc1auXNmuXTvZ4b179542bVpmZibJfyT9yLRRFN7p9XplE3bv3j1gwADqZ0Lr1q3fe+89OQQPPfQQ3R8/fjwinj17FhGff/55ujls2DAaF5lHiLbgfr9///79UrKReZ9M05wwYULLli2l/iAjI+PRRx/dtm0bDSU1atKkSTfeeKN8NjMz88knnzx8+DBlrRBCLFy4kDg9mRJ2795tmua+ffvuvfdeqcrq0KHDrFmzqJ87dOhAXTF16lT505BvJEcQwzCGDx8uB5SSKAwYMIB+PlICKOL8RgUFBYWLBaucWQcADuzfDhcPqxWcHMsR8dSpUzk5OWRU1jQtMTGRtjXkpi5PTuOcnz17lqz7QoiUlJSkpCSiQ1mBz507R1l6UlNT4+LiyKlK07QjR47k5uZqmpaQkJCSknL48GGKHKtQoYLD4SDKubm5R48eJY1rUlKS0+k8e/ZsTk4OYywtLY2CvGXu92PHjpGrtsPhSElJIU9GeezNgQMHKAlxhQoVqA6c84MHD1JIW4UKFciOblVKm6bpdruPHz9OPD4lJUU+KB0FTNM8fvw4xS46nc60tDS73U5tp5LkoHf48GE6KiklJSUmJobyHzscDkrLQ+fTZGdnkzO50+mkXPeUNkDX9YyMDDphgTLkuFyu8uXLS3+FI0eOkLN6enq6rusej4e8FM+ePXv8+HHTNGvWrPlyT70AACAASURBVHnq1KlKlSqZptmmTZvvvvtO+icGZk/w/AK32y07PD093el0Hjp0yO1222y2ypUrUzeS6FC5cmXpgS8PU0BEOqOShq9cuXIxMTHSL+HkyZM0QDR2FKRHk4eUEHFxcX6/Pycn59y5c3JQyNiRn59P5zDZ7fbExEQ6joGc80+ePEm6+qioKOoWOg1BujTm5OScPn1aGgLIWCA9AzRNO3ny5JkzZzjn0dHRdJgFHUx1+PBh8lNJS0tzuVyULzk6OjotLY0xlpOTc+rUKfLJoJAE6XlKc+PMmTNnz56lusXFxZEYIXueoFwEFBQULhcuVQ6wHt1GidkjnuBCzudy/SKWEJIj1ufzyfPlQvwDaBGU8XLyvsfjsZ4DJDdJ1nA+8rmzRl3LeDYZwBb+lTzqUFZSeoFZIxiJoVqrJCsg79CDVhdxj8dDyeetXSQFBXmiTMjJBeRNRtcy1o5Yb8jbZX1kaJ+kY43lkxWgjAIffvjhgQMHatWqVbduXamrHzduXP/+/cnaQgob6eUuTdThp+nI4Y740XrKn+S+IdOGxCx6V8jYSenB2nshsQnWbPzWiSRzS8ielP0pT5KUQxBShrbj1o8hc4/ohEg5Pp9PFqOWhoiMISdUhb+X5gb5k6qjhhQUFC47LkMeIbmuEU+VukprEhurb5pcskNK0i6Z+AFZoK2xWFRMxtrJcEFrFKI8kcgaPkdrqCwmj46ld5ECWdaHOIF0naM9ujzekFzHJduw8jbr4i5rJaUZyZCoVk6nU4YOyuBJqfCwnnpHLI0C3uhUQGodFaPg+5D6kyKBgs0k87B6+8v8NjL9nxbEiBEjqFjPnj0rVap04MABaeC45557ZCeHOOpTZayumlbuRXdI2U71sR7TTGye9tnWAZIdQvIf1Vb2P6nTiaDk9NJKRXKJNaGQnDyUvoIGKGTIrEcFyhlineqypXK2yzbSq0makfkWpVQhz1mWYpA8gVrGAcqpbrPZZK6LEDlGKQAUFBR+D1wGu4DV/zliJL1kG5IHhBCx7rBDmISViDUZQIiveFEttNSnsGspoEQkFdLAiDetW7qQ9Hbhz4ZTCPHeD9EAh8QrFh2PV8RAhJSxOvMTI3/99deHDx8uhRhCSkrKyJEj6aS+cJ/8wloXfgJyYZWxRl2Gq74jfgwfO6sgWHRjixiIImZU0ekKrDM8ZFZEDLkMEadCeqnoMY3YQAUFBYVS45LkAIJ15Yq4WoUHTEckUlCnSJFg1o8lIVj0gxF3V4WtsyENLKLVRbe9JN0SsVhEaSD82xDKRbONED5K21xd17dv375p06b9+/fTjrZ69eotW7ZMT0+XtnOrXrqI1hXWhyX/qiQToOSvKLqHrZSLYPZFiAghxK1yWGFzprAml3pMFRQUFEqBS5UDwvedRW98i92xFVbmsgRMl45ICetfhC6k5N1SbA2L3s6WolEhtu2IRxuQEp78QCPWvBTVLvari32kWP1HCfUBF1WZoid/SfRVJWyCEgIUFBR+J1xqPsGQnKnWmxHvFL2QRaRWBNlSoHRESlL/wipfxLMRvyq2hkXQuSiEbD3lITpkkpduetJj0WrcCa95Kapd7FcX+0hJZlexHXixlSn55C8JStFLCgoKCpeCy3POkMKfEVKBYXVmtCr/ra6XV7qyCgoKCgq/C9T6XnYR4tZQtD2b7qstqYKCgsJfDEoOKNMIcWsICQgMN1crE7WCgoLCXwxKDijrCHFrKNrarYQABQUFhb8YVG4yBQUFBQWFsgslBygoKCgoKJRdKDlAQUFBQUGh7ELJAQoKCgoKCmUXSg5QUFBQUFAou1BygIKCgoKCQtmFkgMUFBQUFBTKLpQcoKCgoKCgUHah5AAFBQUFBYWyCyUHKCgoKCgolF0oOUBBQUFBQaHsQskBCgoKCgoKZRdKDlBQUFBQUCi7UHKAgoKCgoJC2YWSAxQUFBQUFMoulBygoKCgoKBQdqHkAAUFBQUFhbILJQcoKCgoKCiUXSg5QEFBQUFBoexCyQEKCgoKCgplF0oOUFBQUFBQKLtQcoCCgoKCgkLZhZIDFBQUFBQUyi6UHKCgoKCgoFB2oeQABQUFBQWFsgslBygoKCgoKJRdKDlAQUFBQUGh7EK/0hVQUFBQUFD4XYCIjDFElHfoI2MsYpmQwkWgFI9Yn6X3FvG49b6sc3hzwh+xNq2EUHKAgoKCgsJfE8QUJYMUQvh8vvBinHNd1yPyUSu3ll8hot/vF0LY7XYrX4/Ig60sPISmz+dDRJvNxjkPeSS8vGmanHP5bPhbIt4vCZQcoKCgoKDwF0S4GoBz7nA4iigfstumRwBACCF5MFGz2Wwhb7E+a+X94ft44tZSjLASkY+E1B8ANE2L2DRrPZU+QEFBQUFBIQBSAHDOTdMUQui6vnPnzvfff98wDF3XiWXSt3Xr1u3Vq5fNZjMMQ3JuImKaJt0xDEPTNMMwOOder3fixIk7d+584YUXKlSoYBgGvYg4saZpQghSMwghhBCapvn9fl0PMFy53f/Pf/5z/vz5f/3rX9dee61hGHST3kJ0EJHEBb/f/9NPP11//fV2u900TXqFVdvh9/ttNlvp5ABWObMOABzYv/1yD4GCgoKCgsIVA/FyYrqGYTgcjvnz5//9738PL9m0adPFixe7XC7appOgwDk3DMM0TeLfQghEpB38iRMn2rdvv3bt2nXr1l133XXEekmG0DTNNE3S4ZMKgR4kgqZpEsMm2SIpKSk7O3v69On33HOP3+8nCYCUDWS/YIzpur5+/foePXrUqFFj9uzZfr+fKkOKDVlbqRJQ+oArCgQg9Q8gApD8KIQAYPTdla6fgoKCwlUHm00PLJq0VjIAWkUZY4hQKoO3FZITI6LT6YyOjgaAhg0bkpSg67phGDfeeCNjzDTNc+fOMcYSEhL8fv/Zs2eTk5N1XTdNEwDIEHDmzJnY2Nhy5cqlpqbabDan02maZl5ent/vT05OBoDs7GyXy+VwODweDwkQ9GBeXp5pmk6n0+l0+nw+2tDv27dPCBETE4OIXq/X4/GkpKQAwNmzZ6Ojo+12OxFZvXr1L7/8UrVqVbfbreu63W5njLndbp/PZ7fbqUWkHrhYj0WCkgMuG5AhgwtmrtQCKSgoKCgUAcnuWfA/Zr17CaBNOe2/Oedutzs5OXn58uXhJQ8cOPDoo4/WqFGjVatWH3/8cU5OTt26dV977bXk5GREdLvdQ4cOXbNmjaZp7dq1Y4z5/f78/Hxd18eNGzdnzpz/+7//W7BgwaZNmypWrNi7d++2bdvS1v/YsWNjxozZuHFjbm5u3bp1//GPf8ivHnnkkezs7KFDhzZu3Pg///nP2bNnu3XrlpWVtXXr1vLlyz/wwAN33333vHnz3nnnHV3X165d27Zt2/Hjx1epUuW///3v+vXr3W53QkJC48aNn3zyyYSEhNIJAUoOuJxgyIAhCsYE+oVhs9tGvffxonkLIdZuGgYwG3AH6QyUbkBBQaGsA5FxzcbZZxNGxES7DAQOjINAxi+XPoBU5WS5J4M93XG73VlZWbGxsaQnME2zRo0amZmZ586d++GHHxYvXjx16tQqVars2rXrxx9/PH/+/JQpUwzDeP7558eOHRsTE1OzZs0XX3yRvPbIkL9jx47Vq1c/8sgjnPPy5ct/+eWX8+fP//rrr2+77bZ9+/bdd99969atq1KlSnJy8vjx46dMmfLZZ5917twZEb/77rtz584dO3YMEVeuXPnzzz/PmjUrIyMDAFauXLl48eK2bdsKIbxeL7kpeDweTdOeffbZ8ePH165dOyUlZdWqVfPnz69evXqPHj2kx8DFQskBlw1ICi1AYMIUfhvYFi7+sUKj67vc0zb7VI6pO6KAlzK6U0FBQeEvBCGEzab/dvLME8+9ej43NybahYHNLCLDyyUHWKP1rG7/Xq+3Q4cO1pIjR44cMGCAECI6OjonJ2f48OE9evT44IMPnnnmmc2bN5M5YOLEienp6VOmTLnlllvWrl3bvn17UvoyxqKjoznnlStXzsrKiouLGzFixKuvvjpu3LhWrVrNnz9/3bp1ffv2ffXVV2NjY7/44otevXq98sorf//730ml73a7NU1jjKWmpiJiz549R40atWvXrgcffHDr1q2nT59u3779vn37nnzyyaZNm06fPt3v948fPz45Ofmtt9668cYb8/LyHA6Hw+GQXgKl6CglB1w2IEMGXHATwM9MPwDExthb3tTw9obXGn7TYJod8zkgljLC888OpQW5aqGGpiRQvXQ5IQRym3bo6KnKFdMRGDm3Mbqgfy+fXUB6C0rJwOFwNG7cWNd18uQ3TTMjI4NUBfT3zjvvtNvtrVu3ttlsbrc7Ly9v//79+fn5N9xww0033WS32+vUqdOwYcMlS5bQak7xCLfeemtaWhoA9O7de/DgwXv37j1x4sSyZcs4523btk1NTTVNs1u3boMHD96zZ8+mTZuaNGni9/vJ+YBkFAD4xz/+4XK5atWqlZGRsWXLlt9++61y5cpRUVFUxuFwaJrWvXv3Tz/9tH379s2aNWvSpEnz5s3bt29vDWu8WCg54LKBJizSf4gAIISRn30OTfRnnwIWne3IZ4CIHDgyZCT5MmQBGSJwAfSVdJgJXDAEBICCC2TISH4OPMuQieBFCFl6EQeGSF8DMgaADEEwxgIvgqLpF1XJAvoYIBFGn/wlS0lf1i1AP/BsAf0L2w6WTihZJxfT9hL07QUvulj6JexbZFDIIF5K3zKEEPqykwNPikI64feewCF9W+QELp7+n3ECXzT9CHWDcPqFLQ5/3ARGE+2mnu3J8/n8jNh0YB0tJSeLCMnaZUQ+OQNGR0cvXLiQogNkSfIeIHfC3NxcRMzPzyf/vnPnzsnsQxRBoGkauetbd3VRUVH0uKSDiHl5efLa4/E4HA7atRPXl2+Xfz0eD73aMAwAOH36tOTuJLIwxiZOnNi4cePZs2evWLFi9erV77777qOPPvr++++XWt2s5IDLB/oFIAemI9MBgAngugaaABs3ARnEAAZWtcAPCuQPyjL/gxfBMsELDAQehJe0fsUiPmu5uLAMArCCMoXTt16wcLLsgkpGrv+l0IfQBhY0GcJeHdYJpaMfsW+L7mQrfRHyosLpF/aiwibAxda/sIsw+sROgcmSkebehW3/vSdwAf3iJ3CR9IufACWewIXNq2Lol2wCY6QOLDl9xOCZMUUOYmEN/MMmMKAA1Bnm0/4fgLGC91w2SLuADP+TFvT8/HzizYG6I5LXPT1C2n4K+KJkf9WrV+ecnzx58tSpU1WrVj116tTWrVtJEyClgZ9++okEjk2bNgkhUlNTk5KSbrjhhjlz5uzZs4fMB8uWLTty5EhGRkb9+vWltULWgUiRRCIFF3JIpIyHFGVgt9ufeOKJhx9+ODc3d/78+X379v3kk0/GjBljt9uVXeCKgwEKBpyZGhMaACDTkNkM5F6N+4G5BILcbtADgYWsGLYNRf50L+IifOmxCuIXT7agVmZk+gws4UCXQB+CH0PXF0m/VN0STv8ydPLvRN/SdggupiF9Wzr6F04wvPi6/d4TGMM7IcIEvpS2F06/DE3gyH17+enTBDYR7QJtWKBt+D0g/QTJp48y8zidTrfbXblyZZnqBxGrV6++YsUKh8NB7NY0TZIGKOjf6/VWqlSpY8eOs2bNeuyxxx5++OF33nnnyJEjuq57vV6p0v/++++7det2xx13PPnkkwDQpUsXu91+xx13jBw5cuDAgadPn7722mufe+653Nzcl19+mWIFiT7lC+KcU4QhCSjE9Ul5kJ6eLoTYvXv36NGj27RpM3Xq1Hfeeadfv3533HHHmjVrPB5Pp06dKIlQ6TrqapED0LqcFXbLoqCCAmsdFgSdFgiTVyJkHxE4YwIZ0rYfEJkAEIwhcGRccG+InyCW4CL0JZf74lLoF/vU5a3b5SJb7G/laqZ/KcPxp5tgagL/VScwghDcFNyHgKzY95UW1mMFSBNgGAZp+91ut7Wkz+fTdd3v9587d458CelZt9vtcrmIzY8ZM0bTtBkzZnz33XedO3e+9dZbf/zxR6t1oHnz5oZh9OrVKzU19e233+7Tp4/f72/SpMmsWbOGDRs2bNgwAKhXr96TTz755JNPkltfTk6OEMLv9zPGvF6v3++na8455RsgQ8Att9zStm3bb7/9dsCAAQsWLKhVq1aDBg2GDx8+fPhwALjnnnuGDh1KDfxz2wWY5W+htyRnRwujx4BaKYzt/+FOPYyRlQm4YIyURYKjsAHqAoEBMg1IIaBQ5iEFWoUrBeX4dwWBwBC0gBHj9x8GeU5PgwYNvvvuO+thASQcJCQk6LqekZGxYMECAKhQoQIFE3777bc2m41c/CpWrPjVV18tXbqU3AwPHDiwZcuWqlWrSvV+zZo1J06cuGDBgooVK9avX59MBl6v99Zbb73xxhvXrVvn8Xjq1KmTnp5O0YaGYcyaNcs0zeuuu04IMXr06IMHDzZr1gwRXS7XqFGjjh49ev311xuGkZycPG3atLVr1yYkJDRo0MDpdHbu3Hnr1q35+fkxMTFNmzYFAEpIULrQwatFDijY/FOgSET9Rrg+oBgNwB/7M2cAAkgRwIJeNAwYA6YLFBw11K9I3CAG3KjIWyggvCIiZxZbM5nn1LoYAF7gekZuRBwAUAjQOL9I9VtQE4zIGTMQOAMNAypSckhT/V8iYHBgEMmcjMCAMY4AACYLzmZ2YUciAmPIkCMgBgN2EDkyUWCcZarziwEC0E4HGKLgjAlEAM6Cfo9BR8oSTWQmhCZ0Teh/WL+TyT81NbVNmzYRCwgh4uPjb7/9dvkxISFBfiQPAyHELbfcQt9WrVq1atWqdGCgpml2uz03N1cIceedd1J5kg80TSNlQ/PmzYkURfrR3l1Wxu/333DDDTfccAPJK7quX3fddfQVSQyJiYlt27alOx6PJyYm5sYbb5R1Iy/CP6uf4IW6f4TgsoiMEU/laDHUXWi4EhDwwGXAGBPk14IBlzXOAm4uf3RjGJJjLAcAQI7ITQATUDABDK+AHEACCSLTmMkEQw0MzQC/0AyGhiY0XegmR8ECnsUKASkg4KBmasLGhCaYX+iGCaaGNvDZuAa6TrHNBVOycFIAwA3udaBDM8zTNo2bviSfYTIdmTCYQzADVP+XAMTQEZkAHsUF18ALyNFmN2wI6HYZHIXdYIJf2JECkIMfPLHcZhqmhzG/MF0+ZgNuOjSvMDSmweXIX/sXR1AEM4HrDJxMMB18wOyG3W5wjy7yHKbTQCYY8uInsgBhcjC5WQIrROkh7QLWA35knF5ISeKj9K2maaQwkB+JAp04AMG4A8MwvF6v3W4/e/asz+ejnMS5ubl2u53EDippt9vpFACiQEGA0oGRbtpsNpIzNE2TNSEJg+pPpg2qjNPplATpziVylSssB1yg+8eAnF7gSIeBhBIUakNBQwCB7YAGDDAgIzBgiJwFN7hXZm9VIAkHfV8ZUgxNIDj2gkb/YUDGGCCgQA66MHlictQfW4G/IDz5Hq/Pw5iGxfOPgBDLhaajHVDExbji/7CK/nVx/lwugBBMAIJgyFBoKEhvw0BA0Gs+YIhDsKENQDfRFpUQ41Sal0uDV4D/3DkAFAgCmGCCMaGhCaABYxf0f6FgAU0bsN9PEgg/R5gUAyHbMWsxmYpHfoSg4571cXLrI88D0zR79ux5/fXX165dm47/CY8CsPr/W4MUiIVLgiQBUAHp2yjtF9bKhBC0Zkf489kFLtAHsIASFhmygBld0M4fhYxpogLUUAbAAxtwYCygi2cskmrwj0ZgJIIxMQAFE/8PXoPkzGDM8GBcovOx/v/Zse8AtzMThQBAxhlDhgJZUI6y2q4tAhUGla7SHSNE2go8ZykTpqG9VPosuC8pBX358YIXhbmdBLfwJJQCB84EaDYduPD6vdwe5cnJ/+8LT7e+scn58+c1TStuNAPfc6b7PCI6xjnhizmTP3gvPSkxzwBDMw2wacwfPJ+8MGfYkC6IrHu1fhm5f4olUiT9EM+cQkuVnP6FBYqfAIica263u36t+mOHDvHl54BDB8bJ3MxJZx2wshTQpL60aU5vrj8qOWrSFzM+m/6VjhxM4WaCc9Bo8of3W2H1v0IT+FLph86PUC8VDPvxXjANERDQZrOfO3Hq6aeeufeu1ufd58BhQ4FSDxosXzwjYoH/M/Z7LoiSU0a8X1ixEpann6zT6TQMo23btqS0p9QCVskjnGzR9CO+K+KdiAT/lHYBK2jmIQADQWl4AMAwkXGua5p1shimgaapc4ZMMMZAcOB0xh8HwMhrTFlFQV4UBNSYrvP1W7eXS0+/rWVzj88HnGEw1UjIrzd8MS9ijQrnXxfqRyIo/y6KvnykMPrS/bIwskXXNowIBtw+GQJyAMYBURhM190mDh898cTps7quC4G6XqI5xoAZYDDOeBTbt2evMyamXbu7zpx3o8YMpnEQAEHJIyLrYcE6XVj/C9plKWMicOKIDFAE1FM8dNm/oH5F0w96vwALIxGxbhHphyC8/ogQYQJY6COiTdePHD3245I1Dic3820CUTA0OWiIDCN5nlO9OfhNP9MZMm33vgN79x8c2LfvuZwc4bALNHiQY17UBJZ7XqtdPOguXHBx6RNYBMdOBBLvBb4OV3tGZPQl+oFYO7mwSiKawoyPj/v442l7Dx6y2zXm1oRAwZkQyAA1UeYWXLIO6LpOyX/Iz58iD61pgq5+XFk5ILDvYhh0EAQQCCgYY2AKYAxsNjsAnM7N9Xo8Ho+h69zlcqbExzFNB0Cf18cZaBrjyAWKgO9pgTpBAahzUQDjIDRDILpiHP/8x9973/uPK121PyU8AAvmLtaASV1i0QJ4IACeg2ACuImAPk/e/Z079H24xx9Y678UTp0+22HtFj+tHUIIDQQDjsgxkETHyh0RkTMuEEEzUZDDEbu21jVPPPzAlW3Fnxf5J7JzvQYGpC4UDE1ABoL878vIDkyqBEh773Q6QwpYTQNXP66sHEDGcwg68JKIK8gNVddtPr9/2tezFy9bnp2dnXv+fJ7Hq3GIj48vVy6tccMG993dKT4+Rgjw+bwOh51U3xjMa/mXn4glBinrOKDJmCEY86OZl58nhBA+wTkDDUCwCHGXIVQKcZEvkRqqVAtDhDeyQry6w9XHF1W3Qtz1AxoShgIYQxSm4DbNnZfnNX0iaJsqwStYwKGaI1BuV2Z68vKEEH6vX7dpDHgwRqbwXiquAzHoVWP4DYpdFYL8ZxnjjAFwXSus84qlH/hNmSgACxLBSxmoJIN7KWWsinFE0Jj7fK6JwBA4IrkDI+MY/PlDyBYgUE80mWAMkTFkps/wCiGMfEO3axiMnylKmR2xbkFJEIKGN1OYKBAAhUCNc65rl/4DkeImeY0xAM41rvGLMwMX2/8lGCBENAzT5tA9Xi9EOQCYhoLiaJBz0vEzCOifrhaQ9QQDqV5pLZTRaGTCCKhLgh8w+E34IUcF7sMWrX+xqXsuq1+4DJcJpqO7sNqldQ+4OvQBgAIBKQOCXwi7rmfn5s2ekzX540+3/7LL5/PHxye4XA6X0+nz+w/uP5KdvfLrr77+4MOPuna5r+cDXVKTE/2GoVPUBBSEfJXN83zCQMIRMsY1gyOAAA6Mc86RA2gIXCDXKObUqv60qA2RFSg+mcy0DpaSGIjtQARkwMm2SHGUIFAI1DQeYIjBN4TRhzCzLAuodwKiDJimiYCapgd/n4HU+gyYKLhAeRG0EkWkT5InClNwjRNrC6kbtdQADgg2EBpDxpmPc7cNRIllfcknKZlU4JIzzjnjjAdZGS0wFCUj2TUr6Ft24QXIeU6dHNwbo83miFg1n/Bz4IwzYVknQnS/hdJHYAAGmnabnQH4DJ+m67T6CWYd9ws6GSzBFOHZ/8PHPdAQi3EkQtsRdMZRJ4MgaCgEChGQAwInEbALuRoLTkiOnAk6NIADcM450xjjpKqhHGAFs8UyAQqqFGIfCOocmYFCY8xn+OwOu2bxj/MLAxjjEDwwIPAsQvAHUvgEDphJecBVGgHBbrMTWQNNEwIZzC8cROIPCFDAwML7VhT87oCHdfKFP8ACWxVt2gRl3+NIEV2aEAJQAA/MP+QCgF9VCgEGxAjQYuvDC3izXNyCf1AmownlIMzyvwvNV0F/otLueS6iPZbdh/QOCEx7CEgvpajBlZQDEINrAgKCYIybJth1/dcDh5994aWVq39CZI2va3RrixtvbdmyUuUKMdFOU8ChA0d+/HHJd0uWr9246c23x2RlLXj7zf9e/7drTVNwzhAF4xwFMn71TMYrC4YIwAVDrpk6BwDGA1IwB+DCZMARdQx3WgquxozRqRjBU1aAA0VqUlZOLZj5VQQdiwKGMXLd5FwnZa0IsLwLrf/B1dQqOlA1BO02WAFTsWs2AEBhAieZHoPLJUUqIQLqjAGiYfg1XWeBnV4wM8UFNnIUgJxx0MkpVzAQ1pNkEBgHFAAacGDIBaBgTGNcemGVsPcD/Q+a0LhJ7r4atdnkSMpFLWC9AUCIFHLFwi4u+Mhpy4OmztiJE8d/WvOTVW8JAGnlUhtd30jXbcL065wTK8YQfmMZdwz43wYYA3E23WY/e+a0Oy8vI6M8UK4SRACOKJjk/AWDSm7jIrBsgQhazAVGaI6lIYW0HYNum8CAo2CAHCiAnfafgQoxxlBcQCi4ZjPd1EGQzKUJxgBAcBBcIIAmtALvgAvrUFQEXNBnQQfGULhszrNnT2/5eWv2uRxd0ypVqHjt3/4GJAXTvAoE3EMgpJkBQxEMfqYfFyKgDnJrRNMXBCJn7Njxoxs3bNI4v631bTZdJ199CIxUcBmVSfpJuxq4S4MY6IdIYmIxE0zOC41c31GYgaOQaI5QnDQiZwHp++pZeTG4RwbygQoKp1gw2FIwZUHdaXAijyDW3QAAIABJREFUwwU/i0LoQ1CvjeGi4h+EghcHT2u+aBJXUg6gpUQwxtEERBNB1/i6n38Z8PTAHb9sr1+nXu/ePf9+5x1JibHWpxLr12hQv0afPg8vWrxk/AeTlq9c0+Ph/u+MfKPNrTf6/D7OUUMdGGVUuHJtu4oQmByCocmRE8MOfAMInCMwZBfImQEwABACOGcnjp8YMGBAXl4eFtDUhDDLlSv30YSPhDABhcCCtYcB45wbpqHr+tnss2Peffemm25qedttQghggAK5piHSqgicMQTUNC7MgLucYRp2u33ypIlz52ZJkUHTtOSkpEf69GnatKnP69N1DowLIQI83ESb3SZMU9e1RYu+Hz5ieP36144YPpwxZpimpmkkOfhMk1HiExAa19yevHFjx11To3rnTp0xeKRHoBGBeFXgHDkKBG5wsAM6QWjCgVjSH07BeRKoI/cBABM2hhoAcGQMNWA8eNZe8bFWhYIxwzBsNn3tT2s7duwY8mWU09n/if6vDHrV6XCgAEOYjDFd0wQiCgEMBEkDjMscO6YQnHMeTMiq22xffTn93XdH33vf/f2feMLn9eo2mzAFY4JzzTD8ZH4QAnVNA8ZQCFMYNptdmKYQgnGaEqzUp25fOC81hg4O6NV8fubQBGooEG3EYgUD6xYAIRDGJhgH7mMAXGhcELcVDPVgTO9FVyuoQAZA5Jo+Lytr2NChy1eupG9TkhJ7PvTQ0KHDNE1jCALRMHx2u53YPSWLRUSucRQYiHYExjkHRNMwgQFnmmH4Na6jEMymL/r+h+7duwNATk6OHhvr9xuaxjnXEECYguLGSK8lTFPTOGOaaZoCTbvNbgrBGb9EFbUg8yIAMjtHDQD8Ggi062AyhiboXPiBMUE+GlfJ2ouADFGQOitfgEMzOGcmMA0YYybmM6Yj2AT67QZDXTco2xQzNLCFGYtIr2owNxcaR7upGfloByZcyDkKk+dpEB08z/F3aj8JdQaizkwQmt/LQEOb3fAJjQum6yQ+/vn0AUFpTSDqmrb/0G/P/uflX3bubN3y1jffGFw5syIA+P2GxjnjwZ2BQBOF08bb3dG6SaOG/x0+evrXc/s9NXDy+HebNm5k+L0a51eTZuqKgwED2lMEzhllGNj7MEDGdEFGUxbQ7QWeCcrDDJGxXLd76rRp4aSTk5M/+mgCANN0GwCYwtR4IObV5/PruiYQBw4cOHHixM8++0zTNL8QNt0WtHpqkg4GV0ZyutF0DQBXrVo9Z86ckDdmzZu3fv36tLQ0UwjGREF6EA09Hg+F9p7Pzf355y1JSckC0abrDl0PxPPomqYDpe7iXOOaNnr06Jdeeumtt97ixBSDR8pgMKAJgRJXCMF02rBrIBjTMeK2KnLvB/aACBy4AQAMNVLpcsY0xpBU74xHdNW2eu+Ha/IvuGAMEZ1Op81ms9vtVapUodBkt9u9b//+4SPevL3tHa1bt87Pz6fjVikEGTin9GQOhwMRhDA554jAOEcA6hNTCB1gymefLluxsku3BwBAIJimSWeiAICN2wMjyHnAPI5os9lNUyAicCaE0HWNjLMYjBSLuH0quu3BQpyhzgFNLkym29HgiAZjIBgHxvgFhquglgsFQ84MUtMTG2PkPcsYFt7/RVwEK8M407Kzc54aMGDPnj0VK1VKSU42DGPr1q1vvz0yOTnlhRde8Hg8NpvN4XDKR3TODcNgnAMwIUyZcyYQa65pJDHTfEUAIcRdd921evVqTdfpcFvOeWA2A2i6DgA+vw+BccZt9sB9nesAusfrtel6QGKxhOmFhAOUqO2BH4XOkQOAwRkwXUOBDE1kGjLBIhkOrxyC+3TqW8PP7IwJztyCOQywcc4Z5JH/gBeZQC1KQw4IDAWYAjkCZ5ZtPgaMIxoIGxgAgtk1wdDLDDsCA90hmMGQWZx9CutLiZKUuaBBAAzQC2AitwHmCxAMowUzvEIzmR7DS5k75wr7CdI/iMw0uWH4Xnxp8KaNG+68s/WYUSNSkhJ9XkPXmWbTmSj49TGOOugmGqbfn1ouefiw13ymf9rUL14ZNOSzjz9MSU2mpGNXy0y8GoAQDPAN5FsM+meS1zsiIMdA2HyIipDUlTabLTo6unz58qNGjYqPj/f7/XT8ZUxMDABzu8/v2bMnMTGxatWqu3btcrvd1apVi4+PF0IcPHhwz549uq6fOHFi3759mZmZW7dutdlsmZmZ+/fv9/l8eXl5LperZs2adFyH2+3euXOn0+msW7duTEyMrusPPfRQnz59vF7v+vXrR44cefDgwVGjRr355ptCCF3XDx8+nJ2dret6+fLl4+PjvV4vIt58881z5851uVycc4/Hs2fPHqfTWaNGjV9//fX8+fMZGRnlypUzDOPo0aPbt2/XNC0nJ2f37t2ZmZmUmoP2ZEDzEkDwwA87eGC8jG8tIaS6seCk9oCnNZCPGRlu0TplQ9Uykb4KvQiep+L3+wFgzZo1dI6qYRitW7devnz50qVLW7Vq5XK5Tp448fnUqZ9//rnP5+vatWuPHj3S09MB4NChg3fffXdaWtrYsWOrVav27bffPvvssykpKYsWLRo8eHBWVlZ0dPRrr722atWqsWPHxsTEzJs379133z1y5EiXLl169epVsWJFAJg9e/bgwYMfeeSRzZs3L126dNSoUW3btjWt4dQWlWx4Y4tuu0w6ThFBlFsscA3IWNAExKwUgn4tyCiQqKD/g9FyDOUYFdfJYbUllnzmzJkjR45kZmbOnDmzUaNGAPDmm29++umn27ZtI5sa53z27NkjRozIzc3t2bNn79694+PjAeDTTz8dNmzYG2+88dlnn+3fv79OnTo7duzo3bt3nz596OfTp0+f06dPr1y5cvfu3X379q1Vq9akSZOcTqfP55s6deqECRPOnTt366239u/f/5prrqHTaefPnz9mzJgjR45069atV69eaWlpMvEcsw7ERU6wQE+TaGuxCyDpokEmb7iKll5Sc5GPiIZaFAP34RXH1n8Y5cjhaGomNzjqwsfRcDuBCSf4dYbAwW3qPo+ZGPBvCfJWBGSC+XXBhNPuY8B9guuM59gMDmg3uC40P6OdExlIaLWg9JZMgAjewaAxJ+C7AgVRq2hx2S6wssh89YJMlAiaburA3T4bcDPW5/V77InJbZ8C199KJ4Rd6XgBFIwx00S73TZt+pwffvixVs3qr770XEpSgs/ns9v0wKyzpOMTgnGOaArOhdfvs+u24YNf3L17964du76aldX30V6mEJxDqU5b+IsiuDhKdVWBgTuQfYlBUB8Q+mzA1Mvy8/Pj4+Pbt28fTv7nn3+++eabK1as2KZNm//9738AcMstt7z33nv16tXr3bv3jz/+GBUVNWDAgFGjRh04cKBly5Y5OTldu3adMmVKTExMdHT08ePH161bd/3119Pq+dprr7Vq1WrRokWUdLNRo0aNGzcGgBYtWixbtuzw4cMrV66kc8A+/vjjYcOGHTt2DABatmz57LPP3nnnnZzzmTNn9unTp0aNGrt27dq9e3ezZs1sNlv37t3HjRsHAH/729/GjBlz88039+/ff8aMGU6nc/DgwYMHDz579iydBErdIrsi6CHJZFqVAseiix2GoNEkmF0q4Hl/edRXlrHjnC9ZsiQmJgYATpw4cfLkSToNHQAOHjzYsWPHzZs3169fX9O055577uOPP54+fXqdOnXOnTu3YcOGxMREt9uNiMePH9+yZUtsbCxjLCYmJiEhwe1205DZbLYPP/ywb9++GRkZlSpVevnll2fOnDlnzpyMjIyTJ0+uX79+x44dUVFR9erVK1euHAazAdMJsOzS46lYcHgYFlwHdPuFH2TLgh6kF2T3CvZ/KRYLyyk1SUlJVapU+eWXXwYNGnTHHXekp6fff//9AwcOJEWUy+UaNGjQ4MGDMzMzy5Ur98wzz8yePXvatGnp6em//vrrtm3bunbtmpqaWr9+/YYNG3788ceI2LNnT5vNtmXLlu+///7uu+92Op1Hjx7dsGHD7t27hRBut/uZZ54ZP358zZo1k5KS3n333bFjxy5YsOD2229/5513nnrqqbS0tOrVqz///PPTpk2bO3du+fLlA4fRXWLnX5gejcJpguodVvRO9ooAg4zcr6OB3MW479w+vndWcrwb/FZfJLBrDqZ5bZQEngRzDZhMDSEAOCAAE2BoAAAa7QYCfitgADANYo2CV0uRKNxF9kIVC8CFaTMiqAWkiykLeJYigGYA42BowBGYH3x6CrN1AWwIrDR5C65kjGPAkxNR03hevm/WrCwA6NP74do1rvH6vTYbYzywV5I+PBD8rWsaZwC6xv2GGRcbO+DJfwNjn3/2ZZ7HZJyhChyMhML2NMVCCOF0Ovfu3Xvfffd169ata9eu3bp169at24oVKwDA5XKVL1/+8OHDBw4c+OKLLxo1arR06dLBgwf7fL4hQ4bceOONHo/nmWee+eSTTwCgUqVKhmEsWbJk/PjxS5YsoXMz58+fj4her3fBggWapr388st0ThcATJgwoVu3bg888ECbNm3mzJkjhHjwwQcZY7TeRUdHT506ddiwYUuWLLn33nsXL16MiHa7XdO09PR0iu7NyMjIyclZtmzZtGnTbr755s2bN7/yyit5eXkvvvjiXXfd5fV6e/fuPX/+/JiYGEoqXmzvXc2Q6uWOHTu2bdu2Q4cO999//y+//HLttdfed999jLFJkyZt3ry5R48eixYtWrRo0cCBA7dv3z5o0CDGmM1mo7/WtKaUybx///633HKL1+t94oknPvjgA4/H8/zzz9eqVWvhwoUrV6586623NmzYMHbsWBnnlpCQsGzZsoULFzZs2JBULKUPaSqyub9j6RIDERMSEsaNG1etWrW5c+f269fvnnvuadq06cMPP5ydna1p2pYtWwYPHty8efO1a9euXr36nXfeWbp06YwZM2Sm2Nq1a//4449ZWVlPPfVUvXr1tmzZsnDhQsbYd9/9P3tfHidFkbQdkVnV11wMA8MMp1zDJQgMl8AOMB6AKJ648CqIioiuByKKrieywr6LixeiiMICsoiuJ4KrICIqICAgICC3cs8MDHN2d1VlxPdHVtc0M4CArq5+b/78YU13dVVWZlZEZMQTTywCgAEDBnjEsX6/PxgMrlixYurUqZ06dVqyZMmiRYtuvfVWXX7+8OHDDzzwQPPmzVesWPHll19OnTp1/fr1c+fO1VP5/+XGSMN8UAAbKIHR8AkzwGSg48Oo31R+X1TKiEgSGARlKAQSgoXPkjIqwTLAMsCSYJlgSbAERH3ADgIJR4JlIpmSOcjgRyElmmQgGwgS2XD/U1UOKv13ss9PcY4yDGUK9ukAI4KQ5POFzXTmaj+a/n2y9qvHBVgpZZrGyq9WfbVqdePGDS/t10cRmVILjlh+cnwiUAw/LgwDGVCgQ9S9a5fs9m2XfPr5a3PfHH7jHx1HyeMpCP+v/ZRGRLqWxptvvhn/eW5ubrdu3YiouLi4fv36r732mva6X3DBBWVlZUTUpUuX+vXrL1++PCcnp0ePHp44u/HGG4cPHw4AiYmJtWvXfumllx544IHVq1dv3LixdevWPXv29PTQunXr1q1bp29nGMagQYOGDRuWl5c3Z84cn883c+bMbt26AUC1atVGjBgxe/bsCy+8UAihlNJlvImovLw8MTFx3rx5zZs3b9myZdu2bW3bjkaj7dq1a9as2YcfftixY8c+ffrovmmoIPGZpAT8NzWPZjwtLa28vLykpCQtLe2+++4bPHhwenp6fn7++++/L4S4/fbb09PTAeCee+6ZOnXqpk2bjhw54hGnx/CSrKdeh2A0U4q2Er777rvi4uIaNWpMmTJFCJGfnw8AM2fOnDBhgq7O0rFjx2bNmnlF33/HGsgzbnr16vX1119//PHHa9asWbx48bp162bMmHHw4MH58+evWrUKEY8ePfrkk0/atl1aWgoAixYtGj58uA6H9e7du0GDBjrc9thjj1177bVLliy59NJLZ86cWbt27VatWnljqMdz27ZtANC5c+c6deoAwKRJk5RSSUlJ8+fPj0ajJSUlTz/9tG3bkUgEAP75z38OHz5cx+l+xxNxkqbJNNy4BSMyOkgKFSMJBARyRDCApjRECRCA8gELMMAnCSK+KkEgAAQQBiBCQDlWlBxlMDObEqMGK3RiMUQPZQygdZaAOK9T3IFR5ZPKB3GbdZ0YbyKQ0CUd2AAARyGClD6GwI/BC07aftV8AR1dAwDAdZu2HDx88KKLL8iomeqwEi6Hg3CTmuLzPXUyPKIGqAspbNtJSQx1O7/Tks++XPnVmluGDvz/bbH/7M1jL/H0im3bycnJubm5gUBAg8IikUjz5s31t0SUkJAQCARs265Xrx4R5efnl5eXSynLy8sBoLCw0HEcIYSOXjdu3NhxnEgk0rRp0z/84Q/z5s3bvXv3t99+W15ePmjQII+hEwDatWuXlZVFRElJSf3797/00kullKtXr96+fXtGRkaXLl10Ec/s7GxEzMvL85i8PJ4fXeBLwxrq1KlDREePHi0tLU1OTi4rKwOA4uJi3TdP+f1214/37D/88MPOnTsHDRq0cePG9evX33bbbUqp8vLyAwcOaKvOtm19oOnQPRpUXeRUwzb1Jx6Pjf6WiI4dOyaEKCgoeOeddxzHQcTMzMx69ep5w+73+71qafHWya9Rdvs/1XSkQz/j5s2bN2zY0KxZs2uvvXbAgAGIuGXLlpycnMWLF+/YsUMvrf3798+bN8+yLL/fn5mZqUdej4/P59MDjoi5ublJSUlff/315MmTi4uLr7jiijZt2sR7ejxQra59p5TS9euISBe8KCgoeOONN/SSzsjICIVCJ6yw9xts8dXAK31xcg3IyEAEoECabige0BFCSYEKQ7DlcOLag+mWyisXwjZDyCxY+lXUx0BuwqEbuSMGiUTkc4QKhKB9HWqZcACcCAqf4iChbUjFZ4fXP83nZwBEQQ4JYGShKfUlAColIohnP8u/bt4gAKAwjGjU2rlrh89ndu96PjMLF3oi3PxUFPHETjE2fAS34qC29bjNeW2SUpKOFR+LRO2g36DfkcT55ZunRPWBlDIcDmdnZ7/zzjuVzvQkuz7Q1TM9geV52nUhzviTtfoRQmRnZ8+bN2/q1KnhcBgA+vTpo8/RLtMbbrjh7rvv9m4XjUallNWrV09MTLQsKxqNBoNBRLQsy2P3jC8XprWa7ozuG8boELy+GYbhbYUhluf9G106evC1SmjVqtXrr7/eq1ev119/vV69en/7299q1KjRrVu3t99+e/v27RrOtmbNmpKSkqysrKSkpJKSEj3XKSkpesbj6VH1YjBNU0rZoEEDImrVqtX06dM1XMBxHD0FuunhJSI3KyHWfmevpF5IhmFs2bJFx/jnzp17wQUXAMDu3bu1pldK1apVS9etnzVrVllZmc4O0K+ANou1ztbLLxQKXXXVVe+///6mTZsSExMHDhyoS9foodMmRVJSkgZw6KW7e/fujRs39u7du2HDhkqp7OzsN954Qy9sbXnrFIPf/uB7uJqqX8T/L67p2gwEhkIQhCAYSSEy+BkcNFWpNN9eXbq7uH6L+gEHoExR0CxxoqEkoAPIfgMcQgCSKBwiQ6LtgN9XbqHcvpGjTUJZvQIYLkPhIEjDQTLY5bLzjBUBoGI7eo/cqVKqxgmTgjzmNj7uE83SolxeT8nIPlSIgGAznH1Fg181b9ClLMGycPjgwcMM0KL1uYjoUmgAMnhAzfgljG6tShaAhMgSBSA2b9EiKSn5WFFJcXFRIL0G/6bKPPy3tXh/gG4JCQmHDh16/vnnk5KSHMcxDMNxnGAweN1113nqIV4yepJLqwQd7NfHWjxpOaVLdj777LOTJ08OBoNdunTJysryBJ9hGLqwdzQa1dU8DcOwLKtDhw7Z2dmfffbZlClTRo8eXVxcPHnyZGbWYEPdAe3BllLqzZa3UdabMC12daFPLYv1ObE81t9kizezdKWTli1b/v3vfx88ePALL7zQq1evvn37Dho06O2337799tu///57v98/adIkx3EGDBgQCASCwaCOMT/77LMNGjR47rnndI5lfE30jz76qGbNmjk5OZ06dVqxYsWUKVO6d+++aNGivLy8YcOGaT1UtT+/y6YNIw1+7N27d9euXZcvX3755Ze3atVKCLFy5Urt8G/UqFFGRkbt2rUXL1783HPPNW3a9KOPPopGo6NGjapdu7bW/T6fyxVoWVYwGOzfv//MmTO1579Pnz6WZXlWgrZru3fvXqdOnTfeeKNx48aNGzd+7rnn1q9f/+ijj44dO7Zly5arV69++umnO3XqtHjx4qNHj95555116tT5HcxFHK2vlw0aD3py83g82jCdg0MsAFEKNymaUTBIRCYhBdhRCDk+GHhxoE31EjsSqhWkHQWqeW3YlGedm0lbfoA6aQIx8Wjhsbp1knf+UJJ1Tup3Ow/UbdpgYTCyLz8MBloBkEySwgaBsIElCoWApiICdAxgMoEUSAAAdIRJrAxSCKYgVNIRQKiQCcAQCKyA0AigImZHCABFLIClYGKhABFYMIMwmRShZHQzlxh8jsSfILd+TZwgAjATMJMi5QAKI8bI7QIoCV1k+3EPGIOAYjz+EsD0+VGYilERnyWp0v+1WPOEjo4p2rZdUlKyd+/eu+66Syfy6X9vuukmZrZtu7i4WIPS9bA7jpOfnx+NRoUQTZo0UUrdeOONrVu3DofDx44dcxynvLxcy9BoNJqenq7xeseOHbv//vv9fn84HGbmI0eO6DN9Pp/eWmkDQghhmuaoUaNq1Khx33336f3r3Llze/ToMXjwYJ1KoDuge56Xl6ed4fqhdMZgOBxGxBYtWiilxowZU6dOnby8PB3g+LXH/myaF9fXQxQKhbRNY1nWwIEDL7vssvLy8pEjRx48ePDKK68cP368z+d76KGH7rvvvkgkMmnSpJEjR0YikYyMjClTpqSlpU2ePPmvf/1rmzZtdBhFWwAXXXRRenr6u+++q1Gc06ZNa9q06YsvvnjdddfNnDlz69attWvXRkTt+PH0VtXq77+zphd8QkLC9OnT+/bt6/P5Vq1atXLlyrS0tIsvvnjatGnBYLB69eqzZ8+uVavWhAkThg0bNm/evH379tWoUUOba9q9j3EpFT179uzZs6cQonfv3toU8zxzSUlJ4XC4SZMmL774YsOGDZ955pkRI0bs2rWrT58+I0eOJKJXX321adOmU6ZMGTp06KxZs7Zt21a9evXfxyygS8ulec90/gejhs/rDEbFTKAcUsykbGZb1zuwAUiCjP3WJAdkOUibCfwqYBOwU/jOspKXVgeXH+a/LFZbC0LjP+ayIvr7Eli8HRftqP7KJ9b6opp/X0i7y2pNeDu8bFughEotf8AXQcMBQ4EgRAYgCEu2DaHKohAyWBgKpO0I8Emty6OOUsqkINpgMPgsJgcBkNlnKGSHTJRAyrGVQybYFrABJMCS0jYkS3AUkyktBACQyKAcZFJSU3+aPyWe+SvXHdbr25AyGPCDwPy8PG7RWJeuIHQTuD1WSN1iaaoMIBjJjfgwHzlyxLYsv8/0+/2/XYH+X9LiwQEagjR8+HDtKI7fdCYlJemEtKFDh6alpWlsebVq1QYPHnzOOedoJMEtt9yiAWua2eaGG274/vvvNYhMe/KVUnfeeeerr77asGHD8847T2+PELFnz55E1KFDB72t97qkXQL9+/f/4IMP3njjjYMHD5qm2aZNm5tvvrlatWoA0LJly+uvv75hw4ZElJycPGzYsEgkEggEtOUxePDgjIyMhIQEZr7mmmt27Nhx5MiRmjVr6pv+RlWX9nMwc4sWLaZPn56cnKwfRw/dP/7xj/feey8hIcGyLER88MEHb7rpphUrVjBzly5dMjMzvaLpw4YNa9u27datW7Ozs+vXr79w4UJ9fW3JdezYccOGDVlZWcnJyWlpaZs3b168eHFhYWHNmjVzc3M1PLN79+6zZs1q3LgxxtpvbjBPs3GMsEHbW82aNVu4cOHGjRt37twphKhXr56OvOhIVm5u7qZNm7744otjx441adKkU6dOWsFfcskl1atXz87O9l4rpVRqaurTTz/9zTff9O3bV78ORNS2bdvp06fXrFkzGAw6jnPZZZfl5OR8/vnnhYWFLVu21J4wy7I6d+68bt26zz77rKioqG7dul26dNGxid9W+bsTNoYY/M7dHFaQIjEwsgBBjh02/CEB4IDBTMhkEhtSUow+GPUW2q07AEwEzNIwAU1AKaXJANIwmFEaBoKBAkCaShmm6WcwDNOPAEJKISUDMbm0QTECdjSAfERQt16e9FfDQhktA8eJRggVBX2+REuBiNg2oBFGJSFUA6JFUcNGy2YB7DMQQyYdk0GOMhgBAVEQPiGiNhqgC8JFLZ9EWzApBdJA5tiDoHMC3MRpt1+7zhAiEyUlJZxTr55ynDVr1vbpeT6hcFMlEZlICBFPjYBebQ5NR4ioKw5v2fRtWWlxYkIoOSlB0xL8qo/2227xYV2t6adOnXrCM4moUaNGM2bM8GgBMzIydIqgFmrNmzd/8cUXvT+feOIJ74dauwshNm7cyMydO3du0KCB1klENHTo0KFDh+pfxc+mZwp07ty5c+fO3udKKSJSSuXk5OTk5Oitf+3atZ9//nlvx5ySkuL1jYgyMzOfffZZ70/HcXR04zfXvK1kZmbmDTfcEI/zdxynWrVqN954oz5TI8tq1ap1xRVXeJ94kDfHcTp06NChQwc9ngMGDNDaRQhhWda555577rnn6ovbts3Mffr08TqgjQztqf7dBwXim35SvWtv3bp169at9ed6YPUitywrKSnpkksu8b7Sg9OiRYsWLVp4wA7vJWrbtm3btm29xc/M9evX15OoDWhtnXt8Hjq2pYEapml682LOQvE5AAAgAElEQVRZln6hfo2B+ZlbjEQq5iRmtzSd1geMzGQLIQuO5B8qONKmWXMC6VhKss2ODb6Ay6aqvQkxPhCUmg+bwCUcYuliP5G0jQAgUVeuVoZkxUpqWJpiZASBjHG1rSQGwPdtWfqnX8IxsuqkwjUtOBgi9qUJg8tKikO+gO0POjLIsvTIPvvT/XX71zPIT6YhDRGORKPb95k1UqrXC6LABFZHFZQoNJW/LnAJUJ4M+A1MZ/uIrUqlFGwTG9qwYRSEZ8UcoNuvagcwArCjlGmarVo2QeaVK1cp+hO6jh+3cGqsUoArU1w2YrfepwAAzVO/7MvlRccKG51T1zTkb1eg/5c0z0uJiBr4raV8POpbs6RJKbVq0WJIayMt5vQUeEgoKaVpmpFIxAvDm6a5YMGCm266qaioSLMPSSk1CasH/dM2gRfO193Txzp0HY9l04F/x3H0Lk3/Vvffo27VCkz/6TiO7qrjOIFAwPNm/xabp4305k+T/npefR2j0VaXh53UP9QDpX/lJXToM+OPte7Rw6W92doa8Aih9eDrD/XC+B07A7yIQHxyil75eu2JWNOvhjbItDGqP9fDqIfUA9NoVIfW3/riGhPjmbl6kWtHi1IqHo3h0jQh6mXghfY88oDfet4gukVkOUZ+rjfAhADApPmsDTNwYP/Bm/90d72mLf/yl8da1k4XIJ1omUAEJo8WzEPhERGDx6+kCa88JxYKBERQpHRpNcWAILySWcwuASvGiIvJpMMceH1TQq+6pc1qFb/9FW4+Wi1D4qtvh4uLrJFDM/IOHZuzFACiPTqkBUuPPfDx/tr9cd/RyMZtomZdObBX8t7DZVag6ecLv1+3taR5F3ltbvVD+3nm4qK6KTCwZ91vD4bfWVwwqIPdvo1UETYqIiXaSvqN2gHIuiANAHfvfn6b81pv275zzYatHds0Uw4DKgZpGpLcIhluY0YUQMTMCgAcYp9hbN2+c/Wqr6ulJl9x+SUx/sHf8Ir/T7cflc2esveaB2Wqeqan8j0p4zHPa0Hmgf91Rpk+0CKsWrVqtWvXbtiwYf/+/UeMGGFZls/n0xLNu4hn0nlbTC1GPRxDfJ+9VC79oU4E8E7w+qP/1HhGLxJRkeH28zGjcdzBf25FevNlmqYHR/doauLH8AQ9jJvoeINJG2reaXrctFXhZZF4jALxffCm+PftFYjPq9QH3mh7zTOmvQGsNCBCCG/txefRxM+X/omXZOg1fTtv8ONfh/iJi+/Jz/f0x1/8F7kYcqwCCisvh46JNG8wEQMY4XK79bnn/uMfMya9MuvOh8dfnNP1uksvqF+jumISVdchAoJwC52ym/YPCMhC04izZluVmg1YkyeKil4cXxmDiaWRuGunkwlHs5sHU1TZnblBx6DJXxodW1dP9zuvLCxq1jRF+UruuTT9taUH/qcbXSk7p9TepPzVW2erx+YeaLev+kHhPww1vjv2/bD727w864vF23t89e/lHTvR3t3WWyuzI0H7vOyC9ucrLjgkpNAmkNsRrASjO7P2qwaNYtax4ziNzmnwh27nFxzJn/PPuUIIRQ4DCFEBXIcYcF2XjUTv94yI+NHHS7dv396tS+funbIppgx+/P4QR/Pupi+wm6sRK6lZ6eNT/ueS0scXVK4oCQqneZGf+F/s3hz7w30WL1tFu8aOH4LjvoZK+QKV0r4rHXhaxJuPSiPveRHgRNfv3r372rVrV6xY8dBDD3kp1PHXjFspx3WpqkitWCrH38gzVipdNr6r8VdGxNOQayefA477N+4AwbtdbFVwpTk4e3Fadb7ip+PUzRuZeAahqgkjlc6Pn+t4HEA8suSEM/JzNHbXdMVLevKJqHi/48fZG//Y8ZkPvvdc8QuyUjvZgMQPZvx8nfCcU0/lqd/ESrP2c43/ceLNlSfHydLYBMXJRvbqaVSardi1YqW3K8njuN+5bxExEzAx2IoUCBsMhaaUPsM0/CHTIkytXq3/5ZeWlEf+PPrPA4f/6fDRowjI8dLQu32sRoVXZgHR9Ue7lgAIHX8HtxxbrNaSfmqsWGQIgKykCNpGsDRsgO2LgLGvqIjNQNY5tdo0TvFFAnBENU03fEAMKcKSdY5FUwKBzYflu2uTZVLzVCfDV5ZkywaZdSgNdhgI24uNIn/KD9AmmtGqWssMrOZr4CcRsd066xXV17WD4uy1+a+eN8iIujo9XXvN1W+//+9/vfV+x7bnDf6fqy0ropiF4dcLjUFALD6kbTYEtGwVDPhXrP7m5VdmJCUmDrvpRg0LRyGQ6EddAlXTUY87qtjBnaadpbM7hce/rVeOdiPFqvz8FKPttPrgploieuE0QGDN667fBKzoAyMj6aohArlixOJ1Q7yQirsNxsvBk/WmKmg8Xmhqr4D2SOsoZqVt0AlRe6e49Ql7crLzT/j5afsDNMwX44qrxK2ZimxgHUDRmxkUGFsVMW57LUXjqjyeZas6Xz8KeKyqfiqNedXfnvDzk/1Z1YL8+ZqWxnpPgPpfXT4ohiV3UWQxFJVLTu5WoPfKQ6B3TD9xR3Sysaq6xk4xXKe4Wvw1q+7+T+dN/FkbxtK4EDBmhekoNcTy8zAG84795Pgjdl8eZmTXCe8p2xiTvJal5L1fDhEQCWBd3RRAJ+OBRXSouGz119+sWLV29+6dRw9+X1JSkla/ebOs5tu/++7iXr1CgYCn6mOS0asb5hL/KUIHpQLDJkEgbRIEbJNwGIGlQ4LQsFg4aFgEioV2H4C7+EAnNBY54daNzLfXhXfsx+pNq09+r7xTC6wuyr/es++HlIgMWDIUKikqFz4zKoJlIplE+Zadzp5vi4aN6rT51R0lMsEQmGodtiLsE36OqBqBiBWyLmmeAODsOba3DACc0phvgnSpcna3yYJ/wov26/IJujNsSGFZVvZ5LUcMH/b008899/wLNVKT+/a9yLIijmNLKRHdIqGaFYCBFREpJxgIrVm/cdToBwoK8m+/dXivHl0ZEEWVwtEnaSejp6ooVslQySI49dVAx5cq7HR2wSnMeFy93/9cY42nRc2nSSSEAAYhBMVEcuzNBXCXb+yJjxfYJ9zH/+hXJ2vxJ8eTFHnBVA0I8KKhJ/S7nt2tT3H+Sa/z4/LU9RpipRn1SjoxCAREtJUSiAKBgEmRuypiHhr0dkQe1Ohs2wlH5tQDdYpvz3jEzvwWP6ExI3HsXdMmAGtnLrp/QsyViICslDa9mFkIZGBmghg+SXfzLAb/R5fi2a3V07lp1eMz/e1Pa7HCg8yuLRCL3bvGWEwWVjjWdNK/1phuKBtJ23BCCx5mJgSJqEinBTISEynSb5NhCDMmGSIOHSrI/37vvgOHC9Zt3Lp+w4YDh48EExNr1Epv1KD24Ouv7JDVLCM9Y9ifn+x2XpuH77xVKnJfPPc2Wn8LTS4AiIpUwIgmQpnfsVJlRKqyFDMiFKeaMgAIXJpoRA2nOMWIolNczYQgRSTrTH69/gCBUUCCYMNSD/b2Pf1ByexVvh7NMbuhyKrmvLpCrbfCYy9L3nmwxC+ByGyeEKmTXBh0SnwWZLXwvzRzdc8WydUTt0NNH5tb01OdhKKytpm+dtUPiovxhdfWpPrw5ivM1HByEpawI1GAOwEskAGJURhIv007QKtKACZGKQ3HUXeNGJq/f9/Ul1954OG/7DtQMPSGQaYBpCzHIimEwyQYUAoJKAwfGL4331nwt78/vXvn9v79+t13z20CwVHKNA0ggtMIhnnEFMwsABGBmAW6AFSdmggsAWIVpX9kq8gIAoG0VAIAFm6pTkQWbj1It/SvdzWvGlXV659mESqIVawidENo2qMlmExkYFZELKRAob8QhLFq5CAYSVTsrn6BQK53Ey8O6u1y/H7/byfpXAGAYCUqyE1cJhMCicySCUgJIQQpQ5pKKcOQgBpTRi6ix3UM6BKl/2kIwe+pMWNUZxdLtCWhZEdJG8hERkQLUWg7DAiYOBAIRKMWAiFIcgg5imgBgPtqA+uUrP8b/NNsDCwYAcAAh5gFBRBtEgopQCIcy+PSTnMhABhQsiPAVmyQQGZUAkn6HGE60gQuByZm5YYHFIFQpEwglH7hiXELYMOGrWu/2fTtnsPrv9u4f//BGtWSqiclt2xY5/bBA1tmNcvIqJWcWAFMeXnOW2uWLpn/1mtk20RgCsMWZAIwclQY4PiQFUvHkuVCyGJZ86Lc6uJoeXrIaHyBP5haPqavkRAyxvShBD8A5mfXTEgNFtx7qb+Gsf/RK6un1irf+31iSpRY6n0pKATTAiRgCKca4Sf+J8FGYTphsKOJyfTwpQkgfVCWd24Gn9vAZ4cP39Ddz1bk7gskKIcF2Gj6sAQsG2qwgr0yjTlacP3FfrJ2g4Bnb0kVoCBSXD+zFAVyWLEJDALRACRDOYgAGP3N5gvEvKaIQEia6umhB+8RBr42Z96fHx277MsVV1/RN+cPXaunpgCAB1QrD4cXf7p02fJVs2bNQVCDrx98z8g7ggkJynE07vZ03XyuUxdd6iKu0IfsAkc9dR37ycllBVfsKmIoRRYcI7ECELHKnBhf//dkB/ERy6oHVX/iEmcDEyC4ZJpoGNKKKkZpO2TG3iiBrjnvEjXGWBvx9JwoP7HFx0QrhflPFvj/b2xsACCBj8DQ/BY6koksSAhBTECIZCuSMkgACvRuVQEAMWEsZqDrk3uOj1/7qX4zDdnHwMRBYpNJMgKBg+AHQAbFKJhYCsnAihwCnzAkUUSAVAwguOLNOY7W9f/aaTVkJoEAoNCN4RMyIxCAzzEAibTLC5mFcpAYwGFJHELJgkkCGuSwigbRTLDLBEqlGFEiCgZA4dfyywFYt33nlu++27pj5+bNWw4eykd/MCU5pU56jX69up3btHHzZs0a1Uqr6BaRsm0WSCiLw5F3337n6YlPnlM7M2xZAVOicuUvMpvkMDAQoQEJqjwQNWe8tf/DTHQ45KATQLAU+9Fvc1QCMQqECAIwWIAEFEUhLVG654A9oHU1BDAUsBDlRoANR5iWRq9DpBip2BHAAoCiYEUBAQwABLAjaIBtRVECR0sBAZyIYLBd7mEb0bYJ0AR2HK0xOJyn2A1tEYEhwRE6UUIBsmBgBEsCi9+UP6BS/BJRACgBigAYjFBi4uOPPpCd3X7S81O+XLl8xerVqdVTGtSv3/a8tonJSaUlJdu2bdu5a3dBwdGy0nDjRo2G3TjkqqsuS0kKkiLhZhGK+A3lKYKU6Oo+Vyy7OSnoVpfWfiQ3iMj8oxKDGQGJWQAL19uuN+YABIL0LDGwQK98Isb4MeM/qWBMqiKlKtFoxv8kFntE1tWZEBgw4jBLE4VISQxZUTtSXKRNhZhzAxA1XxNW5m6uMmWn2KOfzldVcYInQw9UOqh6tdM0Ear2+ecMVyMCsEIQblRFT41gZEaHpPZ+svAbNrPtUEJiUqS8VBICgDAEu8EYxjPUQCeciKrPdbL5+sUq/ZxmP8+2IQtWCCTIEawTwhQCCmadRAakaUZIsBHyH4tGggGfgEA4EkmWgtFw+4UeSFDoF/zUXqiz6/8ZYfROeIvTfPtOgaT50T6f0XwhokLQiogFEhAJxQAsHFASWAogQmJUgIRALAhVwGQDlAMsFFmKHQFsEwMSgr9aanUAUWo7hYXH8vLyNuzY+umSz7du/z7KtgBu1qRJ9vmdO7Zu1ahunRq1aiVhhac3Go04zEKgEGBIgYaLXEj0+2ZOm5xUrVrEIQHAwI7BDrEERhACANEBkOwYAXRu7pneq5gNoWyKkDCFSrVNRrADTlDjHLRGUURCSCYHwU+G4FRfTZnnFJUbgDb7BNpoKGmLmMoQAADkEt257zjFDy+CE8NFut9CJW9vxd9aQzEDsABEZoMZCCQp0hs+BGQfk4CzTZb/FeyAOMB2hS8OERGEUsyo/IZx9eWXJFev8fdnntu2fVf+0eL9h9YuW75Kv6ZSSL/fZ0qjbp26947601X9LxIADjGRQlDSkIhAhELEgq6neHX1To5ZMHiYOtTcVOymZHr9+9G4gN7pOy5K0FXRglkyC1dnkEd+5CoOjFVQOM7fwLEc15MeQLzajg2nVuYClOvGIEYhhRAKjdXrNzRu2DAUSrSZKyImHKvdeEpt9KOArzP66hRK60fl7FkYAWcULz/NK7sjx2gQGoSMgFRRBYO9VQWSbfD7/OFo6f2PPzDouoHnZ7cloqiltJTQUcW45I0fb6fWE5UQFafAdvxHW6X+nDDZ5Kde3wGTUOPGTCUFIqNAkpIQkNg1sKWtHCmx5OixZ6a/ev3NNzU/p36EiDDmEMA4bBCeVvfOov9n9O5UncoffTtO4UU7/fflNNdV3FeoYQKA5EKMBSCriEGAKIgFMDBIQqlxdmDZYCGg9AX8RorpEwYCAxzZXWwL/wsz5h7cvXXj9/vDEYUUTq+b1rZtl6v7X9moYb2m5zRIkhW+XcVKOREmJCIh0ZRookBEAvKyP5CVKUTN6tUsR+nIhHIcw/AjKAAJJACADSJBNpqoZPWEourVSg2NvyMER4AfQCqIGjEOe3eQ3AhSGIAF+FUElLQMZmGAMOwI6viem0eg3JQUBBFT996GLcaMHwcNOm4y4MS/BSAEwUxgAjuCAPXmkpDRQPb/lDKHv6Y/wPXAM2lvDQP6fKKkPPrhp58u/Wz54iVLDh8+DEzBUCi9elogEDAMiSgikUhBQf6xY8eKC4/dP+bh9+d/cGHPbr165tSrk8EkHMcml0DGNfZ1DuGJZaLGBTATK3YINKBLhwncrRoxxs0heADCE3gGWCOXWChSRDaRD5WFSiEDK4dREjIyMQqqAJRry7GSJjgFMODEUAH9CWlYAxDH3BdMSjkYSqo295/ztmzZ8tKLLzRJyIzajocsjSW9nGoBnRD5HJ+kVCmtID5TOZ5n3vttpcQ2LyW90ldVpdIpprLSmVX7/HPvhh0AArRYx+Q0CtTFCWi4DgkpbYfJUQmJgWDIvOO++x974JGre/8BDckeH8YZ9qVqEodHDXQyf0C8Y+yX8QecDCr/c90dEQFtZCK2kAULh8EGcBAkAgLaWsY6ZAmBSqnkpMCRwvwrBl0355VpHc5tbinyxt+DdoCO68RGTDNYxC8eL5Pl7PwBGg97wnQVnS+jIb1Vp7LSYHpcQCfM2NREQ/rP4+pon/Yr43F2nUJyst6PAkhCRF3tRpCOjJnKUbZPmA6hZEGEIKRpGEkBCYZkgO8PHt6zf+ee/Ye+3rhp554fDuQXHigtWrRsWYesBpdd1Ktrp86d2rY6/mbAit1EJ6WEFIIlS5amgeC6bxFQsqH9QIisdLCNyBSa8xeElA4zIUkmBEloAEYBQBIgIkXDGE5UVB1FEaADTGwZJJEMB8jdoTJ56esoFQuWlqNMKRAkCUcZSoEhECXYQrhV/yrJd63Uq5QP1KCuE4v1Ck0T2ywwADEooQhZMgCCI0CaGnhcylAalwd7Zu3XsQPiXgwAYKXQMAUCvP3uh9NnvLZl63dFRUXJKSn9+17Sp88FdetmJiQEg8Gg0PRwjlNUXLpr1w9LP/v888+XLZz/3mefLG7YqN5ll/a79dZbE4MBx3Fs29aw81N75LTHhplZkfT5T3baGTUBAFKYJgII4fcJKYXAUGKikiHUAbWYzwEQKjBi2pistBgq5l94yLLY9hFj9Jro/paBkAUjIQOyYDfxBoVhMzz5l7GPjh13xeCb5s6cZoYSbaW1FyKiOM7NcOL50gJICyzbtuPLo3nkaFp6ejSo8XnMlVSUln2a1U7z/GhToNL5mhlXM9vE//ZHW7zQjC99G8+Bc9ZNX9zv8yOKQDBkmAYjSUIdIkVGAAcABYAi8gckClOxmPTkuGf/+a/7HnrUb/4lrVpQRaIQy5Q+C1NAD6DmivEYaqtuIrVW0IN8ij1lvJr5uVR1/GzGp4T8LBcnVoZypBRJyYlRaQolJEtHOlIFBQELAYAMAoDRNBRxUlLytBdemPjPf119zY3/enNG9dTqjorpfqysmPW/SqlKpEBaQZ4FJZ+3aKPRqK6L7REDa6YmrW5PSAngjWH8q+FZDJph0DMEvfP1OW6u0GkbYfpbKaV+qeNfycoLBtBgBACT0SGO2jYYRCiVgyY5QdMwfUEHJBuGAiiz+Ghh0bertn751fKtW7bk5+UXFRVm1Mpon519eZ9eZkLyI2MnzJw8sU5NN9JPtm2zLdEUgOgSygsQEpFAGITIIEiTyekAcMwLAAyIkoElethpjfYSRCAYGRUKw7E5avlUsEwoMG076gOBIKnENiQKJRUgsAAbAYStfbDHbclZMRqgWAkF6BA5UTQBCSR5noCKgYofNYwJdTzJ55XaSX/LgIIQABwt9YGYhEUJvmIBZXGQlzNrv5AdUGl/cDx7Bpim+Hbrjmcnv7xw4YeOY3fp1KnfJb175uQ0PKe2YZw44tE5u821V12Sl1+waPHSJZ8uWfzpZxP+d9LSz1eOvOu2C3p0t22HiFBUACd0/qiXphpLYnUtETTMvfsPlJaUGKbp9qmineawuun6Ot2VHdsw/SXFZQXHCrfv3BWxbUcYGq+v9bYbNtBVNDUdQsVh1b1/RVaBZye6ZNkahOACHPV5blqpzkwnACAlTN/w4cM27S+67q6Hjh05ZgYCAABMwCBc59OPgKU8UR4IBLzyaJo5TldP159o5aRlXLx3On774nGjeidXXSdeUWCvXtQJnaVV46Px/2px6VJKxLkuKu2xzkg/KaWSExOmvb5gzYYtRSXlAoXGfcaIB5AQdA00Ak15IRUIpSilRmqNjIw/jfpzmMTYh+6KORE4fvdwwh5UdWxoYys/P9+yLF1SVltpXsl5j//fMAxd8D4YDGrJ7hkH3smawkFTK+p7eQpGF2XWvISafVnbgt6ZmgRMT5NeBqZp6mNvMRQVFVWrVs0j2z9Np84pWiCQsLvUd//EGRAtCZs+spRgh6QSKoDMLBytPIhYuBww5IAIpQZqnXPO5QNvSa9fJzMtEfQWABG9OrXM+hk1y/K2bdsOHz6sh71Vq1apqanRaFQvWm0o6AWmCYM9Bm6vjLUeMT22pmnqD/fv3x8KhZKSkvTjm6a5a9euxMTEYDAYCoWi0aimg/TKQGhGDUSMRqORSMRxnJSUFH3Hw4cPp6Sk6OqOHuuwfr8KCwsTEhKCwaDmAtcd9qpIaMtb/6kXgObnNk2ztLQ0HA6np6frq8V7FOIbAhMyMUdIgUCfGUQfy5CZBAIg6djRsgP5edv2/LB248Zte74/fPTo4YICnz9Up3a91u06tMjKat+icZ2a1RMSQ0EUe/MOTwgEBJNynDKlAsIwBfqEQBIMyBpn45L3IVfEUPXuxaPQcyFOgICoaVDcdwZjJeoEAUpSzMH09tRtTJk/wswmGZZ0BEcMB8J+BDZ8KgEgKtkmEUYnJQ7SDTG7USjpKAwZii2wgP0SjikpDeVnNkhEtSZGJNcSdTOINTpAxKoE448dVIC+tNdAbzAZCPQWD4SjTBTFUROkShK2AyKJVDNh8tklvvwSdsDJgl4IQMSGId95f+GD4546uH9Ps6xmw2+64cYhA7XyJybHsWKSGphJCNeFAMCG4cvMSB9y/bVDrr/2g4+WPDXphRWrvvnuzgdG33nD8FtucRyHlMI4ueOqz1iCfSxASwRgo7j/8fEfLvkkuUaaImBiwUIyMupk0xOPbCVnjk5aJpTAZKINgYS8cvhy8isvTpvGjhMmYcRwiSf07J9RMOBk4QFkJhQMLJgEALMSUgKz7ZAZCBoptfbs2wuRUukL6PCeFxmBSkv++OnTqkULpk8//bRr165azH377beWZbVp08YTKwcOHCgvL2/UqJEWjlqUxDsz9aUAYPPmzWvWrLn44otr1arlCR2PUlBKWVZWtnTp0p49e2p1Er9Bqeohj3eKepKrtLR07dq17du319UF3SGKOzPeVX6ayokZhBBlRUcPHDAIRAXUA+IsKZ3AiYhKgUQGwdFo2C4pZ6FAmBSDEbm1yigm3k68zqqaU7qrTz755KZNm956663k5OR4CiY9Ed52ds6cOXXr1r3yyiu1Y0B/7nl04k/2fMLe1YhIn6lHLP6yXvM8Ot5P4lmof/jhhw8++OD222+PX05nOuaVB0SAbZft2bsLrNKw32+yDyEKqJBCAEAyiiyAWUofKUcAsu2QIUU0dLQsTGiUWVYMhuNaz0AxiEdsiRYUFNx8880JCQmpqanM/MADD6SlpWmr17Mv4wfQGwpvxLxP9Lf6t4888kjXrl29Apj/+Mc/bNtet25d7969L7/88lAo5E2x90O9ngOBQDgcnjBhwr333lu7du39+/ffcccdc+fO1ZeNJ+EuLS198sknL7/88tzcXI/g2asQ4V3fOz/+t4cPH37mmWfGjRuXkpISf3Jc038SsxKINWqkAfjLw3Dg2KFd2w/t+G7n+i17t+3Y+cPuXUGfbFAns36dWkOuuqpzxy4ZNVL8EojBcQhZObZllZSSxNKSMlLAioWUfkSJAkCxq9WFG5wFRNYoa4oF1AXGfKMcQ1mTzvrS6aSaJFBvoGK0f0qoKAt/jXNrpLcgkApAp436CUwb/H4gAJNjDvwTCUP9fioAAjAACIAAJIAN4AONPjiVQf8ztlhwgRWQCdLPYACECZLcdLEzbr+EHeC98EQUM3gYQNjEfkO+9Mrsv096urS0dMigAbePuKVF0yaKSIHGRoKUFawyMYNXb9cptrlhIr60d27b81pPmzb9hRdenDDxhR/2H/3L42MUEYNiJlIgpHSd8fH+AF1jCkAAj33ovnvuHIFC6Ew6EYvZuJ74Ew1uJfGvlakiFAKcaNgXCN372MRuOX+4vGfHaDispOlRWP4UQMcpmjYhFQpkFkACCBAUoU3gDyY4iOMnPe9np8QqU04UABAECeEhXE/2mPFxaAB45plnsrOzfT6fFk96H+kpoTlz5jRs2LBJk2U5NQcAACAASURBVCbxmiaeJVBXpgkEAk888USDBg369evnSSitqPSx3kXp+rlVydK9K8dTplfVKKZpJiYmenusE555pgrJMOTRY0XPPXz35T07n8bpFW3x+q23/+meF5+ZsHDZmuKCAgCNPhEAHvH5SaFk8Q4V/VwHDx7U1e0+++yz/v37z58/f82aNQcOHBg5cmSrVq0WL1784osvtmvX7oEHHvD5fPn5+YsWLerRo0dRUdEXX3zRtm3bcePGKaUeffTRevXqvfDCCx9//PH999/frVu3aDTq8/mWLVu2cuVKn883cuTIoUOH1qxZc+LEiQDw3nvvzZw5s0uXLoMGDdq4cWPDhg1btGjx8ssvDx8+fNmyZZMmTcrJyRk1apRSasSIEUQ0YcKExx577Isvvrjwwgs/++yzBQsWDBgw4LrrrvMm+uy8AuHy8uaZ1d54blxM9p5We/adhXs3bv77+EdWbdi0atlSAEAgwYJBuLtOgV6IKhqNnnvuuS+88IK3wIqLi2+++ebzzz9/1KhRmzdvfv/99zdv3pybmzt06NBZs2Z17969Vq1an3zySf/+/e+5556jR48+8sgjdevWnTNnzurVqx944IF33nln//79e/fu1Sapz+f74Ycf3n333XfffXfIkCGJiYmRSOTGG29s167d6NGjhRCzZs1asGDBNddcM2DAgPLy8hEjRgSDwcaNG3vFitLS0saMGeP3+x977LFq1apNmTLl008/HThw4BVXXGGaZiAQyMvLGzlyZI0aNR599NGioqLXX3997969Xbp0GTp0KDP/+c9/3rFjx9ixY1u0aDF27NgdO3b89a9/bdKkSW5u7rx580aMGOGFVo9fi+jiuhJD2wvC/3z3jW3f/5D/Q96h/fsChtk4s17drNpXX5LTsM5159TLbHJOgwACMJcXlzklR8sQpJACUTEIROUwSoNZguOSQGrOJwQkMAHR4/2vJJZiItelPqv4KN47EDt2GVWAkYWgQEBagpgcYpRCCFYK0SBGRhakJCOwQEmkBJw4XMrMKCCKiEA+AGYBzCiBgUGgzWhqhXFqxNVPaRx7aCYgtA1kAJ9SyhCGlEaMPvOM2y/kD3ANWxd1Rwxok20a5tSZb4yfONkUxug/jbjrnjtMn8+KWqZPy31vD+8y8gkh4/zDggGEYEQhkCLhSN2Mmo8+OKp5kwaP/+/UF6bNKikrfmbiX2xboRQoJCvWRgCz6zD3biABJEDWOQ1+9gfPCPla1K/buXVLjpbZwi/1/vs/BtPSdq9CiQAClGBFDIQGmGbEgaeem7Jv+5Y3Zr1y48h7I5GwfpcIURKQy+18ErdHjPhPq/PMzExvFj755BMhxPfffz9nzhzTNO+6666vvvpq4cKF559//syZM9euXdu6detHHnnk1ltvbdCgwZo1a3r27Hn77bf7fL7t27d/+eWXGRkZzHz33XcfOHDgoosuuvbaa0eOHBmJRIYMGdK3b9+CgoLZs2f7/f7Jkyf7/f5oNDpmzJjMzMwxY8YUFhZ26NDh1ltvHT9+/HfffZebmzto0KCxY8cCQDgczszMPHToECI+/PDDb731FiKOHTu2Xr16hw8ffuqpp6LR6J///OeEhAREnDx5cmJiojt6p+sPYCllwZGjUcs+euSIacawCxppgoJAClYIykB2ABUYLAN/f/75f77x/rN/HXtZzy7/XvQZUAgAGAmRCSTEKqKe7PZVQ9effPJJ69ats7KytmzZopR65ZVXGjVqdO21106cOHHcuHFz5swZNWrUiy+++PLLLycnJwcCgSVLlmRmZiqlZs6cOXfu3B49etSvX3/NmjX79u3btWvXhAkTxo8fHwgE2rVrh4ivv/46It5xxx333nvv9ddff/jw4b/97W/dunWbMWPG6NGjR4wY0bhx4/Xr1wcCgRYtWnz00Ue9evX66KOPxowZ8+mnn7722mtLlizp2rVrjRo1Nm/efNFFF9WtW3f+/PkbN2589NFHv/zyy0OHDqWnp3u+h7N4GwTKqI1h2yovzLdlogG2ZKXQj6QQHRKMIEChNEyHyWZwGCc9/9y/5i+e8tQTl/0h+7PPvxC69BwrZFPbwwDC8w9pd1RhYeHSpUvr1KkTDAZr1qz5xz/+8cEHH/z3v/89bdq0SCTy0UcfTZgw4Yknnrj++utff/31srKy1q1bL1iwYNOmTTk5Obt27frb3/42dOjQSZMmzZgx4/PPPy8vL+/Tp89bb70VCoX0LRYsWDBo0CD9WkWj0ZEjRw4ePHj16tXjx49v167dzp07hwwZMm3atObNm8+YMWPgwIHbtm378MMP//SnP+nY3MaNG++8886ysrJnnnmmX79++fn5t9xyyxNPPJGcnKzdEtOmTRszZsyzzz47bty4Hj16zJ49e/bs2Y899tgFF1wwadKkOnXq3HLLLUuXLv3ss88aNGiQm5v75JNPjh8/vmPHjuPGjfP8EJULtSADQPW66X+bNPXzjxYftUtr1a/dvcv53du3bZieklEzI5QIAIoJrGg0UlRQ7rAQKKVEQwoUTKTcJE1myYiEAsGttajZCAUAoZBIiEAUq+UY4yeWnoCK0/+x1Cs+zkZwwwZ6/ymAfIzgE2wzKpAGgmAWLEQIEAWyZGSpoQjAEqW7rzvJ0kzQ2ybh5pcDagQXm7FKLme6os+god69ArFgwaafmQFR+BikUAwST+rXPWX7RXGCQghSCoUg4oDpe+Pt98ePH+849Phjj9005GoiLi+PBAK+mPucuIL4k2NugLh4sOuNZ0A0TMOybCnFoEEDfQmpDz786DvvvN+scaPbR9xs27ZGDlUMT2zJYAUWAImJ4+53QkT+qVtMDaNg5ViWzx+0FIUj0ahS0dIyWzjiF7EDHJQiZgcoBgLhT0ge+5cJn69YOfsfr7ZpVE85lgsgAq8/ccGSKi0+su5VRNUyIi8vLxKJLF++vHXr1jfddFNCQkLz5s07der08ccfb9iwYcaMGU8++eQzzzzjOE7jxo3vvvvuCRMm/PDDD7pEfZs2bXr37j158uTGjRv/9a9/1a7jXbt2PfXUU+3bt9cxgg0bNliWtWnTpqVLl86ePXvJkiVFRUV9+/bt3bv3kSNHpkyZYprmvHnzHnnkkWnTpu3atWv06NG1atUaPXr0e++9N3DgwH//+9/bt28vLS3Nz89/8803n3322TfeeCM/P//ee+9t3759Tk5OfIDgOHl3HNJdD09szWh8g2H4fabf769iB2DMDiAgZQgJhr+4LFJw6ODUFyb17dGZFAlpuFnDLCpKUBwfFzgh3t7DliPiU089NXTo0IMHD86bN++Pf/xjSkpKTk7ORRddNH369EAgcO21127evHnz5s1du3YNh8ONGjXasmXL119/ffTo0WuuuWb37t3vvffeHXfc0bVr1+eff75Bgwb5+fmhUOj7779v3769VgCjRo2SUm7YsCE3N1dK+d1333344YcTJ07s0KHDZZddJqX0+/3aOqxbt+6KFSsOHDigEQk7d+5MS0t7//33R4wY0bx5c6XUvn37OnTo8Nprr23evLljx44ZGRn6KSq5nc8oWCAQTMM0DJNN0wSUrASagiSgIGRkgQYyo98wTJSFxSXh0tK5M1/t2DrrmO0YMgYb0o7JGNYmPswkpTxw4MCECRMMw7jkkkvq16/v9/tzcnLOPffca6655sILL2zVqlWXLl1atmy5du3abt26bd68OT8/v127dl27dl23bt0777wTDAaLiorS0tI6der08ssvDxkyJCcnp2fPniUlJfrBt2/fPnDgQF2eceXKlQUFBZdccslFF13Uo0ePfv36tW3b9qOPPtq/f/+iRYuysrL69evXvn373bt3FxUVJSQklJeXd+jQYcCAAaZpPvjgg0SUnZ29YcOGPXv2HD16VIctcnNzv/3222+++aZZs2bRaDQ7O7tjx47Nmzf/4IMPpJT33HOPlLJTp05Dhgzp2bMnEe3bt+/LL7/s0aNHWVlZUVFRSkqKxkBUHfyiwweu7t97/L13W9Gy5PQ0nyNYQgTCKlpYWCx0FrYAlMJv+CRrEi0GAAd0hQ2O4Wg4NuBcAZ7WUQDvIJa4V7UbyB5q+vjQHMbl5lWchkAAyD6MxQpi0g84HlvnapvTkfwYd3pFpv+P/+6nNu2SkS5okFFA3BDxWcYlfqm4ABHq3BhD2o4yDWPN2nUTJz7Fyr7z9rtuGnK14zhE4POZbrk+N6tQR1Ixdhl9PY4FZYGpIsNHSgEAEcu6un9vKWHYsBHPPDulfr0Gl/a70LJtKQilwSSETgV0L1Sh+wSKnxja4RjwCBl0vFQgCiEMKW0ppZC/hB1AjEICMBKgRKnYEKZj2RddcMEtt9ycmVGLmZEcr1iT3pAK1FnAJ7ns8bJAQ420b8Dv9wcCgX79+r399ttz5sxp2bKlRkRv3749JSWloKDgnHPOycrKWrt2bfPmzRMTE5nZsixtQwQCgeLi4h07dvTs2TMYDGZnZ+utSVJSkuc0Tk5OZuZGjRolJycnJSUdOXJk79699957bzAYTEhIWL9+/U033RQMBnv37j1x4sRGjRrVrFkzISGhRYsWgUAgNTW1uLg4MTFRCFGzZs1AIFCjRo0NGzZEo9Fu3boBQG5ubnzSXWUlhIhEGsbCEMsjjbU4sXG8xOAY67oulwlIjhUM+GdMeSZMUHA4Lz29JikHXXgAxOrfcPxVq+bfx9thUsrly5c3bdq0rKxs27ZtR44cWbJkSSgUsm27tLQ0OTl5wYIFixYtGjRo0MMPP7xjx46MjIzy8vKrrrrq7rvvDgQC8+bN00M0bdq0zp07Hzp0qLy8vLi4mJlDoZAHGi8tLbVtOy8vb9WqVcysJ+XQoUO6AxpHFggENE6wrKxs69atX331VV5eXjAYnDhx4ieffKL3weeff35RUVGPHj0WLFjw4osvvvvuu6NHj+7SpYuG41Uq/3gK2oMqKx10PRqMIaQxtjdAFuAabqxsR7GTVi1lyt8nFltO8dH81NQaFeVaUWiYuahQQS5exLKsZs2aTZw4sVq1agAwf/58jawsKSnRFozjOETUqVOn119/vVevXmvXrl2zZs2iRYsuvvjibt26TZ8+/aWXXtIWMxHpNa+PtbWk3x0PUaFHXl+fiBYuXPjJJ5+89NJLrVq1Ki4uLioqsiwrGo0Gg0EvQSAcDjNzWVlZ/fr1P/zwwz179jz88MPbt28/duxYKBTas2fPnDlzLr300scee2zmzJkayKmt3vz8fL1UUlJSUlJSLMvasGGDtswSExM9EImHOqwy8KAUZqalp6Qm5h1Vx6yoiBKAYrADyBJMFroCj2BklyQ2lkyrE8QhFrvXsD6MVd3SRYpi8G0X6+9CBU6Im4G4L7DiU/cfzx8AyMCCNXpUupBQgQzEmtknRuryY6vuv6HF7VI1Fb4LYCNgTUtqnp0S+yXqDut8F234KUUo8FhJ6eNPjN+5e89VV/QfdeewqKXRyzrUFwv6nGT648JBlfOhEVEiRh3nin69H3/s0cJjxU9NeuHg4QL9vrm9iEW5jrtQ3PF/ov0yS0zvMXUxbs2LLKWhSAE5vXp2TU9LtUqLACAUCMjY+ZoLN5aCeGIjuFLR3kgkUl5eHg6HLcuKRCL5+fmdOnX63//9Xynl3LlzA4GAUiozM7O8vDwpKclxnIMHDzJzOBzWICYPM1hcXJycnJyVlbVp06ZwOPzVV1/l5OTs3btX4971RqG0tBQACgsLbduORCJFRUWpqamLFi2KRCIFBQVt27ZdunRpOBz+17/+1bNnz8LCQi15CwsLtUhVSpWXlzuOU1JSwszl5eUamrBs2bKioqKtW7d6N6rKalCxaLUVgCf0EnprRyeC6Fgmx0QYuiWwyckrLAmXlgcMQkQpMG7XcYK6t/FGSbxLwNufzZ07d+jQoQ899NBDDz00efLkl156ST+sECISiUQikWbNmnXs2PHpp5/WAPhDhw61atUKETMzMxMSEm677bYGDRrccccd0Wj0uuuuS05OHj16tM/nS01N9WJA4XC4VatWHTt2vPjii3NycmrWrDlu3LgZM2Z8++23H3/8cWJios/nW7Ro0RdffLF8+fILL7ywe/fuAwYMyMrKql279hNPPBEMBm+55Radp2Ca5pw5c958883777+/adOm5eXlejq8B4wf/0qcBydpWFnwg5s5xowucBwAEKQhTSkdxz5y9BhHyoMCWdkcYxZhrhAF3iB7qLrS0tJDhw7Zth2NRnv06OE4zldffTV9+vQbbrghFAqFw2EhRL169f71r39lZWU1btw4JSUlFAoJIYYOHbp27dr33ntPQ2SEENdcc82iRYtWr169aNGi5ORkPchZWVkrV65ExLKysvPOOy8jI+PTTz+dOnXqlVdeadt2bm5uenr62LFjmzVrVlBQsGDBgnfffXfVqlVJSUnMHAwGN27cuHjx4vfee880zfT09L59+xYVFS1evDghIcGyLCKqV6/eZZdd9vHHH2szQi+P4uLi9u3bB4PBWbNmffPNN5MnT77wwgsvvvjiyy+/vFatWi1atAiHw0lJSQkJCV5OUNW4gEAOW45jO8iEtu1HDKAIGIZEgUCCSSIhO0gkkCQ7khQwxYBWJzX1qszoz9A0gzqjskSZJSxbsBKoBCpkRiQ0AaVgQ4AhWP73/4csBRuoqZw1Uz0hK0DSUtxNQjqLgfqF/AE6iwoRHEV+n/nOu/O//vqb87uc/9CD9/t8wrYcwzCZ2TBkjGSQTseu8SSmYRja/2MYhlJRRTz0huvWrF6/8MOPn5/86vhxYxyFggHFcVSDv7OG4KWaaqcEEoAQCAglhSUgSGpTO6aJvUIIMVP9xIGBeEC+EKKsrOyuu+7y+/3NmjULhULJycnz58+fPXt29erVb7vttrKysueff/7xxx8vKyu77bbb6tSp89BDDy1btiwxMZGI0tLSNLwcAOrXr5+SknLHHXeMHTt28ODB/fr1GzRo0Pvvv+/tjUzTPOf/sffm8VEU6f/4U1XdPZNM7oQk5ICQhBhIAoFAgCA3yuHiAQIeiOsFCh7osgpG5beKiFcUcVlwFUFZVkVRFAUE5AYDcgfkSCBAuBJyJ3N0d1V9/3hmmiGgixf62d+WvGJn0l1TXedzvt9JSZqmtWjRAgCCgoKCgoImTZp0//33f/TRR+3bt7///vsLCgpuueWWvn373n777ZMnTw4MDGSMNWvWTEoZHR0dHh4eExOjaVpCQgIhJDg4OCEhYeTIka+88spHH33U0NBgJS/4b0zn8wzR7mRZLv9j5/sUeLRDSkmAEs65QhhTiATBrLBSL/gQWiiJFyjMMm36zkJ/8BmMS0Bt8s9//nPLli0xja1r1675+fmapiUmJiqKMn78+I4dO65fv3779u0vv/wy5mLggZSRkdGrVy8MyDh8+LCiKGPHjkVX/ZIlS+6999527dp5PB6bzTZ+/Pjo6OjAwMCXXnppy5YtGCsQGhr6zDPPnD17tmXLlpTScePGrVixwmazzZ49OzU19a677vruu++Sk5P79u1bXl6+fft2VVUnTJgQEBAgpWzRosXp06eXLVs2fPjwjh07zpgx46677sKZ0AT/GzVXehkkYZcaAJTILIphICAJIUwAVRUipJScUkYJQ/3HxyV/fppbQklUVNSkSZOwSzE/9v3339+6dWv//v179OhRUlLSt29fKWV6evp7772Xmpr6wAMPoMFg7ty5RUVFzZs3nz9/fkJCwiuvvCKEuP7660NDQxsbGxcsWJCamorDOmDAgDvvvPOuu+7661//GhcX161bt82bN3fv3r1nz56VlZXr1q377rvvPvvss/Dw8H79+q1evTozM3PgwIE4lMHBwfPnz6+qqgoNDc3JybHZbCtXrqyvr//4449DQ0Pbt2/fqlWrDh06bNu27e677+ach4aGtm3bVgjx0EMPxcfH9+nTZ8uWLSdPnhwwYEBSUtK6desOHDjwxBNPREdHf/LJJ506dfpBOUwCAAgwtcgARVUibSpVGTS4XdxoZFxVGUa7EMYAOKVMcs4IBQqmKYCwHwtF/m0KjjAeEVIyEIA0H5KYyGJIJMVoxEsgxl6ST/wXZnZZO8DPrN8LV+a1BFhIVxQhBb2kmj8nB6dFyzYAcKx0/0/v5MstvoMEXG63zWY7efLsLaPvO1Z6/PWCF2++cZDL5VI1lVEmfQztVlKE7/KHDfayCd4WARCYHKtptvWbvxt991iFwEcfvt8hqw0XQvHlnv0WViArPoD44gOG3fHAoOtvuGv4QHdNpUFtv7VfwGoEWLugFzBBSEEIBaGboZERXa+76fZbbn7ojtuFKTgjysXTtEmVfsA+/llSVrmcjdtKKLdSk9G87J9K4I98YiGa4Z+sO/37zz+/wLoN3eeGYTTJMrAqX7duXWlpqcPhKCwsfO655zRN889pxLxtzIYwTVNhClAKXBeECUI1Cg3O+nY3jZ8ybvSdN1xTVVVtxQf4978vCxOnJAEhCCFcAuOu4IiYh556OSE24okH7zEMXVGoJMxvihN/bRgPDMwx8wdHwgxyy1SD74VZ+5qmNRkOfOrAgQN///vfp0yZEhkZ6d+r/gOKpmP0C2D9zBvDBZjogcmiM2fO7NixI/pWrD+pqorD4f/tl4RnEEKsXLmyZ8+eFr0kdjveb43aJVcJ1nOi7PTw+yZtWjavsbrCUIJUMJnkHDQCggohCBXU51T02sgQPZsAdwWERU96aebO73asWvSuYbgVpoGXpxwBZ4RlerESJi0sCmwDplTgHEM4BGtyXjwhLawt/550u92MMVVV33///aioqEGDBum6biXd6Lquqqp/d+GI+3epP8yR5WGxsB/8wQT9u1HXdU3TUNHHG5osOqfT+fTTT0+ZMiU4ONiKC7bGAleEqqov/n3OZ8vX3nvLzZHNIhKSElNiEsNDbQDgMsCjOw3uIVyqTBHCACFsChUSCGEmMAICvEiOUghhU5TSM5V/uvORjZ/MaR7TzBCSAaEgpDdXAKlYpE9itqB4sU0WYst5P4O07vTCqniJeYngICRIRQopCaGKkMQwpaITpgEo4nyewf+BIkESTiyeXABCmCmlACIl2JWfecJcGXsA4PpSFIUS+uHHi7/bvuOGIUOuv+5aw+CqQnyJotIfbo+QJtb6S8aye0UBf6uqlIQx5vYYPfI6Db1p8Lvz3nv/vYUdX5nqs0IC/QW8TH/kguwIXpR7jJYiUoAESShBFgtc2FRY+QFEYKwJojkAuUA/9gf/QfwAQojL5bI8u/47oLVbWbhAuLVZQISUUo/HY50uuBvikFigeHjSWN9oGIYVsYy2TZQksG12ux11YtzdrOgz3Nrwuyx4VP9NtqGhgXM+btw4u92Owo2/M94CitE0zTQFCMnIZSCzAvi4KhHKBO0CAmFECBEEGMYFSMJ8eqhv2gNFk8AlqvUl3KJ5AHvM6XRqmoYIMAgAh7ZixPDBpAkL+Qd7lTH24osvBgQENIn0xHuw/xGUxu12Wz1p9b81yoyx++67T0qJ+Z+KolhCAEoPFu4e1mABQvi/0dVXX+0vr6CRw2az+SNK/dwlIH3RvhKj1UAiTha6a6ggUnqZ57x7KvjYOXHTsc5ya5r5BwTgCY3XOLXcbreqqjgEmqZ5PB5LMrB8+dapjGsBh0YIcccdd5w9exZb7g++hKNmHdiWQciCikIppAlqp9VCa6laaxnfApeJJc1bBif8OpTGnnrqKTTd/UAHY3CcjZghO3YdWfndPyvc9alxKXHRMRnprXt36dkmMzUwKNBOgSKDsKlL0xDckJx75zfxhh0Q8LK8Sj/HrJcRkCBSkABpUaKeT80GK/Hc6z+WltDoOye8n3uVSQmCEE6BCUEUSXiDhDogHkoUmwwiIIEJL/aOpaz/+Fr3t5Vc5iM/fs/Foenkwr/6A8wKkBRpsk2gQkoqiUaEwiSRxAZg/0/tuHS5MnmDhBAhBaiKerq84pt1G8LCwh966H5NpaYpGGEAQqBU7osZ8gv/sDrpB0xVlpAgAMFAJAfCvHjBt91+y/IVX2/7bteRI2WtWsVzLn4VcNk/ZrHCKrxyMRr/fevI+sTydePCkkSgVoaxppbeY23TuB8xxlBLtlR5dMdYmjfuRIwxaxutq6urqKhISUlB1cpficFT3DoD8HzCL8K9zwJTa6Iqcc4tdJTly5cPHDiQc75y5cqrr77aqgS3XQvr0MJj2bdvX3x8fF5eXl5eHtbAOdd1HR+01B28rq2tXbRo0dj77hNAfaBXl9352MMEpXYipaDCy2SN956/8Nm9fJgoTd3VQohvv/22S5cuCDKDxVKa8R3RPDBhwoSRI0d269YNAKw3sjo8LS0NL1ApxGsrRxx/1tTUFBQUTJ48WVEUC7fYagmec8uWLdu8efOUKVMURcEbfFG6bMaMGZ07d0Y7ga7rVs1NlpvH43E4HFb/W6BDI0eOfPvtt9H//dPm/flWAiEUbaPeYA2KrM4SQAqiAjCQRPp5A3wmVu+h4g9x7Y+9Y5mmcIb4vw7eb81PHBEEELQmKgC8//77Dodj6NChlpKNKH4RERHTp08fOXJkq1atrJtR4MP15f9+1ohYExXL999//49//GPy5Mnnzp3LyMiw/tSk5994443c3Nyrrrrq1KlTGRnnYfytKYHwQSj8XVoUwGDGqrPXD+kzadwt35eMKKs5V3z46L7DR/cePrB208bGyprw6OjE+NikuNjsrIzsNldFhIYEBYer3uhLj2mahsm5oUsJSAmHxhgLEcCLH4j/IwR8AOhe4BWrEb4kJ9/S8TbQe2D48ANQFuQgTQIMDMIaakpXVmycExV4zqbXMVMVjEhqgpU05a9OSysn4ILoKUkt+hbpXeNeYhfLrOd/5l9cS9Oj5+Kj/4cKtlDIQAICpEGAg6K6PZQqoaZUI4dNgoA//XHzBc4D7Uh5YVaqJAAAIABJREFU5HjZ9p17OmRnZbVNRWg2E7l9JBe+RD5fd/ojrv6Ig8X3CfEC7YKqAIBGKUjZMSMjM73NilVrlq1cNX7sn6UUVyY08o9RhE9mBuHDtgRMW/e3nwAzTZMyAABucsMwTpw4ERQUlJCQUFhYGBMTk5SUBADHjh3TdT0uLg51wZCQEF3XXS5XeHh4fX19UVFR+/btUUHfs2dPy5YtY2NjR44c2adPn8mTJ5eUlNTX12dnZ1uw55TSPXv2aJqWnp4OAIcOHWpoaMjOzkYlBtOWDh48qChKSkoKAFRVVR0+fLhTp06Y2F1TU7N3795HH31048aNmqYdPHiwd+/etbW1RUVF3bt3F0K43e6SkpK4uLjIyMht27bFxsYmJiZOmTKlV69eDz30kGEYW7ZsycnJsdvtAQEBR44cqamp6dixI+Ihnjt3rl27dm63e86cOWPvvZcwAHFBbtFP6X98iApEqsAwKwF+XCTUNyEvkaaKKprdbq+urt69ezdjzOVyRUREnDt3Lj4+PiwsbPfu3cHBwZzz7t27nz592uVyOZ3OzZs3a5qWlpZms9kOHz6M6n5oaGhdXV1MTExaWtrmzZtdLpfD4ejatevOnTt1Xa+urm7Tpk1tbe3cuXPvueeeFi1aSCmPHTt29OjRqKgom80WExOjKMr+/fsbGhpOnjzJGNu9e3d1dXVUVFRmZiYC4tbX12/cuBEAIiMj09PTKysrt27dGhAQgFmgu3btQjmvd+/ee/fuLS8vj4iIyM7O1nUdQxAOHjxoncE/u0gftgwBoD5sZ47OAZCUcCpR4JV+j3hLk/xYQkhhYaHb7c7Kyjp79uypU6fsdntubq7H4yksLLTZbE6ns127docOHerUqZPb7caLDRs2uN3uiIiInJycAwcOnD171uPxdOzY8YMPPujfv39NTc3u3btN08SgPErprl27Fi1a1Ldv39jY2A0bNtjt9tTU1Li4OBQFysvL9+3bhzUQQrZs2RIdHc0Y69y5c2FhIRohWrdurSjK8ePH8RFK6YYNGwICAlwuV7du3Q4cOFBZWRkYGNiuXbvPPvsMAJKSktBaVlhYiKEbrVq1WrFiRWhoaENDQ7du3TDU99L8LDibWUB9Qx1I0SI2MjmpZf/sTCmI2wTucVbUNxbu3Llmzbotmzcv/2ZteWVNdPP49tmdMlolJSc0a9kyMTIsNDwkOEyhAEJ31wqzjjCP5EIgdyRRiDSF1AnYOFeEQoCAAoDg2xJpfAlIhYDEtBACINFgQqQQQFH0A0IoGs0FAJWUEI0QIhUpIyRvCK9cF+aWnHtxA0GAUIiUUjFBMhAEFBOEBFMlmiElA5BeJmHMQhEMGhQADTQdbCaAHmAGuqgE1hgkbQ3e/HY/NiEiwSQABJi8IDEIazOpj2HGB0Ts/ToJ8uKACgkWuymnQE2gAMgzeJolmWoz5YIZ/RMKCw1rBgCPThj/Mx6+3IJSFiVAyDvzFq5Zu/7WW0f0793TG9pICZEox1OCBmpC8IIQSgmFH7ggF1wAIYwSKgE/8YUdEWhwub9euTIoLOraPj1sNg2Fj18Ca/pjL+qNFZOCc6aoH336Zeur0jtkpJpulyCKN0Hmt7dFWLqpF6DLF+YrhAgICHh74QftMtt2aZclBeJOSEKZZYGcMGFCWVlZamrqW2+9VVZWtnPnTofDUV1dPW/evOrq6ilTpmRkZLzwwgsDBgw4fPjwggUL4uLipk2bZhjGqlWr8vLy3n333YqKiiVLlgQHB69Zs6ZVq1aKonzzzTdHjx5dv359jx490H7w/vvvHzx4sKioyO12nzhxYtOmTYcOHVq1alWfPn0opSdOnHj88cdra2u3b9/OOY+IiHj22Wd1XV+0aFFmZub06dNRKFm7du2wYcNcLldUVNS333771ltvMcY+//zzTp06TZkypbKyMiYm5vXXXy8vL9+1a1fr1q2XLl0aERGRlZX15JNPUkqXLl3av3//JUuWrFu3DnGNHA7HwoULEVonOTn5k08+ufvuuyUG+FMmJDACuqH/48Ovendun52e4nK5GWsqVvp1vnesveoLUCJ1e4Bj2eotoUH27l06CsEJRe7BC3CEmszMW2+9NSIiYsKECYhUs3btWofDMXPmzNDQ0FGjRvXs2XPFihV1dXUulys1NfWrr77av39/UFDQunXrFEV54YUXkpKSpk+ffvbsWZvNtmTJktjY2Llz54aFhW3YsCEsLOz111+vqqoqLy//8ssvY2Njly1bdvPNN0dGRqqqmp+fv3z58nbt2r377rtXXXVVeHj4sGHDevXqdfbs2ZiYmNdeey0hIeEf//hHWloachx89dVXJSUlDofj9ddfT05Ofuqpp9LS0nbu3Llu3bqSkpJ9+/aFhoaeOXMmODj41VdfjYuL+/e//x0YGPjxxx8XFxebprl8+fKHH34YnTKXyFizupeQurqGRV+sumfUjYbbKajGQFCQEhiREqiQBMFAz//njeAkQLmhBjhWb9x69szpO4bfKAQnTMH7gXq9OpaTiHPet2/fmJgYm822ePHiwMDAZcuWcc43bty4adMmm81211135eTkPProo3fcccehQ4feeOONyMjIhQsXRkREbNy4MSAgYPbs2VFRUaWlpS1atPj666/T0tJWrFhRXFyMAABooTl69OgXX3zRq1evr7/++sCBA6Zpvvjii4MHD0bgrPz8/Pj4+KKiomXLljU2Nk6YMKFr167z5s1TVXXatGnl5eWqqi5btqx58+bHjh2rqanZtGmT0+n85JNPIiMjjxw5cu7cubfeeqtt27ZPP/10dHT09u3bW7Vq1dDQ8N133508eXLz5s2c83nz5rVp0+amm27q1q3bJ598UllZmZubi119MVmoEJIxumbDVlBsffI61tXX66YQutswTS4II9LhcLTPyrhh4LVDhw0bcE2/Xj26pyS1dNVV79616+st385f+OHHn32+ZevOXUUHz5RXR0a3sofFzv/Xoofuvs1utwvK0GYmgAiiMCEoCEZASi4J4ZRyAjojnBIFOJMCESABAAgF4nVuEgLCu/Kk5XYQhFI0zVGq1+yGkuWBdiEJIwwI04jGOAClQBVknFUIE0QBU2VEkZSBqQJVgCsgGRAVCAc7gCpAQcMjYVLjCIksVQGUCJVxxoSiSEYIA8KAUkYYpRRAIcCIUChXKGEUKCEKEEooJZQRoAQYoZRQSvBOQgnBn75/wAghjDCQjFCCd1JCoUGJdXQYRmnczzthrog9QILlTv5mzTc2u61dRjqjYBoGY5RK5iVk8TpAiM+MQizvzyUvLFhAZJrCZUwBALivAiIBBl3b92mHY/fuXWWnz1yVmiwEl36y/5V4/StezgcK+hCDkRfXi8vllwMnfQm2Judoily/fv0XX3zh8XhOnTpVUFCwbNmyFStWHDt27NZbb83NzX355ZfLy8v37NljGEZtbe3x48eXLVuGYeozZ878+OOPt2/fft9993Xv3j0kJCQuLq5fv35ff/31kSNHZs2atXXrVpfLZbPZjh07Vl5ePnLkyOeff37Hjh3h4eFxcXGTJk3asWOH5b8/ceLEzJkzd+zYsWrVqp07d7Zp02bMmDGjRo368ssvS0tLR44c2b59+1mzZmVkZMydO7dDhw4VFRXJycljx469++67V61aVVZW9thjjxUVFW3ZsmXNmjWLFy+eP39+dnb2wIEDP/3009OnT8+YMePVV1996aWXysvLb7311uzs7G3btuXn5z/wwAODBw++6aabENVYCkEUkOKygEUu6nzrPEc4FJ+F8HycOvHFBxDfNbHMudbP+Ph4RVFyc3NHjRrVvHnz3bt3jx079pNPPjl79uyNN944cuTIuLi4uXPnxsTEnDp1asOGDcOHD+ec7927t3nz5gMGDBg5cuSuXbsSExP//Oc/r1mzZseOHQCQkpJSVFS0efPmli1b3nLLLVddddXNN9+saVpKSkpmZiaGbgDAdddd17dv35UrV6K3G7MPHA7HBx98EBAQgJw3ixcvbteuHSEkLCxs0KBBqO5v3rx5xIgRRUVFpaWlZWVlL7/88qRJk+Li4u64444333yzoaEhJiaGUrpgwYLDhw9v3rwZAD788ENd1zEi8mfOe6/ri1zgePElC2OalfTzi/nSyryZ5hczV0VERDzxxBOffvrp2bNn+/XrFxwc/O23365bt+7TTz+NjY1dtGgRpTQhIQEdNAkJCTt27HA4HK1atdq2bdu+ffsSEhJWr1593333paamNmvWLD09vVmzZvPnz8/Nze3SpQtuiS1atMjIyIiMjFyzZs0HH3ygaVphYeHu3bt79+5NCLnmmmtOnz5dUVFx4sSJ7OzsESNGjBw5Utf1hQsXNm/e/J577snOzh43btyhQ4eQvigoKGjFihUTJ05MTU1FM1teXt7mzZvPnDlTV1fXtm3b9PR0m82madr27dvvueee9PT0Y8eO7dq1q3PnzohGtWTJEn/ejSbQ3T43tcREDEqppF4cLGQGBsPtqnFzIU0JzRy2+PZte3TIshEAgBPnnCXF3xefOFN0oHjj9t1fbtxaMO/fBGRZjfOtfy9pf1ViXHLrVgmxgQpjGMbEADgILqQECQKoYBQYAZDcR6wmJBAAhnnPQhJKBJVeGltTCkZ9IQgYLQLSByfrTQ4hIHWmSo0yYRCgpgBFakCoUFwCiMqZoQE1iWTI6E6kN/AaiBREdXDdRaAeQJcmWpkM9PJRzokkQDjxAlQBSI76AAcQhEqgUlIBkhLJpHmeYkj6GBP8NpELDGTyfMIrvpT0/QZSkF9gS7ticYISAIqPnjhRdqJFixapya0AgFABxEuJB5KCxZR0YSCGL1RA+l1eFKAhvUYTAhIo9/mIKCE0JDg4Kytr174Dp89WpKW0ahLG/F8pDVgqqe8X3wfE/wYAC4HB5/6klIaFhQUFBRUXF2/fvv2aa67xeDy33XZbeXl5ZGRkYGBgTk6O0+kMCQmhlGK2tMfj2bBhQ69evTBzOj8/f9CgQS1btpw3b57H49m9e/dTTz113333de3adezYsTk5OYiacvDgweuvv378+PFLly6dPXv20KFDc3JyxowZg7i2dXV1N954Y2BgYERERGpq6pIlSyZOnOh2uwcNGlRdXR0aGhoUFHTu3Dl0lJaXlxNCEhMTHQ6Hy+UaNGjQ4cOHU1NT3W730aNHe/fuzTmPjo5etWpVYmLiyZMnT58+3b9/f5fL1aVLl4kTJz7wwAORkZGYgFdXV4dW0+jo6H379mmqike5d6+7vMTcCzvf56wifof/BaY+K1fg/LD4x35bUZMYFVhZWWn5njnnGAuJgEs2mw3DA/v27RsYGJienl5cXFxdXW2apsfjMU3T7Xajjzk5Obl79+5hYWEOh+ONN95wuVz19fUIPIAubZQI0Q3BOa+vr4+Li7PS/FRVrampadOmzbXXXouzwsrzRFY9u91eVVW1e/fud95555NPPpk3b16HDh3+/e9/l5WV3XnnnSEhIRkZGT169IiJiamsrHz00UcbGhoQ3fnHWcIvd+r73IP4uw9mnlh/9Ot/LxTRea2DnJfD8No0zaqqKpRoW7RoYZrm2rVra2pqYmNjPR4P5xzZFE+ePImulpSUlKuvvjokJCQoKAhdKo8//vhXX32FREHDhg277rrr9u7de9ddd7333nuRkZEej8cwDLvdboUBNjQ0YD80NjZ++eWXM2fOXLJkSUVFBSEEAzw55yEhIbW1tbhmEaQBaQvwQYQs5JyvWrXK5XJNnjx5/fr1wcHB2EJM2LHc/9XV1TjNEA/KmlHcpxhcaDS1dhJyvgcJ8R6OEiihhuHRFDVAVSQRzupzTFHrdJ0xGhVgS+ya3bsrc5rCbfCaemdDY92eooOPFrz15derFi8sa2Q2ImhqUnzvgf3atU5NbBYVHxOjaSq1PLmc626TMiIV4lMCqS9sUDICIAUQQSShhDKietAFKSWT3Bcc7kUtwsAEBrBbRsz+oJzUCaAOnTrcpFIyU2dEJ2qUy13HghhoNlmng40SKiRHU7KURoTmvLlb1DUtXMQ0KYBJwNCkxoESH0ytAEK90ao4xwQFjkjJUjBp+vwa4D35vOlu4A2SlEAoSCvBwm+GE1/CN/GhKZMLB+VnlCsSJwiAI3Dq9GmD84QWic3j4zgXUhDhJYmUIDlQeZ699dLcu+J8CIg4fwE+wR8rAY4iAZK6cqYobTOzNn+3s7K62jr5rLCgn5Op/N9VMKjdOnicTie6D3Jyct58883S0tLi4uJ9+/ZVVlYahlFUVDR69OjGxsbg4ODjx4/X19cj8Oqzzz777bffejye+vr6AwcOTJ8+fdKkSc2bN09KStq+fftrr70WFBTUpk2bPn36pKenb9y48fvvv9+xY8cbb7xhGMbmzZsXL17c0NAwZMiQgQMHtm7dOiws7PPPP3/ggQeqqqrKyspyc3O3bdvWpUuXxYsX9+3b1+I2jIyM/P777zEzfuXKlXa7vV+/fl999RXiEGiaFh8f/+GHH06ZMuX06dPNmzdvbGxMSkqqq6tbsmTJmDFjNm7ceOONN27fvr1jx46U0h07dgQEBJw8eTIrK6u8vLx///4bN2wQQjD0PJLL5bP55cUfS0cIcerUqfr6+tOnT2P4XkVFhaqqx48fx9THmTNn7t+/f8SIEfPmzevYsWOvXr1eeOGFFi1aVFRU5OTknDlzRlGUqqoqBAQsKSl54IEH1qxZU1BQsG/fvhtvvLGystLpdBJCjh07hmw333zzTY8ePaSUFRUVERERjLG4uLinnnqqZcuWZ86cwcCLv/zlL6+++mpBQUFhYeFdd92VlpaGINNz5szZuXNneXn56NGjn3/++VmzZh0+fPjs2bObN29et24dYywmJub6669ftGjR66+/vmfPnoEDB95+++0TJkxIT0/funUrHjwW0tTvVayeP3PmTENDQ58+fWbMmFFQUHD06NFu3bo98sgjb775Zmpq6t69e5OTk7OysvLz8xVFKSsru+GGGxYsWFBQUHDw4MGBAwfW19fX1NSUl5d37NjRbrd/9dVXqqoWFRU5nc6rrroK41Kjo6NdLteWLVtuuummxx9/vEWLFg6Ho3PnzmhjKCsrmz17tsvlOnr0KGNs+fLlb7zxxq5du8aOHTt9+vSCgoJWrVrFx8enpaUtXrw4Nja2urp6yJAhBQUFWVlZoaGhhJB169aFh4dXVlYeOnQoMjLygw8+6NWrl8fjycvLe/PNN+Pi4gCgc+fOU6dORYrqyspK3AcsptCfsENKKQhT7UGcc9MQQpg2zcYFDwqwc2ma0l1T7aJAFKYGAnFo0hbWLEpl4cK9ZN7ckKCgLfsO7Nmz7+zpk5vXr1k4/0M1JFzaZGxEZNurUtu0TEiOa96xfXst0LsMTcyo5JKAUIkgvgNDAKGS6B7zTMXpxMQEtxA2ACK9ET4XNpZIBuUV0ZWnG28fGAVqvWIqNtXBTCZMm0cNDNaPVQclgqc2yFS4DUyDqjYqTbcT7EqgbeOWsuIyfUC64tZB43ZVeCQxgACXqPErwAgIU1FBck4EEAaCECkpI6aCrIUYMEz9jjMJkhIJUnBg7OcF/P3MckXsAQAYkn6i7ERjvTOpZavIkGAAAHZl9laWnd2+vq6hrrrGq3D8LOL5/9aCpIsoTTHGUlJSnE5njx49VqxYcc8999hstptvvjk/P//VV19dvXp1bW1t8+bN//KXv4wYMSIxMTE2Nnbo0KH5+fn33XefzWYbN27c4sWL33nnHSnlww8/fPTo0a+//rpXr15vv/02otOkpKToup6Xl7d+/fqHH34YAw+PHj3673//W0o5ZMiQhIQEFM48Hs/48eOllPfee2/r1q0feeSRBx98MDk5+cYbbywuLkZIooiIiOeee27o0KGqqmqa9sUXX5SUlLRv37579+7r16/Xdf2aa67ZunXrmDFj7HZ7fn7+V199NXfu3EmTJu3du3f8+PFBQUHTpk1bvXr1W2+95Xa727dvP3Xq1AULFixdunTEiBF9+/b9eNEib3S3kJL+EqvbzyyoleIZnJSUJKXMzc1t06aNaZrTpk2rra2Ni4sjhPTs2bNPnz5ut7tDhw7o/i8rK8vPzy8vL2/ZsiXn/M9//nNwcDCiynft2rW+vn7Lli3XXXfdkCFDFEVp1aoVY+y5555r27bthAkTDMPA7x03bhwC2d55553vvfdednZ2ZmZmSkpKYmJi+/btH3zwweXLlz/99NOZmZnIcz969OiSkpLdu3dPmzYNgQuXL18+ePDgAQMGJCYmhoSEVFVV3XHHHbm5uZGRkV988cWdd97Zp08fAHj33Xfr6urmzJmDiAK/+3rEBlBKZ8yYQSlNTk6+++67lyxZ0qNHjxEjRuCfqqqqwsPDAwMDp02bNnv27K5du3bv3r1Pnz5Op3P79u033HDD4MGDN27c+M0336Dv5siRI2vWrGnbtu2hQ4d0XUcmQF3XQ0JCHnnkEdM0BwwY4HQ6UZbCfJnAwMAXXnjh888/v+6663JyckpLS5s1a+bxeEaNGtWlS5fKysqsrKyQkJBhw4ZFRkYiZlddXV2XLl00Tdu0aVNmZmb37t3tdntNTc3s2bM553FxcatWrWrXrl1KSkpubm5lZeW5c+eeeeaZmJiYZ599VgjRtWvXpKQkf5bwn7ZDEsIJNQUhRCEEKFO4EIQRQ0gKNmIShQpBJJfAgQsiuems0eu5MOvqG4Mdjq4Z6d0y0rEmE6Co+Ni2XbtKSkt37tozf8GCgABHTHR085DgjJycTu07tkqMbRYVEe6FoMWf3BBSCFA4aaj33HnX/ZOnPHlNjzxdN1RJiEabBNChB5qSgHiH0jMzZtnGk72zWfGhWsUT0TlDLik8fUMPc8aG0pt72A8UeYKFM+mqltt2nO7ROWzRyrJ+/bKqE0O4h0sOVACRgkjGFYNQkIISUwAxKVVMwQlngMlYAFIyQiSVACYQApKDZExSjpFByMULjAnOgXjjHZsmEP5m5UrgCFmZx6+9OadgxqyOnTt379LZ8LgUApIQARQIoVL8wg3AQh/y+cUlEJBCUMpKjh5f8sXypydNeOiBe7w3+1Fp/Vr7zh8CR+iH2iYlocQ0eHh4WJchQ28fOfzhUbcKU0gFmBSIK4AJYLW1tUFBQZijvGPHjqioKMwXOHr0qGmaY8eOzc/P79ev37ffftuqVSsEo62vr9+zZ89VV10VFRXldDr37NkTFxfXokULj8dz9OjR9PT0kpKS6urqnJwcQggi1jU0NOzbty8tLc3j8cTGxh44cAD9l+hr2LRp06effjp8+PDo6OhWrVoJITBfoHPnzoqinDt3Dk+18vLyurq65ORkVVXnzp3rdrs7derUpUsX0zQbGhqQfRUV/djY2Pj4eF3XDx48mJ6ejhD97dq1czgcjDFsXkZGBtoDzp07l5mZKYSora2JCI/kQBRiSsJMSf4zjtAPdT4hXFLCnaHhzR7Ofy2heejjD95tGIaiMIn5Mv7OrgvphS4GU8JEr88+++y9995bvHgxAgZgrqCVxon9fHHymH/eoP/1JTNF/b/Uv/iriWie8c9qu7hm/2I1FW8jhFgP+lsCfg6OkBSECEGoZfCzViXy2VPTFRAWNfnFv+/asf3rj+YahpspNklIk0xi//MPQSysDED/Bg8ZMuTZZ5/t0KGD1Tx/HCGn02mlel6MaoUf4mtaebbYz42NjXgzEnlY9y9cuHDHjh2vvPIK3jxo0KC33noL16Z/QdQp/xe55Cj4NwmnitUAC07KGmI/HCGuqsrT02aCLfC5v9xTVV0Fit0GugTCpcqkwYniVfsoISC8qbBScqKYVCVeNFxBQAKXmspOnDl73Z0PbPx4XmxMM0NwySURhkmFwuwas+CtZHl1zZnq2qMnSo+Unth/uGTfrn0N9TVRkVEBmtI1t3O/vn1aJ8SGhATZ7QHW2779r8Uvznx92Uf/So6P54ZJbSrlkii0tvhd/tUDEQ6PwZlK+IeNXb/4Yv/kOzoU/Ovw6D/Fr9xaZJoxN/R1vLSoavYw5/D32LN3hK/5FhzOsna9O3z22YG7b0l9adbOx+7qtPPgceqWD/SqEfVuAABi96imwk1CmUIAdA4AYGOgcw8iVQkQmgacE9OkJgAlQgtoUCKC+SmQQgoAyYBSE4CAoIwI3dQUr6bKBVAKjBAupJCgAKVMcAKUA5EgGSFSnmFp0X9ewJTOUnrpY39SuUJ8g6hhKEyprXWuWLV++cr1wnAzEAKISVQAgvGfxEJL8HMGnHcQ+MMpXOLCi7KAIR1USCoFpQCEMap4DNPt1rGP5IUxQVemB/7AhUjhJWUmhERGRloIKp06dcKdBQAwv3no0KGxsbGoOuDDpmkGBwdj1rhhGIGBgfgnzPtPT0/XdT05ORkdkOhdNgzD4XB06dIF/c2cc8wexIxENPh37969S5cuFhxbVFRUVFQUYq1ERUXhVhgXFxcXF4cIBGlpaUFBQR06dPB4PIqiID0Mpszl5ORY7cnKyuKcc86vvvpqvMHtdmNqIufcMIz4+Pj4+HjDMAilUVHNBOeUAuFCUCIvm+r+1yo4Rd1ut4XTh+5bRPsZMmTIgAED6uvrVVVljDU2NiJQDPZYQEDAsWPHiouLc3JyNm/eHBAQkJ2djUQyiIiHJw3n/LvvvlMUJSsry4KuQ0QgRMjBgxB8wNKKomCwp38QGeb7Ia+jw+EoLi5u3769EALzCVGmxCQ3VVURdceisUFEKTRE44tc4U7+oW63sJKwV63QB+xhIcSnn36K91hwPQh3gToPBvxbApPH40GYAQuDCDGshBBIZBAZGYmVI5oTrsHGxkYUO77//vuBAwcOGzYMqRnQ1uJ0Op1OJ+IO4dJDHCHre/1/+qv4OIWQ8gMBP3B14DtamQI/1R5AQFLgUqJnm/u4gCUQYKArQsc0vTJLAAAgAElEQVQoOiAU8zuBUAlM+uiGKCXCpKoKjOrC5G6PSRQBgtk0NTYyPDYyPDvVK/S4DePEuZrCbTsKv9u26+Dhpd9saHQbCS2S45Jik2MjM1PSUhObDxt548YD+yY8P3XpnDkglUvEnUgCFASQYCmCeG2A3Qz2QDBlus0WJAJsQcxGZGhgmAoQpMowzR6kklBNCVKCw6kMNBqkdHtIlGQNBgNNAIBbAyACiM12sNL+fW1UnZsmOupzWuohogICACTIWg8JJF4mIKEeqw1sMEMig0+DAqBR8EheZ4Jhs9kNCCJgo1AnuFsqdlCCCLgkuCS1AwQCNIAwvGEHxBdgKOEPHx9gTayhNwypq63XuQBKmI/2URAGQIi4tC/kR7CWL3EzBgkgwrgUBEBKQRkTXBCqXDfoGksI+Ekkp//1BcV2SoiQEoOG8HO0EFj4eogzb+HbWGYV3LPwkPAHE8T0dws00KoWTzULuNSKkMItD2Hb09PTrW9HfDSsAb/Owr611NYePXr4QxVZ+Lj4RajrYHv8cZAopagJ4R5twacwSiUhAruCEMnYhTnnv3mxMOAQaM+6Rhg+7BbG2IIFC/Ly8hATRtM0zrmlapeXl//lL38ZOnTonDlzCCFRUVGtW7cODw/3V74xTOyVV14ZNWoUSkuWYoon2SWxci2oJWtAsdtVVR0/fvzYsWNPnjyJYBIWVJQFOmTVj8NqiQIWRNWvEy34y4q1PyiKLzWMECRKwBswZBJnF3aI/wTGX63JjGsBH8Rz2voipH7QNO35558fMmTI0KFD/f+EvH84BDU1NZjBaFkmPB7PvHnzcD2qqhoQEIAiCy4r7E9rr/MHCbUEAoSktPA88I384zN+JHvzkgUNsEB9JHh+4e5MSkUKQUCCFMAFYYJKTohJJUjsECmBMAXj+BRFURgTglCQUoAQ3EdVCERKoqpqSvNmra8fMOr6AQBQL6C8uu67HfsKCzce2lu0avk3h0pOtExNa96y+apvCvNffuP/++vD5JKwSASIqZpcBeqQpjRUG0hQJDCha7pBheTcIyAIuFMniuQgieAgPCApidRkrZsQMFQJhBAGQiXcZSq2Kmfgh1ttHTuHxcR6vlp1OlILDnZELVtV2SxU63N18qHiE9+dkIFgdG6XtK9IX1BSNv26oIMn3GfOeJo3D+2aGnKkstIT2fr0gZqK8oruaaFdk4N3ljYsL6pplxTUJzno21L3wSN1g1rLlvEgTQJSCgBBgQmgXgjNn1mukByAJSE+5qnJj17Jb2xS/icEXKpIShnyDzWJCbo4jtIKILq433Cza6LPWVh+Te63IAIvJizwz+G21M1LNPrCB73n90V34ifWW1wM/97kqfNzgxAipQCQklApCWFXbKL4z8wmCa64y+PJum3btieeeOLhhx82DGPlypWxsbHDhg2bPHmyw+GYOHHi/PnzV6xY0bFjx9dff/1vf/tbu3btKKU1NTUTJkwIDAx8+umnMXPvySef3LdvH6YRFhQUdOnSZezYsWvXrj1y5MjXX389YcKE3NzcdevWITvOtm3b2rZtO2PGjNDQ0CeeeKK6unrDhg0lJSVTpkyZM2dOYWFhRUUFRrMfOXJk8+bNjY2Nbrf7ySefdDqdL7/8cm1t7Z133hkZGZmQkGBhJFuSnFV+91VpxQf4zxyrVf5ofRYyf5NXwAMVVX9N02bOnLlp06bHHnssNzd39erVW7duPXfu3GOPPRYfH//JJ59s2bLl8OHDtbW1K1eu3L59+7lz5yZNmhQVFVVYWPjaa6/96U9/uu2223Dpff/99x9//PHZs2effvrpDz744JlnnunatWtjY+M//vGPgQMHjh49GoU2S7ryb88l39H/Txd/8lPHgniT4ixQTUtzk5wohi/bG6ujUqhCKF6ZQ3hZuClC9NmkkBTxAADgYsBtP15QAhBMaXBkSMo13UZe0w0AztTUFJ8uL6uom/PPhZ5TVWs3FLomSgclSDJ8QXMlqKAbqqlTgylQp+mcSSmEQUCVVEoAxaSggmQGFUwqggAIU9eIQd2KWQ+KhvzIBiWSUClBjXBsW0+aB4g/he0FxXXVwBCbRyzYYQ+IbbP3eNXR3Zp5Wtt5MmxQj7CP9vDMUJua0ALEobNqoKN177fX7FKbwZHTRrnZqXz/ho6pXb45WCYCQz88HBbfftTSvWu5PXjtUXeEUe2IqOVmNSVUCimZ4NSLkvBL5IBfJ1q+CWGrde1/QQgxOfd4dI+uezwej67ruu7RdV03fqN/3u8wDN0wPB7dMM0mrb24zb9Kb/xfK+fPXXlhufgT6/D+SeVHHrnkn/y1lh8qF7PWXtzan1f86/ExDnspPa5MuWTP+7cNT9C0tLQBAwb06tXryy+/PHXq1KBBg/Lz88ePH68oyvTp0zt06JCVlXXLLbf079+/V69e//rXv3bu3PnEE0/ceeedeXl5H330EdoVbrrppmuvvfbMmTMPPvjg/fffX11dvXjx4lWrVp05c2bgwIELFy7UdX3KlCmHDh1avnx5YWHhkiVLbr/99oyMjKeffvrIkSMfffTRmDFjZs2ade7cuYkTJx4/fryxsXHWrFnHjx+fOnVqr1696urqtm7d+vzzzyclJQ0YMGD06NFoffE3KV3yHa9UZ1+6/y9u2I+sjh8aLNTpX3/9dZfLNXPmzM8+++zMmTN/+9vfunXrFhER8eabb+7Zs2fp0qWPPPIIJgG+9NJLjLGRI0dih0+cOPH5558/cODAhx9+uHr16srKypdeeik6Ovraa6997LHHbrjhhuHDh9fV1S1btmzGjBlHjx4tLi62TBQ/Ybr/aPmpY4EsDl7qbcRw9gVmMymoFBTXFEhE0ZDnuQOId+JLIr3mBG8vXrJZ0ueJAUoFgMm5YXKP7tZNMywsLD4mds3XK8tPlLz25stff/iOIi6lK0sAAiqHQIMECMPGzVC3FmBQKgUVAUIwQSgBSqREWhABTBJAkCpda3DbPFzYJbEbBLhiCLURKFBpNHAIt7lAd4EBsXbpURwuj3lHT2NEv6h9u0vi7I13ZOi3tDlleI7HxJ2+NoomBdvSQj11pWtC6JkAJ6S5WapedX3qudHZJ0zTubvCWVZ6DHYviqk7aGhmXAgb3fVcM0c9sk0REJR40ZIkXJot9jLLL7IHNOEMtSRHfwIMf8YaSghRWBMB87eT/S+IA1DIj2MG/O5ayO9YvNrDpXrgcj75vcpv15LzpMPgQ2DwBa9cgfIjIFf+mzJmjTscjqioqC5dukRFRbVr1+7999/fsmVLaGgoGqgxiLJZs2aBgYH19fVhYWEYoo/Qy1hDfHz8rl27Bg8enJube+rUqQMHDgDA4MGD09PTN23aVFhYWFxcfPjw4f37999///0HDhxYu3btqVOn3G53Y2Pj9ddfHxkZuXXr1vz8fPTmmKYZEBDQ2NjYoUMHTFxcvXp18+bNr7322qioqF69ejmdzv/4mn8Ee8BPWguX3E9QXDt69CghZPHixYibibmdmqZ9/vnnM2fOHD58eGJiYnZ2dl1dXWpq6o033oh83M8///zf/va3lJSUa6655vDhwxhdERcX16tXr9DQ0MWLF1dXVyuKkp6eXlBQ8OKLL/bv3z8tLQ2N/L/uVvYTqzpPDoeqvMW/5XeHlyjQh+Xgj2aCaD/UCw/gG4lLNuuChwilDHQdVMZ27S26a9yj3fLylnw4NzUmkmM+I7m0P9kU4W5gbmqXVBUgOKMe1fTYGkyVcMqAulTpNFQWJN2CCCBAiZtIInmIEHaNSyI9qgRVAjEBdIe7yt21jfbeaiUb2jns5r++OpWbQsJNdvRUzI7iUwmRDo+7rhzUWleg6qlw15suUFeWhG0pVoeOSFg1b3utDDPk6QbGTAGV3GgElqgqbcLV20a0PHdScL3uGHfUuxpEMLLEEcpASC/xAvlZyOdW+UX2AMsA5S8UozUMQ7QwyAj5rCyXrT80CvnNimXT8w98tVyS6Da2xPY/ghbyv/K/8h/LhSzbF4RWVFRUTJ8+PTo6+qmnngoPD8eANeErGB2JZzA6dzCSAGPKLJcwXmuadvbsWbvd3qpVq1mzZk2ZMuXbb7+NjY2tr6+fO3duSEjIM888gwsHHcyYKO9/glociS6Xq6GhAYM5GGMYv/n/k4KxLG63u66urqamJj4+Pjo6Wtd1wzAaGxudTqdpmtXV1djtnHPTVxAaCFGDXC4Xhr7izom4Q/jT5XLFxcX985//jImJmTp16vz58xFs6o8jqfvDavkhOP14+4jfz8v+FkSupxRANo+NmfPai/948W8tYyLdhkGEQaV5ia2dSJAgqNu0GR5bXYNHSFnH3YY0dSFqpFOn3G6rcwV5OHO6bE7Dputqo2l3u+wN0s5rbIYeZOhAXRipB4JwpkhDtHK4M1P5uiPKx1uARihZSdV5qZ5tO6oaa+tuv9aeFEWiow3VbmsfTpMjAhgci7I3pkR7vt9VnBXnCIusCGlptgyqTwsP0EzoFE07xdtT4sM+X3mucIfO3GabUHcYs0shKAGKWoEVHUh+kRzw69gDcGfBHaqJCxYtyRjUbQXONMlP/SVtuJzm+du4LOZNm82GWUAY9fMbteF/5X/lVyz+NMSapoWEhNTU1OBqcjgcQUFBDz744Msvv4xwT1b8Fz6ImSDr16+32+2rVq3661//ijaDmpqaUaNGjRs3bvDgwSdOnGjbtu3u3bsRny4tLe3999//17/+tXTpUjzFQ0JCHn744fHjxzudTkVRamtrHQ5Ht27dPv/886CgoL1791px8thUt9vdunXr2tra1atXx8TErF69+p577mliLPzvK/hqGMbRpk0bl8uF6EMJCQmYfRMSEiKlvOWWW+bPn9+vX789e/Zce+21x44dW7FiRc+ePZ1OZ35+/m233dapU6eNGzdmZmbW1NRY4f0o/EVERISHhy9fvry0tPSJJ54oLS09duyYvz3/9+6DK1oQHE5RVClFbLNmsc2aGZxTAEWhBDiXlxI9JAEC4QQCTWbn9mtzIuOD7L3aRDZqPCnAdlPHMBqoD+3JQkPt3TKIapoxoeLqzlpAIBkyMDgkymABAaBzCcQgQCWhTHJaF2CCaNSHtSXnqnaYEqIibAoYmW0hOqY2zM4CaXVaKgfVI2vLhmZTRQkISTkTxpTMZgYTEJqiCc8ZkQiSfCvMIFD0G9LrmVKV2clRc6Y2OBSUgMbWpggwmBCMUi6FpBdCDv+S8uvECaJagNlB+/fvb2xs9I8vCwsLw5Bmy2x1hWF88HutUHYMA8ZE+f/u/egHyv+knssvl+YJvfwOlH4Xv9Ykswxat99+e0lJSV5eXnh4eEBAwNtvvz19+vROnTplZmYmJCQ8/vjjnPMxY8YEBwej/blbt27vvPOOpmmjR4/GrI20tDRVVTMyMmbNmoVcOIMHD27WrFlKSgohJC8v7+2332aMTZw4MTIysnXr1g8++OBzzz130003IYpO69atTdN84oknli5dum7duhkzZqSmpj7yyCOJiYlRUVFSyq5du6IR4vvvvy8tLW3bti3i2v4aK+4njcMPVPDbFMseKaV86KGHPvvss4KCgt69eyclJd12220Igz18+PCePXsGBwcvWbLkueeei4+PDw8Pr62t3b9//+TJkyMjI2fNmvX222/36tWrf//+27ZtS05Ovummm+Li4lRVHTNmTMuWLXv06OFwOLKzs5977rlrrrlm6NChmDJwRbSaP9YW4vU0SCCESSm4EAr1MkeBZE3nmjfVXEoAyRsOlukfLDtpU7Vjx6o0Yho24+DBGp0Fv/tNHbcHLlxTpWlaI+G2Q98LjRSfOWJSx761rv2H3D1aBxLVLt0uaqpEGJoiJABhXNabUaEqVzh1eYQEZpCEEFNygzgJIYrkJjAgQgjRGMcCBXUHOIBwCrrOKBFMKibnWq3OhJ0DJwKM2tDoACl04TEVDaQQyJiA+r/0vsbvbQ+wUq3Q5l9XVzdo0KDy8nL/24KDg8eMGTNp0iTUSPx1FLzBH7XjYvmgic3A/1f/aDJ/37+/4dQyeFoJTjU1Ne+8887hw4dnz56N5kr/N2pSw39BWoFEVu/zAoCXeUV6//1PLLhE8fXJ+ZAXjBWQvkCny6yHAAikz/KxnYBFe2LRYvi8ppe/kDEHslOnTp06dcKmGYbRoUMHf1ib5ORk0zR79uwphOjUqZNhGIyxxx57DJcDplDGxsY2b97cMM2MjAwU1k3T7N69O4I9WAgNPXr0QB9f165dLegILOhx+NOf/mR9glATycnJhmEgWOGLL75os9lCQ0OzsrKSk5ORTerCfr6s4g+15OWSQ7gwby9eSjKw+tzb2ee/1RvMBj6yll97iVvpqcOGDcNPOOf9+/dHxqa4uDjTNPPy8vLy8gAAMwNHjhyJMRaGYWRlZWVlZeFg5ebmSikjIiJwH+vfvz/n3KoWR8TK+P1J72Jx3ICP5Ap8DJnESilu8gz6pK2ZTED6//J7FB9YvLdhCgMAIYGApAgvT6yxl95xJxIIh4TQmr49mrnrPNLlMm2K5tZMA4RUmASPFiDqPDYZUGNIXaEBnHAuTWFGmEQjNL1FSMfWbtnYaAdBhAlCSgmCApMCbG6pA3ExIIyAjYLgxE1NAEkFNUHapABCPEQqUhhS2AGcgitAbKbikWBQJiiAnYNbAwKgCFqlajbqCZIgBOVMePtcWAR+uB/9fnmD/ue3dR0VFVVVVYVRwXhbfX39q6++GhwcPGXKlCYQaf6nuD9y2Y/HEvr/io9boQDWh5dMu0IppKio6PHHH+/SpYuFoX0x2leTUMf/u6KARCZkgfG7XmJrASCklEJI/ByEj+7ufyIBgG/UvRxqhIIUEqiUIEACgAB6EVr5D9fkBbuSyISHO6w83/9InyVBEnnZp6J3yVDq9ngYpdba8Xg8xMeuRxklAIQQwzApJSgEcM51XSeUKowBIaiaSwAphIEhyEIwSnVdVxQvaAT+5EIojFFK3R6PlFJTVRQjhBCKogJIt8eNhOCMUs4FpV4OOoTZefTRRwsLCyml3bt3d3s8CmPnJfufsnlJKQWhQiCNsC/s3CuZ+SLPmowMQWJ6Kr2sI16x2Nv/FLUrHO7Lb8h/bichFKlNQUrEHQIgqqpgsJQEMDwehSnopqSMBQYGTpo0KSQ0FMmiULATQlJGQQIXAqTkXDBGLUwCt8dDABRFMQyDYtYupeiRAXE58xPT+/FO4ZUGrOeQGg68JwwOlBBSSOTckxjRh2o48UpV5FftxZ9UvCh0xKcee3MXQAqQAoASHyqdxc1DpJCQrp14epADCANJTNVQDAWY4uQ8kEgw7cAM4BwYAyrAQ0EVYJogGFAQDg+vqYNqk9lAqlwANNjBABrhBGowZ4AhGQ90MmIK3a4LAgGC6kxKBowbIDQXC9aEqVEXeJlguc7A1Ey7LkEqxKRUUB6gMyEpV8KMegqCmMxmBhN7rUnP51hIAsIHxiR/OoygVX6pX8A6I63oPFQpPv/889zcXM65qqpTp079+9///uWXX44bNy4yMlJKuX379sLCQgDo2LFjt27dcO4yxk6ePLlmzZqKioquXbtqmrZ27dqBAwdmZGSUlJR8/PHHUVFRo0aNstlsO3bsWLNmTcuWLW+++WZU8a0Ks7Oz8/LycP8yTXPdunWHDh0ihERHR+fl5SUmJp46dWrBggWMsZqamlmzZg0YMCAlJWX37t3btm1raGgIDAzMzMzEGqxgxp9GtvGHK5i5AwDMkJoEULm0A6GEAKOUEgATJAXiY7uES5I5XuaFvyZy8T0/9PnlXPxInb+82RfVLy0AS9w2KJWccEmopgMLFBU24r78/kdlVZFEF4EEQMoGABsFoJQyiiRpzLdF/ce+tbZZBiBVxctlpigMQCoK8UX+nt+NGUMMBgJAKFVUFR8BBtbN5zG6VAAf7aclrxNVRc4TCiAZQ7Tg8xe4ITGmWtlfzIsI60e1BhSBngQ37Jris2H+9JGSAIQoVHDiqgcCIiCQGyYDF2UUDBsXAJRf2PtIFylAcsrqwU4IKMRQuIsCcKpqVBICIKkP1vnXmsBg9Z7vQ2un9d6gKtaWogIAMIKsPyA5EAsM/4JqVUX4/4kxDUAAUMZsfiNOLrzwR1+7uLVgSCCEKMJAvHtJGFCQglNiArVf0AwpgUoKwIjuZHYAUE3CqKFTyglRpIcJaV5ZQBq/gvYM4gtCZNLH5E0lAWLq0kmEw6ZQIaFBUyMUXTEJ8DApnbKiEqeqF9GfgE2CQGxaAk23RR/tqKwGhQEJ8CY0UAkhHgAiKQOgPFAQEEBUAarHLiQAASZtEgD5h4lHkQZyJgLhIAkowgYNNhObL0ATIEFDXmXNVNGkqAqi1AOAajJQuMmAUGBcMgJuLUA3KeG1P7v7f51haxLGjOJqTEwMhrY6HA4LPM40zYKCgsmTJ1vPPvnkk1OnTpVSHjx4sG/fvqdOncLPk5KSSktL7XZ7RkbG3r17EVtj2LBhNptt5cqVkyZN6tKly80334x0IBMmTLAqfPbZZydPnqzr+iOPPPLOO+9Yan14ePiuXbuKi4vffvttADhy5Mj48eO/+eabU6dOIcGuVcMrr7zyyCOPNKGB/z9qDwCvU4ACcCpdVNpsChhEGAAewSlQcZ6u/TzztWU6hQs/oX6fSN8nF15Ivz1MCp/YeuFu9IP1W+qE3yMXPHshujRY9QtL/r+wNvnz6wcigYJAzUpyKaSgVDhNwRWN+DTa/zgxiJRCSkopFVzBdDICOkhOSAMXdsqIJALO67PC18nix/qW+Pet9e7Cl45l7fTioneXPiJTa3eTIKnXQo71E587w79+cuEXXdw24jsrvJ+cl4AADQ0SABhlUiK7mmzStv/07kBBSikZg0YBjCKsA/IJUEIogJDkEphxuO8SKTVdV6hiBxlAVYVqQIhb5yBUYF5RmZJfYQI3WSC+6UTgfG+D/yFvDZkAkJJTAKAEhD8HvV/9hFDRZN6SX7BAJABhYAAQDyhSMiKE8DQyRkxF40QNkD5rjc8ZY3AZpBJDSgZESsmw1xkjSJTzO1BxNSnncw28byqlBMKABfBAYRKiSmEST710CUl1zkkNJ4DRduKiC+kTBQAvcG1In9DoA7P3XQCRIKiPdJgAKu1YyXnQe0uzAI7m1/PVEkvO8Bobfaj5UhCg+EWUEwHMpFzhJgUmgAlJFXABMZkPtQF+ziD8OnJAE5BRAJg0adKrr76KENmoqd99993NmjUrKip69tlns7Ozp0yZEhYWNm3atGnTpvXr169v375Tpkw5derULbfccu+99x47dmz8+PGEEH9CdIfDYYFjE0KQxmPHjh0TJkzIycl58cUX7Xb79OnTn3nmmUGDBrVo0WLevHmZmZmzZs3SNG3Xrl1Op7OxsbFTp05Tp07Nz89v06ZNQUFBdnb2xIkTdV0vKCjo06dPSUlJaWlpixYt/PFxf5Uu+t0KCqxCCkI8/4+9L4+zojrarqrTfZfZGQaYYdhBCIugrC4gCDG4ICDGiHF5DRqNGI3RD40JQWNIjHuMvGpEXMBojIlGjUqISlwBNxQUjYCCbLLMPnPv7eVUfX+c7p47AwICbnlv/Ubs6Tld3X26+5w6tTxPPOYjrq+p/9XsG+7/yz88xxcDUi1W8HZHBnCrJUQkLYecXSwzdm6wy5Xtl6y/xRJo7/QDgxCJYtQQEEQRCKKyPnz5P+55e5s4IhgMvBny/BgmEbnQvvG6659+ZWljXT0RopBwIlgHCO36Hndz/Ryu6jmcYVpNNTsvccPJofnYbMOBdtvJ0bG70b/zte1G/2e/AAgtjRoBALFsu2HbVqBMHFEsBJ+FkRAFSESFx2YliCMACxCILRkvFceC6nTDwiVLjphyeqqxES1bmATt3XX+fr7Ae3xAu9Qftdn7D2SPz6719QsAKnYARGOez3Y8GSsqKdCZxoa6Bg/RFrOSbX66zFJUXPz2vxddcdUViIiELIysEFFEmUdm1hX7g3W/H9J8e+FWkD7og0W2iGCy5CD/sOl+MoXa1UoJoAhKEMUiQ0ccLIswtEIju0LC9XoQCQkh7NGE91CAMTyWozZBiZ8gEgTwSuHkDxRwYO1JfxB7MTatTmgUJgC2xHdJPLASCWyPVA6IwPsCKHTA/AHRhlknrVy5Mvpr7969L7nkkjPOOENE3njjjXQ6PXTo0B49ehQVFY0aNWrx4sULFiwYM2bM6tWrieiyyy4z9DZPPfXUo48+Gs3HUclf9KthxVi8eDEi9uvXzzBmHnPMMc8888yiRYvOPvvs4uLiDz744Lbbbps4ceKYMWP69OljjjUENm3bth03bpwBChWRu+++u7q6+rjjjvv2t79dXFxsEqm+qT6ALIlMV9K6nda+X/f4XXc01tU7mhEptDwhwgPflYq9MDH3ps0XcezeKNkv/eGni6B9TYBo28lfXVrZubyxocG2rT2bAsbxDJLPipo8nan/2f/84PTRYzIChBSuK6mZUGsf5OvwgL4U/UEQgrmgXRs3lUbfsZUiQDbDpTBSNJiGIgJIKGyxTpBK1dZf/MMfTJ10fHVT2ialEWwB24y4/50v8G6UiAAZElzfh2Q8sXLjtukzfjHx2LG/u+z8jONaitC8vyEOkPHV2JdO69ire31dvQJfKYsFEQlQWCiYur6yYbOFPyCwwgUZOa1QEC2RZPng/IqBAVUBAoCP4H9VZsvnF/MFaAAT1CMBH8HLBwIocLWK7avj+sCHc0ySyz333DNgwIAZM2a88MILFRUVp556aiKRQMT6+npEvPvuu41z3siOHTvS6bQhTDN8dMzcvn37VoDwJkgfJMKEUl1dLSILFixYsGBBtHPFihXl5eU33XTT7NmzH3nkkUceeQQADjrooAULFgwfPry+vt4Q0BnMjRkzZmzatOm5556bPXv27NmzbdueMWPG7NmzDSFNVOt4wHE1Ql0AACAASURBVDvqyxRBIDROQN27V7eYHQuIcwwyFUTepG/I5/DFStaiSVTgGwABkyaI4ANkUg57GmjPaVERKKEIorIApW1RScfDD2u5VtZZzXOyexEATGnyGusthWzCGgbuEUEAJRzgjQT4ZoAgygYkxIqS0m4dykllL7ZN//+f6vzIvWN5oG1QdZp/d8+M/LzEsy++PO7IIT/+/ik+O4REaLO4hCpyO/hgpTIuOikkYkBApCDPGAMbbK+zaL9oMTQhJJgEZPYQQSDBPiKLKNQkyECCX5vr3ZOgACOQL0AYlmwIgJAwYEC4vU+ZbAfYDojMkcrKymHDht13332TJk164YUXpk2b9sgjj1iWVVxcLCITJ0487rjjtNYlJSWNjY1dunSxbbugoMB1XZNaCACffPJJVO8XscjYtm3oUiIToaioCABOOOGESZMmpVKp0tJSx3G6d+/u+/7ZZ5999tln/+Mf/1i1atXixYsXLlz44x//+LXXXjP2RDwet207lUr17NnzySefXLNmzTPPPLNu3br77rvvt7/97amnnjpw4MDI/fDNdQyYGgEU1mg1UB4TNzi+Sns2M4oIGpoKwtCS/0y/9C43mhPFwlh0Fmf0Lpyce6l2Z/3ZJ9rZNyuf7RL/vPqb+02QEUQxAaAGEYtRCWsCH8VCpRBZkPb0Xpj+J5aMpZgUCgtnGuuaCBmAkRmQNMRNLjMJhiHGnXzLO6XWBV2dfe/ZKWKfccutH1CrTti55R77tmWk4HPr/6zI+c76g/CqACMhKBIdulPQ5LSjBJMQNp/PuLoYIW1ZZoJy/VTGqwdAFE0IDJYGC8MKuS/6BW6+ur25933QHy2H9/SBCJpANniCYsUn/+DCdh0ryspKjxwx/PZ5f/LAvuT7k7dWVdmxGOssvAcUZLQIgJgF2JTUoHF2a0AKuIa/HkZVUNYgaGsBZCAfBEUUKhalSXwk23jpm82Xvfe+fK4ntXMoZ+dHuUf9AQIwooTlXSgghIKEGkAAbRDeB+/GAbYDTIJ9xP3arVu3u+66a8KECYsWLZo/f/4555wzcOBA27Y//PDDm2++uWvXrjfeeGPnzp1HjhwZi8WGDh365ptvzp49e/78+ddff/0zzzwTqS0sLASA7du3f/jhh+l0+t577zUssQAwbtw4Itq0adPYsWM7d+48Z86csrIyUzN9xx13LF++/Oqrr54wYcLmzZsXLlxYWloa1TVUV1evW7euoqJiyZIld95550knnXTRRRctXrz4zjvvNGeM6Gg/i5LgGyJmoEQhBnQQ2CJRIAqZBBkFCJAVigpG0OhbCG83KiBuriTOthZM9TYCUbgRnDIMFkKYCpWl9vPqb3GiLCWR/l2eKBgDP4/+Zg+08W4SM4JGJCFCkw4sQgENCgYkKrt7McJijSg9CxUIKFO4RKAQgVCUBAsqw7va4iJb9+1u7j26/s/u2909RGjWH7XM1h9stOzb6Nr2qpM/+9r2qD/cECJEYRFmApO1QSwCmkmjUFB/2fxQzKQHlimrEkBEAgWiERCZfFKACkDIVNV+tS/w/uvf00PM0sYASomXX5B/3hW/0p53/w1XXX/TzVOnTl05+oifXv6LQyvbHn74Yal0RhEhkph8NRQkJNGM6BOjAIkpzdRCGtnkHH9tsqpDcB3ByP4iUcABPU9cUIDYhOJbmI57JVHLnTdgJ22tNnZ1yJ70CwsSiJBJkhUUQWZRKFFuS6uo2N7K/uIItWLuEZHa2lqDkk1EmUxmxIgRP/zhD6+99tpzzz23d+/eRxxxxIwZM66//vpevXoZJZ07d+7fv//AgQMvvfTSF1988bHHHisrKysqKho+fPiyZctisRgADBkyZMqUKY8++uiQIUPKysq6dOmyefPmqqoq86crr7zyhhtuiBQedNBBptncuXOXL18+d+5cc5H9+vX7/e9/LyIDBw7s2bPn22+/3atXryeeeOL9999fsGDB/PnzTbPCwsLrrruue/funud9k8sFA8HQ7CeGJGgfTWkzkZCAYkItaAsr1mZ6C5ZfUfkYNNuXzYZm1CaUXfzJZJl/xv7Pq7/1icIGkf7dnOhz6Q9PIyKEwgS+h4SCxmUS+kxAQEiAcc/+AFNSLQgWs2EuRAARJYgCxMZbAAzMYKKxe7x+46JCoJ06oVn25t53fohmx04NdtPJn0t/q2vbWcke9YuYdxkZUaNoEoMGAyAELGgcBC3w4zD0pSqDmmFwIEQJ2poQmFBEgTYBhJ1PbR4H7upOP2tDAHA3Lxg3+zawZd/u5Yn2oD88i7TUhq21CTMSsAabM/7QHuW/uPgHBTFr2KGHIMiUY8e4NZek003CbClkzSBMGNIEigiKJtEIliD5ggKEmoEDI+NrYgQECaNovmZEJUDBywOOQlbaBgQMcwGz86N2ky6Vrb6FK2YXG7sJtrZK/d2FNNuCkp3wgAJeMK5jmoEZFQW2qxawac+j2y5kf3GEsi0Ak95/xhlnrF69ulu3blEK3syZM7dv315fX79p0yal1G9+85uTTjrpj3/8YyaTGTZs2Pnnnx+Px7XWvXv3fvPNN6+66qra2tpf/epX11577bJlywzsRmFh4fz58wcPHvzOO+9MmzbtoIMO+uUvf9mvXz9TnjB79uxJkybdddddjY2No0ePPuuss0wpwSuvvPL4448vWrTIdd0hQ4acd955+fn5Wutu3boZsi9m7tWr1/HHHz969OiHH354w4YNpaWl06dPHzBgQDao0TfZGWBeNzT5MigxMvRUIdcXChEDgBsgUmW/tFkbstNGa9n5T7jb/Z9Xf6sT7c2x+6Y/FFOEJoAUxCPCihwMwQT37p0IP1+D+hW6rs26BCH0FUhoLWSFVj/r+nfTAPZ07C4Pz77rz9uBn1P/rhvstX4JZnWDyURkQgEIggwmEByOSVl3FKQXOoQKlWjQFmoB0gxamMhCUVoDIXDzMS025DP2hxumIuEz2+wsu1KL2YhK+6l/r5QIAGoRjRaxXHDOWY1NTei51/xq9qWXXdanU8fTJx8HynIyGVN4DBCWvmjxURFQXDMj+CgazWJUBSiPLaNAX7FgtvNEBXzFAAqQRBBZQHFQKsgoLCDGUmNQFHj7AJqndWNShQigUW7vzhuthSEiWA4vK7Q+Wi81JSg2ZEZQHrEIWSCgAYQCrwwgIoMQIgmapQUIIFALP9Ln6qcuXfsCwPp1q/bh4BZX/xmJiq32Z8P/tWrTquW5555777333nfffWeccUYmkzFphrs89c44P7snF975klq1zFa49/gBplxVI6Jo33Vj8eTJZ15w3MRJPzjl2ExtlUdxCkzpL9umENg5Hzp6r81O+rp9v18rCcOdYaF2a8Cf3Ul4SAvq1VYT7leFxvoNlfBRNPefYGAp4E72h/kqGQAAEz6xIjdhocIitEBYi0aLhDkwlg3wo6n9DsxnDjywwQcUJtI0l3VBUDYW7KHmVpGSrM1Af7QH2Bgyghw4r/esv1lX8wbsYh9GJW3BBrVUKwBIEnhYfE2xmBp1zISfXnbplGPH+m4aSCEajBwGBBJiZGLOWPFUyi1qbEKlm5LKExX3bUHf3AsyMhnLYHfCzDHbWvdp1YSzfvLy3/5Y0aGdL0KABBwU6EIw8u63dyHrVWm5GcAomuI+ZAqgVnwBcCEeQ26O+jVTJZvJXiA7NhNoDFNLpGUkjA0USWhvNK+QJPDYNI+9GJxJxEcUQdtDQPFtzSi2kHmGaDDADK5j1rC9P4kZ++IP2CVPYLTHIJMbLp+opanxU0qZRbbBJDclAGZPhMpiigXi8XgmkzEs6RGoX3SIAVePuA0Nrmq2wogE2SCn7nwiUxYYQREEAKsi0Z7su2t1v98w6oHmsSj7OoN3MZiOpDnBKCcALd16weePGM7k2aP0HrssWu9nmWFZWWzN7shc/++lmCE4e+WFYU6AGQpb5AkG7DPCRJqJwE68vmLlK6+9Dg4oVo5iD5UpL6NmNdmZIsGAbwZzzB7tww3O2kNZa8WoTfSUd7Gxd/qp1RK0lf7oanfSb64NERiy4HGiDQO3KEAonkCisOC9Hd49T7381seb/VQTkBUOdobhXgTAUlYq3XDysUcfdlBvJ10nQigIwoTCBm3n6zQgRnGBaJjL6kdBQGVoCILyQmIQE7NDX4NIVhjQhIgAml8LCB9tuCEAJAFUUFTkGn3cxr3I2e4g8ybrLCOg+bqDXlS+JkixpYAsHeQsBcWxAfpA84PH0O/4JeUJtgLtb0UCZLL9s1fkZmd2+MBk+e2Sfdi2bTMl9+/ff/jw4W3btmVmM99n2xbmLNE1RNN8dEkR4tBn3YLJPIiuZ2e8oJ0pklsp/wYYAeF7iK1x17P9XNH7mpuKIsGsf1v97zN6dLfKWq5TW25h65052a1E/YUt97X+z4gBgmNEFzmmEJR6ftmSO+bdP6D7QcSYRlZ2gsQG5HBKxXDmDgJoLULFkj36B/lbzZHeaJkIkf8tK/c2oDcwmelZJwpzu2TnNmIKIiXS30JbC/dEWDQB4S+B/hbOaJHgkNAfYMYARGABcoWK23bYsGnzts2fxBQGcHxhTyOAZo7H4v958/VOHdodOai/TpMWE5vhoBJCAuf010SC3AjM+pyzOiNctRu3D+ggKoAkHLOUwe7+4qX1DIUt9sYtgDwTy1AAAL5kCGKExMgElHVn0X/70v375Q/IJg0yvnRDOJTNNdBqpo8OjIrys8mKzE7DEXzllVca+GED9R9Ra5vIvdEfsQBEXEcQsiDuPHNHnoCITtBsGIWtHACmUqBV++A5hef6ZvgDdi0t5rmWO3OSk/8eCScCjolSHsaTlteQGfGtvgsfuv+rvrSvo5x38U9/dP65g/v3302bG37/v1u3VYuILyY9A0MIZbN4lr3xk33lYgZuERICYAZgJEuxZiQS55PXH7P97HBzhPoX+eKDXD0IIxhmvR/OxNKceRp5BjDyGXFgYUaqArVRzj8IkZAQ+4CW6U+tySrrnag41Jise+WN3GvZRzsgwvMxJGaGPiBy/u8yBt/KVohm94ioO/soy7IitWaSNsaBIQzMpieOZn0RMfp3jllkGy5Rs+zriYySSLmJUJhTR/ZKRKtobjNiSjwQDyInOcnJFyHB1OQoIhKlRBT62vF93/V8tAgQVDN0xu4kcpAzc+gyACTEYDkNIMH/TYSCmn20n2+IEGFTp2dOakggDSotBEgxojUjEWFEFBxMUQEw6N4NSsbfbTzXHotN9PKSN44aN25gnz6edhTZhmwTTcWlsO9z3LZrGpoorw0aKgRhQUIMUXURwNQjf+0tATNyMwoLKVM2KIDiKlCsGzY+fG27pnfBUmjm7GBhK4houDQJw5grAWEw5wf+k2CVLkhIZBg9BJHDRyTBjI9h5gkAUricR0AEAnAVODHI02AMCKWgKROHYVcUlQ817Ke45xyMzyH7FReIAvOIGBBoEmkDWJuVSZG91s+eibXWvu8bb3/W4wmmcJMHYPo2IFkginjTASCTyRhYIZMZYGZo3/dt2w6yOsL/QTh5R+4EY8RYlhWt+7M9HK7rqhACIfI3uK7r+77hO6CwXCxnBOQkJ19niaK0Zhhmk0NHaFmWsLYUM1oIFkf5Adnx35ZUDAGFDAApJZoFkbUvWjSKEhQRFlGkkMhARod+0WwE+d3qj/5keNgNhJpms9ywLBVlLAKgpUQz+9oHFlRkWTYGK1SKys13ppJocQHSnGeAAIBsKyotbZufl6csS0BIWWHEAINcV9CWpZQiL0ifZERBYQCFUQX7gV2ofmESzNUBdwiE5RSMSCR+RSJtUx5ZFpjkRxAx831ACRas3hEYUYAwnOoAA0Q/M9lzkMRPIMBkUIBQDHUWEhj8C5PAAQQG5UFICMEGlU8UQwZRABqUJ3k6k3AFNROqA+0Q2N88QcuysmPwnucZdwBEE3FWska07DZJALZtmzB/87ocMbJsQ4Mg8MAAkAiLiInrs3B+fr6Zs6Pkg8hLQYTMYXQgvGDNbK7W5Bjatm2QgloF+xExkUiYhMcgRVEEAeLxeDweN/q1ZsuiKI00JznJyddTyKzMgfN8HzXFNcR9ZWkCAPQVKCQAgzGzE3EfhMs2gKxJFACEBQi15kQstvMZA0oUMcBHQrKL6T9kQWjG4qfmPwJL6KsWiNtW3LYAwPcZCRCMxcGAELOUCWNH4x4KEkVLKYwuPqSqjwydYG1kNs0YZlAXbrnxusrKDgxgYYin1TwSCwkbm8pcNAmzACKDoIBiUQpZmOFrlSPwWSKm0k5QEIEFmVEU2j7ahDHLz2jtCxAY2BAUEWDjBjDovUHnMhIDY+ARQABAEuNCMLTCwCAUVJEAMENUQCzGMLVMATewUIgkJYIIjMrzlAjY5NnKZ2ZLWCN4KDGA/agN2JXsuz9ABIjwo48+un/+/LHjxonWRcVFgw8drLUwm0LpYNUsLIBonCfG1b902bI+vXsvWbJk+fLl0845p6K8PMozyMq4yUpF1IIKBNCyrA0bNmzfvqN/v363/uHWio4dT//+9zdv3rxm7dqysrJEItG9W3ezWCfCyP8fmBeIy5cv93196KGHpNPpN954Y8yY0SLo+36YM8hECgDmzp07bty3e/ToxgZ9TCSdTj/wwAOZTOaiiy7SWmf5Aw7Ug8hJTnJy4CUq/GBiQPAUZBR5RADg28KkENBiMQAOmHVIy6KRSBkE+UOalWX97tprP936KYaQ7ghw5BFHTJ58kkGFFGYRZERhHY1vZpqHYAANUvdMiT5Sczo7s7D2LctaunTpggULKisrL59xeQg6jaw1WWrtmjV/uO22ivKKH/3oR8UlxaIFKLBCqDlqDyCiRQiJgUUECUPIRAxD+RJ6OnD+/AdO+e7kihFDWEQJson/B9ZJRNwQ5NcZ70QEpxHSN+8b492XLoF33/irgQEYkdF2BW20GJUIsagQpDFAsOKwwCMCcRYdOAogrFxlNPRjbIlGFlaohRBIAxIySsASJKA1AYJjnj2gcICRAaAA2AaxXeX6ylcoSU0sMeEEQByj5IQD18v7iJeHiCKaiNZ9suG5xS/16N598ctLli9fWVtbm0o1ESEjZTJOdXWN53k+gxaurqquqq5OO47juA8/8rcNGzdWdur87OKXNm/Zlkqlm5pSGcf1fL+mpsZxHGNcZTJuVXVNKpUmRWnHcx2nvr5+2WtvLvzX4urauicX/quopA0SrXj//dVr18xf8Kc3lr9NhKmMs6OquqGxkYgcz21saKyqqtbMSqn331+9cuV7lmVt3LTl3XdX+b7WWgOi67qup4lUTU1tQ0PDY088tW7DJq25sbGxpqbGZ6ZYrEvPnv989jk0ETA6QKWtOclJTr5IyarFiwH4BKCYSCwIhnBBCBZ8ZnluVujZGxj+RP4BJARCIrzjzjtvvfUPvw/llt///tSpp11w4XSyiJlJKWWRZl9ZSllKQDRrz/dIESkiizJOhoUFxPyKZCiRxNc+KYrFY6Ro5cqVt99++/333w8IQKBZI6IdjymlNmzc+Ic//OH2229PpVMi4rPPwuZcSOhrX7N2PRcQlaVQISlSliIKEAjELHMNZQOyBhGBfz377KYtW4xhIsYh3qI3TFQ8ZjrQQxJIWIJAohFs9jH0FX/Vj30vJEzwQGFARIzZIiSSQFHsp8UiQYLAHSAMGPwIGxQY9ol9xYJig8SVH1deDDmGAMJxD/M8SMQ8K09YM/sgQqQFiR2FLgNoUSiC4vrIYvAIRAErZIUMpAFEg2jLg5iDlkZCj9ExtYvSXN96wGQf8QSj0IBtxXr36d25U6c2pW2XvPbG8nfecV3/2mtnp1Kpa675TSad6tKt2+WXXfLCS6++sPjf9Y0N48Z9u1Nlxb///VIinrj6ql/2+VY/ZVlPPPnUIYcMfO75xave+0DEj8eTP7rggvL2bf9w2/9+uHptQWHhr676+VPPPPuvfz3XrWuXjZs219TUDDx4QPfuvfsPONhjWbHi3cGHDpq/4KFPd1Qd/53xt9z2v++uXKGU/ZtfX3XX3fM+eH91QWFej569L7/sooKiYrIUiDzz9MLJJ02+/GczJ08+cdSokeece+EF502zbPsPt93Wo3t3z9Nty9pd/Ztbli9f1rNLZVmHDj+5+KJhQ4ZXdu4iIohKAhSnneBhcpKTnHydJCzOJxOJRQlGduOKJ0GhoKQgO51v5w3j14zSnE3MsWNl5ZYtW4466qiOHTsCwPr165ctW/bAAw+cd955Q4YM2bRpk+d55RXlO7bsAICSkpJYLBaLxWpqampqagoLC9u1a2fijxs3bkyn0+Xl5QUFBYQEABs3bmxqaurateupp546atSo/Px8JPK1jtmxpqamLVu2dOnSpaKiwrKssnZlJjlaKWVZ1pYtWxzHqaioiMfjjuMopRqbGrds2VJRUYGI27dvb9OmTXFJsfHRBhHcECADEUpKSuLJRBj2DfMMglB6BNRAYeUhgpBJXhfj8CZgIdonqpsvWyRMp5DAI09sSAZMohiaJx5EQAxDISCgKLZBFKLHpNkYkuQJsiU66YNju4Rc5GsRTGN+ow3AfoFHDB7GUWt2BTybAZqKPUg2FtYXNUqQGwCMRMxIxGAS4ZmMg0AQSQCYgSPuBjygcYH98QcE+RPpdEZEGupqR448cs6tN/ft2/elV1598KGHJ02euOD+eRUdOz78t8c//mRDx04d77xzzqijRo48YsSkSROnX/gjz/caGhu09qee+t1v9eldW9fQtn372//3tmEjhj373PN/ffRxx3MX3H/3hBNPvOn3/5uXl8wvyP/t7FmnTv3u8RMmjD7qyKaGBt/1Ghvqq3ZUHXP00Qf3H3DxhdNfWfZaMpn3l4ce+NmVM1avWcss5/5w2gP331NbW/3s4heSeYVasxZY9cEHXbt29pmNQyyWjDem07feNmfmL2fO+uXP25SWptLplOtOm3bOrbf+vqGu8a+PPh6L25mmDCKKEAiJSAgslZOc5ORrKyFUBga4MIISrKgMbVuz33cPP1FBU1QopH3f87yZM2fOnz9//vz5ixYt6tWzVzqdfvLJJxHx4osvHjt27JU/u3LQoEFHHHGEKUSaM2fOcccd17Nnz5EjR/7617/esWOHZVlz5swZNmzYXXfdpZRCwFWrVo0dO3bMmDFKqZdeeumII4648MILhTlm28uWLTvjjDP69u07bty4p59+2uRcm/tsaGiYNWvW8OHDBwwYcPLJJz///PPxeNyyrEcffXTEiBHnnnvulClTevbs+dprr4ULmJAqWNCECzyBa3599SGDBnraZE9nRUqCn8D9HWIrGo+ChLjZAf3NN2NtFOZuBtdueMMQpRm1IUxTCwL2IAIMSNq32NAXKi2kTYYoaE3skGZRICwo2vdcJ+NmLBashUSdr9I648dsxmTcxQKHwM93VTExEkjgFGBmFEbQoERIBM0ZJfTPhISbB94fsK88OuGzNsT2AJCXSBbm52mtk4lkzI7tqKoaNnwEAHTv2q2xoWnKpAka8K6777vnnnuZxfH9jOMBoFIWh0BNDHDYYSMAoKKy8tNtW2sb6vr07g0ApW1LM44DZJWXl2utM46jtWYWBEVEmzdvPebb3zEfg+t6BFha2gYABvbvN/6YcUSqfUUFAHTt3GnHjhoNnMzLX/Hee9/93vcIwY7FUFmEmIgnq2rqWQIW4zZtih3Xa9u2tF37UgDo1q3H9u3bs5jgItwOzNUL5CQnX29pTpVDjCqzEEL8vmyH/x5+WpZKRWlM8+bNu+WWW26++ebp06d/vO7jWCw2ZswYEWlqavr444/vu+++8ePHX3bZZYlE4vLLL7/ooovWrFlzxRVX5OXlzZo166KLLmLms846q6Gh4aGHHtq6dauAPP/886tXr546dapt2/X19TU1NYaZZdWqVaeeeurf//73cePGde3adebMmZEdgIhXX331r3/96969e59zzjnPPffclClTVq5caS6jtrb2L3/5SyqVmjlz5uDBgwNkd5PFHdxakNO9ds3a+rr6IMcbssBxs3Mmww40fRfmD2BzJ31lz3ofJFxch/X70b2JRNDGwTRscJ2RMqDqBTMaNSBbLJZGi23SyQwmBVG8vO1OvLZ9n+Ip16neJ1K9V9h3bN73btUF/Rvqk+ipAq3zPNsjqzq/2sBGQxhrAiAWYqSoQh0FTeBABNFktUrw9h5A2be4gAASB4Wrpo+kpra2Y7odKUqlGtOZdO/evR568MGTJ0948603+w8YkJefd9rUUz7dtOma31xXU1/vOpnNm7e0KS1l1kphY319PB5PxuNLlyw5uF/vpa8u7d+3bzwR+9c/F40aecS7767o0a2z76Rq62uVoljM3rp1S21tLaAogrffWn7o0KFElMmk16//pLKy46bNm9etX7/ktbdZu/Fk/L2VKyrKSld9uHrqKYN8XyPRmtUfDTrkYETMz8/bsmnjJxs2vv/+B6eePLG4qGDp0mUjhg7+4D+rbcuqra1d8+HaHp0q337n7eOP+472vRCiGLRoBSqHwJeTnHyDZb8/XWMHPPDAAw888EC087TTTjv66KMBwFCinHPOOTfeeCMAvPrqq7fddlvnzp2XLVtWUVExc+bMo4466s9//vMxxxwzbdq0Y489dtGiRW+88cbxxx//+OOPW5Z15plnmmnehCEQceHChevXr580adLDDz8cj8dvvvnmyy67jJnz8/Pff//9OXPm9O3bd+7cuV27du3Wrdull146Z86cP/7xj+bYoUOHLly4sKCgoBUCbNATiMJiE867e15pWemgPr1Y72/nfLMkzE83DpKgglzY1AUY9weZjHeNgMA+AgMrZlt8BegzxZLF4Pq+2+gU5tsjpnU6/CQq6aW9prplD3XoeAgcfK6UHr5l+SNN7y1I1H+kCrUbcxUw+IqQfGbxBRVGGZ4mDAAIQgBCQICInsfm4kybo7YQHQAAIABJREFUA2hw7ZsdYKoog/cpLy+PiPr26dO5SyUK9OrRrbi09Pjjjr32N9f+5ZHH2rdvd9xx4xc///zKFe8mk8lTTzm5pKho0IAB7618d/Chh+Qlk5ayVr77fteuXfITyY/Wrn3kr4+2KSo6fvy3i4oK62pq7l/wp4LCwgsv/PGzzy4aNKA/Cw7o3//99957/z8fJGJ2YUFRQX6yrE0xs5x4wvErVr578pST1qxZc//8B5Hosp/+5He/u+6Vl5fWVFUf+51vHzN29N8ff0ZEd+pYbpPta/7u5ImL/vWvp6qrhw0d1K5duyuvvOK+e+dX7dgxoG+f9mVtLaK33nqrsbb62PHHTJ50YlV9Q15ennlBCCmIjsn+WgJhvaKESbcSoHsEEOEY4YSEpwvAvgHCUtYsN1HQOpfEmJOcfJGSXdA0dOjQyspKEcnPzx89evTpp59uYFFMWbJhXmXmtWvXep43duzYiooK13ULCgrOPPPM5cuXf/DBByJy/vnnL1y48PXXXx8yZMiSJUuGDRtWWVkZgZYa2bhxIyKOHDnSoJgcddRRURnCxo0bmbm6uvq0004zhO8A8MQTTxg7QEQ6duxYUFBgoN5M2TZSc3AzrCyAplRagE2tA6IgYcRTHLRo/ve/S6LiiqBHTJkgGcoEFiYAYAJC1nmCqMEC9BVkCDSD6EThdscDvyhx6NhOx/zIzi/e9NyfiweeoFG5AK4UN37ylvvOgorRZ3tDT6h5+QbvvcfiHuQlLRZyWStSQIIUWAAkaOI1DMIMQZZAQBARYEV/9fgBZhWsWWxEBHz33ZVLlr52+ve/BwDa1xMnTgAAT8s1V880zbXACeOPOWH8MeZXT8tZZ5wGAM89/+//vP+e7zpHHjECADZt2jB08KHTpv0PAGjNrqfPPusMcwgLTDh2PAD4LF07V15+2U8bGhpnzbzmH08/Ne3sswREa5k8eeLkyRMd1//BWadHV7ply+YLpk8fcugg8+kqwlRD6vDDhvu+9n1/0MCDBw08OPvOfnHlDAD4wf+cAQD1dTWTJk485uhRAJByvCee+Mf6deuDzxIML8l+s/NkoShGdhWEkOIYFfbsguMAQvzKyLaXENUrABffj8vKSU5ysgvJBhePds6ePXv8+PHZzVzXjdoElf2IxptoEFMi7LJou2/fviUlJQsXLiwqKnJd9+ijj27fvn2rE0UoqNlXko1qmpeXl0wmtdaFhYVjx46trKzMPjYbx92sOBCFzUpThBAZ4fzzzu19UC9fMCqNjiBcoJnY/r9sbJEgRMImdBSsvkTIxAZYMAS0IxBBUQCWBCWFxMqu91WNUxDv3K/T6LPb9B1Y9e6q9JLra99alNelP1HCFhBKsWyteun3/PELyaN/1uG462v7nFz/6v35Hz/r5yPFkiyegAbWylQyMqIQU5S3aK5HTIVq8Ay+elxhFARSFrHIwEED/3DbbR07tPd97XtezFKeqwXJVpTJeESEKL6vbdtiFgDUzJaijMdKUY/u3W+64bo+vXs7GTdm2+efOw0QnYzDzPFEXKE4GQeJmDWLxOyYZm0pJRpcrROJ+Ny75sQTiYzjKosIwfW0ryVmK8/1fa0RgUj97IoriouLXNdYwRawH49ZzAzMMVv5vstswA0tpZTveqSQkDKua9mxS358QVFJvut6gqgsGjr00IMH9GdhUgLMiEqaCan2VbIyj7KAGSIak/Cjjab6lsNQZEC0+mukdt8vLCc5yUlLMWH1CFzc/EpEVVVVrus6jhOLxSKU0iiNIOI96d69OyI+//zzO3bsKCsr8zzvoYceAoBevXohYs+ePU855ZR58+Z98MEHFRUVp5xySnTeKC7QoUMHEXnrrbfMzqVLlxKRSQbs0KEDABQXFz/00ENlZWVNTU0GrbUF0DuguWBEBGah5kwnDCL90K//gOLikiAFILQVQoyB/67xpBkdAoEiFmCUYPUVpggAIIU7QECIMIXkIyYJLc3g+UnHrug85sy2h02C6o/Wzvs5rF2axKY2beIULxJd5zEASixFlSoOO5ZvfGx6Q9fDOo07p/D7v61/fbJecrmfalSJmK0UiAZhAjKDvoG2khCw2ABNRAkMB7ZeYJ9whAABRJESkZLCguGDBwEAs8QT8QDDkoVF4nHb9LRSSgRiMRIRG1QE5du9e9fu3buGFq507hZum+xcIts2NbWKmRElZtvm4Rm84UGDBgYPVBgAlEW2JSIiFiZsQzEMvXr1MNdmAmDHnXCsyRIipRBQESiTeCEoIlbMMsjQyWRCRHr16AIAmpkQGeTgb30rtL4Rycrqiv0QQ2ogwqg1WsBAoC2mRgsKHO2gz6AIm6kZzbfKLCAeiHYxDwhikFGIjkqwQFK7gqRln/M/c5KTnOxacCer3XGcaJVvhrWInCxiYDeDhuu6hx9++Lnnnjt37twhQ4Z897vffemll15//fUpU6acccYZruvGYrGJEyfOmzevrq5u/PjxhxxySFNTU15ennEnGDb2E044Ye7cuQ8//HBTU1NpaemDDz7IzOl0uqGhoX///qeddtpDDz10yimnHHbYYX//+98bGxtvuOGGM844w3EcERHHFxQJwQqN05EFiDxkX8DyheJK/eIXMy+/4rKeJ3zH1WSrcOXZ3Aec9e83XJpdG6bsy/zOwARImtEHICQUjSymuIQUCQALK4gD265ucKlN0cGT+33n+06Mtz//p6ZXF9j+xsK4rS2rqckFISTIIAgU2JDfyLE4cNtYRn/81NZ5LxcPvaD4yFN44CPVLz3S8N5zee6GeD5a2hbWoAJiB0ASJEIPBJFt0QjAEkJDHkC7bN/xBEkEQsoAw74Q2VhKNa9RARBburWzaQDDYykC88/mGjDHU/bOULGImKI/QgxoMAzWRdYiGDHSiQCACglazd8qapndq8EbwYyIiggAFKA5HxEptY+gC63E1KMIEWsfLWQkIbZFKZ8hphIlBXkKwWGPfcfzGZgBQcQmyovFlaUhhgJxp0mcdF1jQtk6kU9xT2WEgcCSbwioV05y8k2RiCcl8vZ36tRp27ZteXl50ZLdtDRtOnTo0KFDh+LiYrPftu3bb7+9U6dOjz322D333NOuXbvp06fPmjUrFosZTrXx48effPLJS5cunTp1anTGgoKC8vLyzp07M3O/fv3+8pe/zJgx46WXXurRo8eMGTMWLFjQsWNH43i45ppr4vH44sWL582b165duwkTJowfPx4Ri4qKysvLO3YoR0EtopCEgRAFGRG0IIiFAiIsRE1NjUHgU/uiCBGQQdCMrvRflRmQbQewWV+aOYkhABNEESAUEjYzCIsgscbStKcdTuX1GNn1OxfkdTu4dsXijQvvUI1r29gCiZinE0p8RYwI6ObHNFjQmLbT6VgmXzz2EhBPFGUaGl+5detHD7Ud+ZP2J0xP959S9dzvnOoXkpYSSuZxxtbsKAQhUIiggUHYEkEAHw2V1VfuDwjyFcPlbHYJzU45JNm4nK1pAFsd20pP8+l2fRUYoVtA86l3p//ziiH4yna2465U7bP7HYOEP0FSnoigbzOmmIuTcUo3PfXqy1v+85Fol2zFqNCOKWVp30+nUtr3fHYVYUVxt+FDBvca2D3tNsabGLWj84mIhOUAw0/nJCf/5yVyBhhmNa31bbfd1tjY2KlTp1bDgrEDrr766ksuuaSystLzPCIyXvpZs2ZNnz79008/LSkp6dSpk3EbmHCDUuqmm25qaGjo3r271tpk840aNeqZZ54x9cyO4xxyyCFPPvnkmjVrysvLy8rKpk6dWlBQUFhYqLXu1avXvffeu379+qampoKCgi5duhh75cQTTxw0cGCb4lLDSwDgK7JEtAAQic+kBS3RMUsh4qijx5R2aI8IhI0iJQhKkE2UmkHCOvOv3biS7aeJZA+88NlxgZBMwaxaWSRgURYJ4aYRETSDjbjVTdtl3bsdfXrhoAmNWz/68MGfuysWtVNsW5LifGSL4pTmmkYHisn3KZbQYLHThNiQ8orzUDBGmjWRnXR1w8bUkz9z3xhedOT0Tuf8tn7Vwm0vPZVXtzrfloxGIjb4FgJouHVa3MpXnh8QLOv39irwM7b3X76E1/ELPEVYFsDASghQ+TEfHKB/LFz40dr/dOrZ49Ahhxe2syxLxShpYQwQGcAFP8NO2nMyWxvqNlQ989wz/qLUt6ec1K6iV4Pv2D4KAGMuLpCTnHxREvGkd+/e3ewxLKZRAzNCdunSpUuXLlGJv/Evep5XVlZWVlZm0gmNxRCFDzp37hw5GyzLYubS0tLS0lJD4WZYT23bHjBggNbadd2BAwea9lrrTCaDiF27djXX4DiO4VQrLCw8eOBAAPA127ZC0RDQBQEAAvtxZRFaLkuqsfGiiy8saVOcAUzE2gKA6/uWuS9E5K9vnmArT3Or/Z9xTNa/JiGfQhoBU6bBoQUAxMIACLbtNtW3H3Jc+xN/bHHe+qfvrl3650KuKi6wXCZL2zFxUVk7UjVOfveOR59Q2K3fp4vn2wqc6rqyw0ZaJ8zauuzhZO3HRUlkIvahLSe0kti6l6s3fugO/175qIldO41O/eNaZ/NzaBGFnA1i6sAkKk9DONAP4cC4uHOyTxIAQ6FgTKNjsyrIW/bwwtLCguMvvVhZMbvJAsuDuO364GjQAkRgEcQA2AK3GxQcBoC8ec3Hf1+8uHRCiV1YkPBQIzBCRPuck5zk5IBIq/wAw3geRQqy7QPTwDgAonhBlD9o6gmz90THmpQCIlJKaa3NKYz7IUr3Y+ao/M+wvVuWZdu20WaUE5FhYTU7fc9jIkAiZiIM3OCAHkPMiqWdhoUvv/X3f730zjvvNFRts21r0IijTjpp4rGD+5Tk52U0xxQZOMWvbd1gdrdnB6A/R7p0RMaMFKLiBGyMxk2gBQgscP2K4d93oXzVzScXpja3TcTjVtx3tGMnGu1EPLO5GtLY4/CBR9+g2nX79Pnbq5bMb9/e/vitvxbqWMXRJ7U99Njti+7Yvurp/HQqL2H70CBi+QmVAMd7808fvfdc56l/yBty6rYNL5banq9jABGgQQAlZKiLD3gH5uyAr0wwRCQUQdFSGLdWvLps9cpVFb26LJh/d5/iDgOPPG4lqdUbNjhADZ7fmHEtgYIYJQnz8+3Dy0vqli577eOVheWduC694rU3Rk0a72+rRTtmVH/tPtac5OSbLNFkE038UWJgqwbRxN9Kw97HEKNk6qiwMNIQnd34DLJPnZ16FWRxmWOVwiBb2gRTWQREIRE9vvjZOxY8+M9n34YGd8i4kT8/54yGHdvvvP+Rv9z7t2NPGH7+tDNPHDs67XoJ25zoa+oPiCyAMHWMjeX0+ewA4yVBAgGtdcDEBCTiIxISaEZFoD1o2rYpL70hPx5Po0WSJihAP5FxNmbafKv92NPbjhrf+P5HqT/+MrP15cJCleKCArs2/dJ1Gz94qs1RZ7af/POGQ79X/eq8qtX/aK/EloK07TClStAvqK7hzVt1POmSSoGfEGFTrAghQXQUZz+gQYGcHfAliwTRgPAXU6cKApJQ7rbNy+5/+MVPt/P6dwpqtrz95pZ/XLz2w+FHbtle77Ltiq2UItAWp4sLYkXsbX+tasnNNyY7FGxvW1aOxWveWX5o/95lFZVpZpRsClUJX5ovIs80Jzn5vyKt/AG7b7CbZnt/rr1v06p98+K4eepGMnQAAkjK8yWu6O5HH//pzNmNGaYOnSDfGTZi8DnfnQQAZ556ypVXXzv3ob+9+vrbd9163anHjstoHYtOEVAyhJzJEIxs2YAGEbxwMz6aBJNY5FaQZmqHEJk24jdq/rtEh4e31qy2WTNClLqhlGJmZlFKYQSYLFmwLJFkE0ub6jw2TQ0FowgZLzwZOmFRhu8PFCXTdlLZmZgHSYdScauWVOeDR+dPujGZSK7725zGN+8tRCdZWEKub5HnuE5ZQTup3dz41ytqlv+rbMJVFd+/vumdYalnF1qp9zFGitD3RRGQTSRe3HctZTwRaEoZo6caUl7u85u1a8nZAV+iiEGeCD9dMMAU6BMUJ+N/uu6OD159NTZksFZ+0frGrt0qDxo9+nsDBtY5/jP/+WRNfR3F4sWEkwYNHVhSYPvSUL2t6oWnqt9ZWdCxe8ZTG9etW3Dlry+56xaJxcUPPxeM5n4wuFg5IyAnOdln+aw49C4b7CeAx94c3rI8CnfxJ5FwDhakwMetWeJx9cRLr/2/2Tc1ZpBiheedMiHTWP/Ynx9EJ33apGNHHdznrlt+XV9c8fBdd1044xdlbUrGjRiiOWQRDImFDXIZiAiQAKEAg0BQnYXNWGcBv2847ZrZjSN+nyxcHDNbY5ifRxipim5OQvi14FcJTAERYFPpwGzAmgLkBoQIAaF1l0bejRA8ICBJEhEUFiFhQBBgFNIILIIMTD5hJu7kIcQ0plUs1ehw2THT2xx3TsOKF1c/c2de9ca8ZL62bUh7JFZaNWEepR0/buWRXQIbnt1x33LqcXTbY6bnn39m41+Pc7d8mOcVpjHt2Ok8O5XgprhnKVJiucJk5ousJHwKAsoHdCDP5ZN9iYIaUEAIRIEQCApqRO2BB4wfrt+crijJ8z3V0DR6yOgfP3TXSaOOHFpUcHT74qtHD/rZYYf+oEflVSMPHUled3E6x3W/Th2v+t1NgwYO8zZvjVscL8uv15n67Y2kAZARPAQJ5n5RAAjogmTZ1TnJSU7+2yXADjQAKQEWPBNhVWPjL6+9uW79+oO6d/n91Zfecfl5HZOydc3aO+79yzGTf3D/P19ksi8+77SOvQ6q2lF3xdW/Sfk+I5oEQxFGQgFA9kUYkBAFxRODQyzMzMIcTOjCBv1FhFGYtUaUcLZlQkHkoIBcGFBYWESjaHOICAtnbQtHx0Z/MmmVIlohEAID3Db3nrffe5+I2GMU1AGT8E4ultDv0EwvIBGzZPDDgaWCJEhCIoCoiDNxrrY0shQ0ktWIifi3xmxcU7Xl9guStWvtOMWlKa4lQwV1NmlKas1+PJWhJheb4rF4G6+J3v3rqj9dAsl8u6yb75JispAZQdDyMc+DmAAZ+EKRKN5hShe+kBE8Zwd8aSKAbjArcwxEgQCCFtS20i75frdv1ZaUEtSp2qojjz89lWi3+sMVrjjMOqG52PbbF8cyNdXPPrNoe9UWn3TG8ay2HYeOPyWvqjqFTU3JuN27s5Voz2wDsqA2aS4gDBwDEcB0s28gJznJyf8BMezCErACG5gAlxT99cU3V7y3ZsqJxy6cd9NFUydqzXWugvySZFmpE7PP/8nP3/jwoyM6tf/pmSeDxtXb6p565XXW2tMOM4N2PM9lrZV4BJJyWfuuRZ4H4Hqe1hqVEgTP91zPNRgvnu95vqdZlG35Wnu+52kfiTT7IC4zi/iiPddnz9Piuwza8X3XdXwWBvB87Xqe5/vM4rN2HMf1PBbRIo7rer6vWQugdhxxMkj05kcbp55/yRvLV6mYyjgOB8R9oeuhuXeCPsqiGTJRCRImZBIhLchIIkhMxCQIAoop5mIcwbfEYUgSE3gN0rQ5mafyLEXaFW2zBxakEuCRZsu3Emkmv1Gj7UmbBkjGYliqUjrdyDqObCtOJ9ghBpBCDUWMDmKaRYmgISDG4N8Q6CYXF/jGCoLEQQDQB/SDpBSxmRPEGVv7FcUV7+Hb8Yaadmu2FfWqqE6SricQBUCgsLS4TRKghGHo4aOSRSUuJnRci6T6Dv5WNylc92lTpk1pg2VToY9KtBBwAVIGyAEuBGRADVwIOwXIcpKTnPwXS5QQJBi48c3aedUHa2fOuvJn06bkI7oZx47HQRgQ0ul0ZWWHQ7pXPvnI34ddeckRIw8r79Fzx9atL73y2imjD1dWIQEUFrVJxwuUUhTLyy8qJAACSLnpvFgyDsAAja62LVVMAAAOgOdBsQ0MoAEaU05JSYGBJHQ05LVpjyrRrkN7IkUENgRTkgDEwyWqB2BTsN8HsACsLCS3aFsDWMk8s33PtbPmPf7MWZddff01P5swcrDv+6DULjBVwrB7iJAYkg8HeP7GZcth5V6Yy2U4iIHML5GRpQhdQcUBFjEhi2jQgIgaCZEAmESQPYs81KK0T8Ag7Cq3UcVJ4uRZSlsKa4U8P0oGCDMXQngclIBp6EC+Jzk74EsTAY4D+EA+oAYRAAUSAybAmJvyJ33nhE9Wvfrp60uKy/usdhq7FHbo0qar8giEmhxZ8Z/lTz7xdK8Onf5n6nfzYwVemj32trlpXVa+oW9n74Vn2x572NHjDrcLdSblkBQDKEEHAUQUkgNCwElQKWDK2QE5yckXKnuZJ/h5Ewj2PvEwm3UEo5kDBJAMwmu6vrZDm4JtVbXtC5J5ttKsHc8FssB3fd/93c9/2rN9GYhfUpBXUFLy6dvv/fvV1+befV/7rt0H9Oz871df0/lFf+tSMujgg5/62z8z9XX5efZRRx/95lsrtm3ZYMcTo0aPra6ufuuNN2KKe/cd2K5Dh+f/uSget9tWlB9x2JH3/elh30lbln3Mscf++8VXa5rcG+bM/e6J36mqbXh16RuWuAcPGtSxc5enn/6nxW77jp1HHjXyySefdjMpsqxJE09866131q35QCnrqHHjGuobXl+yVBH2HzSwa7duTz69CLVXVlQ0ZuwY7evCiooTz7rwgVuu+v7E8QEc/K5ZWJuTKc1Cycy+YsKogoIUMf1wiPsPwmLirQwCCAwsbEIMAgAmlwKD2L5GYlCWeCS+koxinxiQBcQHQJa4SBLQQ0wh7UB2wE+KEiBtrkaMFRAxDcKBp3rI2QFfrgTEwhh8nuhY8ZTHyFzQuVunc39wyZxU/keDDn5dF3263SktyIsTcTpVQPzmv5+7bdYvB/TuNnTo4ESXHvUS85q0lrwPET4YN6azp8/+/jkjjhhbl/IJAdEFqwbYF90W0QP0gS0gLwcpkJOcfAlyQPIEP0vt55QgBU4QGAPoAADYsf3Tub+6tunW3/3m4nNAtIXK8RGArFiyYUfVlk2bB3Tvwn59+9Ki6395yaMjBr/+4our3luVKCmpqyuuqa7Wab1x3fqB/Qds2LCxsWpHQdI+7MiRO3ZsX7f2I6D4kCEj6usaPln3CepMWftORcUlG9d/IiKOBtdxt275tL6qyo7FnbRbV1PrN6Y+Wb22qb6hvqZm3dp1lqQ7VXZq07bdJx9/jH5Gg+W57sZPNjQ2Nti25Tru9m3b1q1dSxQbPKypvr5u3UdrEVV5p07l5eXr1613HEd1Lvdc/9OP1mnPBT+1aduOZorFXRdTN+8XbGZiNnCCSKaA39AxmBwGU1sYcLwTQpC0gCDNpSIGmEiAhAAECEARa9ACqH1UBMrHmCAqjUqA0UPKWABKa5QYQ8JH1xYfUIkYtRH/nGRlTH6luMI52SdBQBfAsDLEQAjQYazeWvN+aZtKz+2NMZ0YdEh82o82bKpZsv6TbVzibyioU02qfsuINtapJ4z4dtcb2rRv73eSv73/ykZM5CXK2lPZ25vWVxd1Lz/zsspDhriNWic9JZbjrmtMf1ya3x8lJpgGkcAakESubjAnOfmixUwGrusalKEINSiCOTcYAPvsDzDZd2GBHEeF8pHCLM0YIIqhL4jAAURd5/IOqkP7rbU1ALBq9cdP//vVxqY0oAWoMq7XkEqLiOs4ZYXtRgwd9McH/nrM6MNvufpyM3ZMOXGCl1f0kx+e3NBQf+Os/2dOk3Lcwf16G19+k8e2Taccf7Tx6ntaRg+9zjSrS7u/m3W52c4wtCs/7f5HF9015waz57hxY6KbHXL97Gj72llXRNu9z5oKZ02Nfp0wdnS0/Yffzoq2jxo36pHnnr3l+pmXTD1Fu5oshF1VDLSSrHWSwVgwPgChYGoPe1Sigu/ABSCIIOZBY0BrB4BCQR0ka2JEJiTUAGIltLYdyGNGxU2ETQxFoguV65K2QTW45FjKinmog3fHZHaYssbIajmQw3jODvjSRIB8YEGMibYQbBGNyme1ozElBbHeDjXWS3qN/lSrDh83eOtWfxR38mopaZFs2LS1bESfb0++wJXUQ+98tHSjrqI0W5tUUzqhtKiSDRn41E9V5KcTugatvCrnA0RRlK/BEyEiDeiCEORoB3KSky9LYrFY9q+u6xp0v1ZUaq2kFaXhLpFwDFCxqZVXSnmeZ0yBXdgWwTJYwHgCkBAJEQcfeigWFLz7nzVNPnfv0vnNt1c89tjC/IrOErNTVe62rVs1cyK/3Zv/+eiCGbNeX/raDx+c57qu6zl5yfy6uio/43qex07TNpcFLZvTtkVVKQLRKKBs201JvdYAQqSIMOX7hrHFslRVTYOp7ksmE/U7tmk/9cmGzZWVHZi1x0AilgIhpX02tYOWpbTvGxPIYC2b21eWMoA/5q6VUp6bcjJOMr/outvumv+nB2+89upJ3znG8T1LqWacgT1Jc8YgIwoImxA9BlO+4SMQNnAsBqvJBAYEFDAJEwMTmKItEgZAheKQaOSYMGklGpQI2SKKUg2qss7hcuXEpbCG42TZpBylJe4qjQIh6TxDhCf4hUjODvjSBEEsQB9Em2QdYIUUL8ovr6r6NL/dpiQk4/+fve+Ok6JI33/fqg6TNu+yC8uSgwRBkSCSJQiKqChGjMd5inDiD5UznZyKZ/6eIJyinuiBB4cKCHoEMRxIchVMJFHSEjeHSd1d9f7+qJlmWKLnKoZ5PvuBnp6ut6t7uqveesPzFn3ZovgzG88MUT1bBKoNrwEMeOrekFi1izfK9ZWF5artkf0RP09Li0JYmgZAVT1Z3Dh8wCyugvTWgWhKmdhsierc9C7CMQgjCDoRoopFSMYJJpHEjw81eS9btmzt2rWqpkDbtm1HjBgRjUYVGbCaz9ziArUYgWKJ7/H53pXpHuDSGtq2XVpaWq9ePVctqB2XEKPQURUFUErSOZNSDDinc15eztoPV797W3MsAAAgAElEQVQwc+7YG67465/vrg6G31nyIfh8EAmVVQc1zud8uOaeBydt/2LjWT269T37LF3TgBzGGDKmcabrOmdocA2Q61IDJg1gCOr0hAiadogGkbvUikRGrDQzciAdAYg0Q+MMAJnJOSMCEgCgGVpsZY3ElSgEAOKIwHlsVcxAYzzG0I5kcF33G6BxYYf//uyTA3qeYzsCBRGXiFxKYCxhFVSrOB1SnHbNTc9nFKu0GGM0irEdUIzhgCRCrOAuuBRNsTqyIDFmOSC3jh4Ql4SMo21bHkkQOqiVbMjsNzYsg5VfLPTqFRHD6+FpJCO6tDXh2BrDWExinPL4ML9G0h7wC4U0gRGhzSBKxIk4OKYHmwhzVxWtzwien7u/8qrQx/u8ayvD9apk/Y2+htu1/P0stSIzc2G18+UHG0KRygrTUxPwZ0ecDtEdAc/+duEvG1K1nyrqF3eBps0qzEYV0de9RlOD2thOmGkRBElkgvQCELBoMk4wiSR+bKg5/rnnnuvcuXN6erpt216vFxE9Ho/LE+yyBR8ZTFDLfZC4U8Ftu3Llyi+//HLs2LGMsUTzQ8LB8epAUlBMIyASVn5m6p/uuXPM6LuemPxs365tOrXtMPcfk6e99u93/7tq9arVwD1vLvjPzX9+pioYhayGN9/6h6yATwoLVL1CQh6jB0KKRcMxBCJkig//ZMLYSBEbMYbIEBCAIUnJkAAYoEQGhIAsVmLvqLXqEjiOVU0g5AY50nEiEyfcSQAhR3LiSA6DKJAXgBHJQ3cmZiZR7Gpu/R5CiBMKEal8AXSJ/WLdVupCrN5CLDSQBBAgMASO5ADDWHEg1TskKXWSOhAjGWVkp4Nmle//7o0p2uDfNxnxULD9tbtXPIzfrvVE9nrIG9WAPLbfNiUCIUhJKmTxZOwZ/xuSesBPCLSVokwIgFFAIGlqvFG22a64atXBjB1GanVD+7Mm0s/kBiKwqvgBo+U+phUz7zdO85WeHmlQfG3linwtmC3t+uESx65Mp0rioWrypIZPJ8s8qK1Aq1l2oJ2gSq5pAB6SgMgABYBI8gonkcRPhnr16t1xxx2BQEB9fO+991atWvX55597vd5XX3310UcfvfHGG4UQL7/8crdu3ZYuXbpjx46uXbvm5OT8/e9/f+CBB4YPHz5p0qR58+bdd999Q4YMmTx5cmFh4fDhw1NSUh599NGUlJQnnnji8ccf/+qrry644IJNmzb95S9/GThw4MSJE1XB4rgOgXGaPlOLrZt15GQ5zm0X9A2Nv/HuR58aOOruFx+beEnvs8ffeNUtN151/R0PPD9nftCR1aXFhqE9dO//+90FfRzhcMaAawCgIVfrUhs5IWoQJYYSTC6Fmt3xpGYsBEACRsjVNCyVnx0kIUNgSg86OVHxORmB6Uwnw7ajyDSTcyBiugGSx8P4DicVVkUFCAE4oANAAIpyTUihETJEYDKmiAgEgYQilj9giKjUuK1rPiDL8QuWFWEsakUsj2Fwv59qkIIOQ+AmWprJNKFVEdYAcI38Iho9KISV1mivjVmvTihp1jR72L0tbvjnt+uWHNCbpoW+kmTajglkK18DgobgqNxFOOwC6mwkT/II/YRAlVjCkZiipUACR0CKVj8V/D5vtWl47WDEsHS0/YIJHY3WNd/2Cn8+JPLVxfBNB7G/Cx44n33XN/xFh+iGDLY73ak2IgGt2mcE/cj9ZqbtS/3G1DIMLYtUTCIxIo0I45mK8ONplEkk8ZuCW9XGRa2CN5FI5LXXXlu4cOG///3vysrKLVu2bNiw4ZVXXrEsa9OmTbt3766pqamurt68efOuXbtWrlw5d+7c999/3+v1PvbYY2+88casWbOi0WhhYeGSJUtWrly5cOHCCy644LLLLtu8efPixYszMjJeffXV3//+97fddpvf758/f35hYWGDBg1ee+015VlQPoU4QR5D5AyRKRsDIkd0HOeuP94y9dmn/abv0gsvvfrWcW8sfm/lmk/2F+3Zvf6Lsq3bT2/TfNoTE+8adbVl2ZwxIkRksRgDBACQyIiIgwCUEpCpuHmCGF3wSfzFeYUJIM4zHGNCBkV7FDPEn/APCQExVodJ0zRTY5wjcBaLMXDNLgm/X9xrQgjE4pUOFHs/ScmIQBKCVE4VkhBL3gMCCTzCMcpMEobXDgXoIJZtbdSmZeC826W3oVNe4ji60HIcCthRDppfRgEdbukB5FhTXWGnN9IGjG19x6ye4/6e1/2yyp1bPp96S/nKuc1OP6fVmf0tDxjkpNpSQMwvAKBqyNaiEqxLRrikPeAnhPLNY5whOxYHZDMtFanVnH8sPf+MHpB1NqvayQGF1B2ZGuFhDkEDIrnOznz4ph5W++wyS5LGDZtsAkCppUifw3WWXf+9RQuL5OeXDz3PCklgGiIHiYQq3IXidq8f0biURBK/HSTa82spAW69we7duxcUFFiWlZaWRkT9+vVLTU09++yz9+/fHwgEVF1gr9fLGGvRooVhGHl5eeedd155eXnTpk3/7//+r0OHDvfff//+/fs/++yzpk2btmvXTtM0v9//0EMPWZalKgtHo9Gvv/66pqbmgQcesCzL6/W6uQOHih7FCvwcZgwkAClh9BWXDOrba87sfy9dsfKP995LwP0e74UXndfr7G4XXTyoeV5OMOp4NFVPOe5KjznClQcA1ZQdYy1U6QiAJxxk1MGKvFfNvkiSkFGsnECs2k982DoR3Aho1xafkGFHFO9f4g2IU/TEKVbdQghxv4Akl7oHiFCFCsY4fZgNPk0wE1BK0kytaNkrvurvmp53p+x3bdGy10o+WeitLkvxegWLRiBImqFDWkVNNBpo2qD/eQ16nsdN34HVH+sc611yY3rnId8um75/0V9Cq19rcN6Y8qLPJANiBBKVaSRGZYCAPxobbFIP+AmBh5ROdP9HIsGyUtq8/MLtjSa2bnf6ecUfPpPrE6YAkyqC3GeQBgI8UJ6qlabIsEdGqxFRQsA2Qp6wpUURrLDBzIYF77w8u22btj69fqko1ZlHSvVEq6dIACIQT5YaSiKJOsGxQvpd84BlWbm5udnZ2Wq/lDIcDhNRRUWFZVnRaBQRq6urS0tLASAajRJRJBIJBoNCiEgkkpmZmZqa2qtXr4qKivT09FAoxBgrKiqaM2fO5MmTN2/e/NFHHzHGvF6v3++3bbtXr17btm2LRqO1gg9cbSAxIJGxWEpbNGy1yM2+7/bRt47+/YH9B6JWVCdoXNA4YGoCIGoLD1NuAKkm7XgKQmx+jF1y3LGOid8eF/HpPWGaj5H5ASkT/qHiRCcJt6iaW+IwdibFvINHcYlibes6xqr5Ke8+gzi5v1S6ATIJRFESYc3mJocoEoFXJ1Or2LfjnefFmo0Neg5qeNnvs/sNrVy5cM+Kt/wUMrQo2lBBDXL7/s7f7bJAiq981RtVa+ZESr4jjZdu6ZHT78aWo/4a/nRp6dvT9sy5kwfShOBCJ24jsXjyIhAQOzxfIBkn+IvGociXmF5tC0jLyBk39padu3ekYU1DP9gcHeAR6TUlmZI76NMg6kMKSPLZ0mFc51IwTQJnzCALwPS9tmBpj/PO7XfOBVVVYcPwAnGSKpaFiKQiwUwaA5JIog7hxvarUjeKKoCxmN08PT199erVTZo0CYVCBQUFKSkpKp7f7/drmtayZcvPP/+8qKjINM2MjIy0tDQAyM7ONk1TCCGEePDBBxcsWNCkSRMpZdeuXQsLCxljKSkprVq18vl877zzTkpKSn5+/rp165o0aZKTk9OqVau1a9d27twZABzHOaoq4JorVLcRUNPBsSISWJphZBY0VE1IUjQcRk33agyIpBSMcSAgxb97aEI9zNR+LJqenwKxOoh4GAdAnEwhvus4Q98R3DyqcmHcKwGEajVOArjuw5SsMCMIBT2BdM59SLYHkMyM1OKVB+euKlq1oOmFt2UNvSO796XbF70c2r4qq2XbpheOEb7M8NbPN/1nun5gQ5qXaX4DND28bd3unRsDHfrm9bslf9w5+977m7NlQxpYwqoi9JIEAtcqQETsKH2uCyT1gFMGjHF+kuRaTTTU79yBQ/sOvnZA/XYdc0KVZeCtAuCadBhZgD4HQWIUMcrIMggcqhG6x5K24QBYGgCbOf2V//fAM5lZeRXVQU1DZQYElIQqATaZLphEEnUJ1x6gUtiVS54xJoSQUmqadvfdd+/bt8+2bU3TqqqqLrvsMsuyiGjUqFGapvXv33/dunVnnHHGyJEjdV3v2bMnIk6cODEzMzMzM3PChAn169dv06bN+vXrn3zySb/fP3HixIyMDK/X+8ADD2zZsmXq1KnV1dVZWVk+n880zcmTJ69cufKaa65p1qyZEMLVSFwzQGziT/BiKF1BAmkGcongSBWXjgjApe5hGKtRRJxxAiQZm09/vcXKyFVkJEkByAnjFg4AIA5oE6/csTn3ku7s1ge/fefN6Lcb0wwHTORE3nDYMXmq4WUHth78+9iDjU/PGTiy1VX3S0sy1Eq/en/ffx+S+wpND8M0f1CSJhzdsb06sEioqnAVb9Cz0bk3ZXa6eO/Wrx1LaAYXKoJBIsUYCvDwOMe6XNQl9YBTCFTsE5yFmQBvoNGLr8zyVu7TfHtl2U5pF2lWWU0oWOlwQX6hO5VaAy9EK/TKkCYtPaQzb9Sfyoxcr5Gd7s2e+68mBe3PDVWGNI6EhIp5AglJUkwhxnhFjaRGkEQSx8RJVgdwD1YzrorPdydgx3EaN27cuHFj90jHcfx+v5QyKytLaQzdu3dX+xlj6enpUsr69esLIYgoNzfXcZzMzMz+/fsLIRzHadCggdIwGjZs2LBhQ8dxvF6vEKJ9+/aqG/3793eluR1TCorKIHAvTTENMKby6DSHSAOGCIAMkBgjiUxIxlFx6KoUdgJURX1VZN2vBir0L27eiJs63NAFBAYkkQMAkm2bgYxtS1/ct3dj035XdLr7+b2fLK9ZOS+4cVW2hwQ6+4ysDCvixVCWH2r2frTjlY/LTz/PbDEwuOUDZ+sCTfNlmLojUACTXANNRoKVDmWknH1Vfu/LvJkpRQufCH/yipd2exjjFq/RFeUwgVTMhIcCNCD2y9QZknrAKYPimyAALkg6RkQ3W5/eyKzxlPCmZF7GHOYJlQZ0xxGmFhHos+3vot6UtEAKRUTE8IlMCgQNL0npSNJI5FJJcVWx4UtBxw9SI5SAipArwS+W9AskkcSJUMvlr0h81ZzKOXccJzFC0LZtNevrul5ZWWkYRjAYzMrKchxH2QmUhUAJ8Xg8juOUlZWlp6cXFxenp6e75gR1pG3bpmm6uoXjOMrMoBb06gDGmLI3OI5j27YQory8PCMjQ3UMEU3TdFspsXv27MnMzNQ0zfVlRCKRcDicmZHhKLFS6DonJhBQIhIhRze+DmKxfHG/wPfx2f/8gXFPAiUOj7FUBiACiSAV7YokyRj3O7b96X83f7om0OmcVpfeJM76v6pVS4oWv6aF9mVVlaPHHzbMKBDz+tJB2F+/KzYvsxgz/Cle7rUjwRRmMTtaEeVlPCWrZZ/6w25n9VtHC9dte3ESCx7wYtRiYGmMS4uhRhQLoCSSSh2I97mOFYGkHnAKgTHKSPSQZCZUHNyyxNlbWGZmMaNZim56uS+cojuaz5DoWFXVNXol2Zoe5SBlFdSEDpZjGIMHoDroRNGkqNbyHH/LbIcIQBwixYqBJWq7SSSRxLGQaEhX87Hra1dr68SDTdN0W02ePLlTp07t27dPT0939wNAYpPCwsIpU6bMnDlzz549qampXq9X7VdrdLdVzGgvpaYdNkTX+qi4g6666qopU6acfvrpbk/cGAXFZ1xUVJSfn5/YcO7cuVlZWYMHD3Y5/2wpiSmqPOAQU4UIMJaPdyi+uY4906carj2AxfO6Y5UIQELMIK+YhqTkXHOI/LbNkAUxFCmct27z2rSzh7fsf1FOtx57ViyDxa+Vlu32perAmEbIJWdGhtAhnYSMQoQL0+svDVVa0vQ17dps0I2prXtXbvrwu0W3ezdv9OuV6HEMlA56qsnwcKYJGQvzBiCKkRvG+1zH1LBJPeCUIZafIqXNNcEjXhn0NutbndMjff8u/eAGX/gbQeWakA6XpXoqF6FguEsxaBVFH3GJAcqo0MJ2gOksLYU3YvltzPyOjietxvYa4HCUpAx9Lk3WoXMmkUQSJ4BrUVch/cuXLy8rK9M0beTIkZMnT/Z6vY7j9O/fHxHnz5/fsGHDioqKW2+91ePxMMbWr1/ftGnTd955Z/fu3aFQaNiwYTU1NYWFhVLKfv36rVmzZvv27d98882uXbsaNWq0fPnykpISxth11103f/783bt3BwKBnJycCy64IBqNmqa5c+fOpUuXMsb69OlDREuWLMnMzIxEIsOGDZNSzpgxo6CgIBwOW5b12GOP5eXl1dTUXH311T6f71//+pdt240bN+7fv//mzZtzc3P/85//pKSk1NTUnHvuuevWrSOiZs2arVmzhoiqqqrGjh0rBSCLWw6Vo+BQiVvlUjy0Hv21QAAo/gAOyABErF6A1FEiEZcgAQEJkZEASQQOSgQGTDc0zR85YC16auPK2en9R+T3v5R6Da/5z4xo4QJZ/E2a35SACBoJH4BlyioAT1mlRzQamN57RMHZfaLbP9326nj+6b9zPTp5PYQcBFpgGCgRIoBcAgMmpRQcOCInyYEUz3Ss9FBSD/g1IJaKypA7tu5w5qlHVbvyIORt2iDaqnVIalHb4Y60nVC6FhFMK1t5IDe/KbQbXlYT0mRaHkVTDW9ERyatNKTi8lKb7DwzPyJBMIyVvkL3TIln/jW9xkkkUcdwjfCRSMTj8fzzn//ctWvXoEGDHnzwQb/fP2PGjLFjx2ZnZ0+ZMqVt27bz5s177rnnZs2a9e6776ampkaj0fnz5+fn5y9duvTKK6+MRqO7du16/vnnb7755o8//vill15q166d1+vVNO3111+3bXvhwoVjxox59dVXg8FgYWGhz+e78sorp02b1qdPH6/Xa9v23/72t4KCglatWj366KN9+vSZOXPm1KlTZ8+enZGRUVRU1KpVq4yMDJ/Pt3///gULFjz77LMrVqx45JFHcnNzDxw4MGLEiOeff15KOWvWrPz8/OnTpz/xxBPBYHDp0qVNmjQxDGPZsmUffPDB7bffrvIYNU07NLXEwyDj1vI4eT7UMYPNqcbhfoHY3BrjN0KgWIg1QZyVASRxICaAGEmJ3JuSVm1Hdi1987u1K+v3HN72otHB/tdXLX+56P3XAhgBkulYWW7zqJZj6nqjoTdk9LxMqyre/urdoa9XWhKy0rMc4SCpMIRYGIBKmGQYZ30gqdiL8ZBOVseh30k94JQBXfYLptm6SRIxVLVj/VwDS42sPM2b69V8nPmF7on6fJ9F8w+G0LP/4DdZmCMOcEdGrDIWtIQoj8iKfSUHWVp+/S5DQ5hOzBOjDnHJIpPzfhJJnDRcv4AK+uvTp8/q1avnzZtXUVGxb9++1q1bX3TRRZmZmVOnTm3ZsuUtt9zSqVMnxtjy5cv9fj8RFRQUbNu2rW3btm4Y4I4dO9atW7dmzZrmzZunp6c3aNAgMzMzLy9vxYoVHTt27Nq1a2pq6n333Zefn9+jR48ePXr885//rKysTElJ+eqrr9auXdu+ffuSkpL09PRt27adc845Z5111saNG8Ph8N69e3/3u9/5fL7s7OxoNDpgwICuXbvWr1//8ssvNwzj3nvv7d69++LFi9esWdO0aVNd11u3bj1w4MANGzYsW7asYcOGjLGBAwd+8MEHy5Yt69Chg5tKULveAbq+gMPSBX91iGsDAMqWCjLGOSiVBqDKChMQgEAiRImAQqKw07jt5RCs2hGcN2nzmtdzBlxbb/AfsnpetuM/L4Y+X1pSVaSn56d0u7zJwGsAqXTxC9Vr3pTBMp/Xn6JJsqVilIut8QmQgSJpiDkEiCSpCIEf0bSb1ANOGRRlJJMguESo5AJ4izM/2lP23XcfdhR7G4TX+yy0AMuNrO/0+h9qPfb78iLh4n//d10n2JQNNhNhjySpBXbo2fuNVpd2vtbjyXZERLJYqexkRGASSfxwTJ06tVevXlOmTOnZs6fP51NGeCLKy8tjjG3duhUAtm7dWq9evcrKSuXU93g8mzZtUs1feOGF9957b968eW+//faSJUt0Xeec67pu23ZeXt6ePXsAYO3atVlZWYocMBKJ2LatGIe8Xq+u6wMGDGjcuPF//vOfoqKi9evXSykVs1AwGLQsyzTNmpoaTdP27dsHAKWlpYqE4MCBAwBQXl7erFmzvXv3cs4ty6qqqqqurrZt27btrKyslJSUuXPnIuLAgQNzc3N79eolhDiyzPFvDodKCzJVppFAIsSpBJhEkECcACVoEomT1K1ghsbBy2Xx1t2v3LXvo7nZQ8a0umFS9c6rt61aePrAKyEt78DHMyuWvOpU7dVNrpleHSxuRSzNFz8lAjFiACRddwzFCGjdqoaqf1jnBPFJPeCUAQEJJAEDcCRYxE3BJWvQ4tODwdUePcUDKZYMm6gLKwhOMc+0DF6iZ32s9/oSzvQQGhIIhA4QrKnumNfY7ymACAiP6YiQjiAPp/hIIokkvhfcUMG+fftOmzZtzZo10Wh09+7djuPceuuttm2PHj2aMTZjxoyNGzcahjF16tQpU6Y0aNBg586d48ePX79+/bBhw3Jycq699tolS5YMHz5chfdnZWWtW7duwYIFoVDo0ksv/cc//jF8+HCfzzdx4sQHH3wwEonoul5eXq7W5c2bN7/zzjvHjx9vWVbfvn19Pp8KJgiHw6mpqddff/2FF17YvXv3ffv2+f3+Tz/99KqrropEIg899JDX6504ceL8+fNbtmx5xRVXjBw5UmkYytlx4MCBQYMG3X///aFQ6N13362qqmrevHnz5s0V1UGtOoe/RRDFo0QBgBhDACalRARkAFIgIyZIcmYDB6ZJIASHhJCSAU810jNF0ZfFL42q/uic1IG/O3PknTtWLS//8JHot6uzjBqf6bM1jwTHsSzOOKg5gMV5FJUzhkGMRxCIiJhiMUI3h0W5lKkONbakHnDKoKpaIkpJhg0+LoXpQIus9ExvvW3CE9S9FRSt0sgPEdIsTSC3LYno8MwySJPALTQZOkKLpmN5p/ZtTBOivMaBGi69QBxY7aCAQ2Tjx3h6TnjAsZqc/AHH/3jyOLKrxyJ5Pf65aklws8Zr2UhPpifq43Ea1pJft69xEj8GNE2zbXvEiBGtWrUSQtx///3hcPitt956/PHHc3NzO3bsOHv27LZt2958882NGzfOysq67bbbTNPs3Llzdnb2hAkTNmzY4PF4unTp0rx58507d9arV8/r9WZlZc2dOzc1NbVv3755eXkTJ078/PPPW7VqlZub+8QTT6j0gSlTpmRmZqql+YUXXtisWbOKiooePXoEg8GhQ4dKKX/3u99pmpaWlvbEE09kZmaOHTt2z549zZo1GzduXHp6euvWrQHgySef3LlzZ5s2bbKysl5++eWcnJzp06f7fL5zzjmnbdu29erV++tf/1pQUNC+ffvi4uL8/PwGDRoojoHf2MN5KKn60IcYDXPcVUCgyhoDAklgyIAEB4GSCJgDhkBkqDF01MzN7bDP1JDroa0rDn63dl9mi1BFcbYszQ54iTw2cCFIoIaa15JRVUYoFhEQLwVHEiE2VsQtAfHAAYB45mad/kBJPeCUgQgZSAHcKyIpjhXV0qyobJ+dNqhxvcr1O51UwUQ1s3UujRAzdIlEzOLMEBENLEJKIxRcD1ZVDWrTtHNOBnfKwkww8mjIKVajKvFchyZORUtSqzOapnHOjzpXuYPCUWc7JQ0RVWo151xZIBljmqbV4mNRH23bVslUR867iV06cqc7Nrm9klLats05V/lUaqebuu0erHp1ZE+UBNV/XddrXelR78Bx7o97wFGF1CpL8xsbbX+RcBkCzjjjDHdnjx49unfvruoGpaamdu/evWfPnirxLycnBwBSU1Mty0pJSenVq5dK2ysoKCgoKFDNhRBt27ZV247jqAoCqjihSu1zHCc/P189wOrlateundr2+/1+v18IkZWVpY5UIQgAUFNT07lz527dugFAKBTSdd09aTQabdKkCQCo8AVXyJlnnqmYjNu0aaPkJ7IQnor7/VODYhwucbM8Sharz0gAQDLmXZUSgFRJQkREQQyBcbCZFMqvS4xLkojS5lwD6aAWQY9GUjcZonSqduegY2rMcQQDoTMb0RNhpg0cgTNFYaTqFzAJhCBV9SY3gxGAgKQkt+wRKVaYZJzgrwKIRBKRSRsNqenAwwjStD2DWufVhMvn7SzZ5c/NEo5HBIBChrAQrJBhOigEySqeSo4TCO8Zlpt2fcNAFlVFpPAK3WMblk4OSkYs8TlJVALS09OP2p/Kyko1BBw5VyXO1gruJKpY0xMXwTU1Naq2SnV19VENAGoUC4VCihQlccpM7M9RT5pw91AI4fV6FTF7ZWWlmmullBkZGbUuTQhRU1OTaO10+28YhpJQUVHh6gpHvQOJNdxq3dVEDamWtlRrZ62GJ/OcJPETww0SFEKo1H/LstRPpuv6tGnTlO4ohBg6dKhSFNT0aVmWpmlSSs65UnYRUZni3WdPacnuA2bbtpKsbA+Kq0BtKB4hRHTlO46jygyqU6ivlJw2bdq0adPG1ciVUu4SCaiO1XoIlVjVQ8Ve4IZGnqIb/1MDCSWTKGPcKhhj8lc5ecppK5nKu0IJMW4B6YAJwBlYOlmShNIMOAgGlikBgUnGuIwiITENkBl2UNfNMPg4UhQNicARDBnR0GEgBZrx8kxSlRQEBABGJBkI1UlCichQIpMM4iWUknmDvxIggURghI7m2E40IFIRyIIDKWXbRuVYnU3/ktLqz4P+EhaxyS43GLOZaTPLAd18/gMAACAASURBVOH1ZaPVj1X0Ortpa6zxVnzj8ALmyZGANpdSRZ4enizoKgGBQGDmzJnTpk0DAI/Ho0KTiOiGG24YOXJkJBJRQ4watizLUsONO1tLKYUQmqa5pGZLlix56qmnDMO45pprnnvuuWuvvfbyyy+/4oor2rVrN2HCBNM01UinJKgR9rbbbispKZk0aVJ+fr4KuVKWA0WbqgYjt4laGKmxSS3Z1cdoNJqSkvLZZ5/9+c9/vuyyy6677jrLsqSUpmm+/PLLs2fPtixLjZKZmZmjRo0aPHiwqvDmloSRUnq93m+//XbChAmnnXbao48+WlNTo0ZDx3EUQ4s6WPXQHWRdzvZEshdlxVXMcaqerNtWcbpZluXxeBIT05OqwM8Trm5nGAYRqWnV/TYSiRiGod4R9cSqx9KdU93pP1FO4g99Qu+7a0hTtEKJuqZhGC5HkHs69USpF9O1tKk3N9HZX0uldt+mGI1uXOZv5LGk2ByrS0YgBQjmcFuniEOpgGDaES5MRA0QACSipgzzDGO1jRF9Aj1q1uaCkDgwg4MgRF1IAEmICIRScMaEkBoDkFJnjDgwKRk4KAkYYYx0EpGkighEJEACNKOal3g1A12THgfDYaPGwx2IBRRgMm/wVwJSaqZkCFIzECMGMABkJKUfWa+WzZu2zymKyNLK4MGqqmJhCYcybUjTs/SsQP1sX4e0gN+pxOCBSCRqIzcNMxSxgAkGrJbvyB2k1OBVXFy8fft2KeXBgwcBIC8vT0oZjUZVvnJKSopt2yqZWPGeqmU95zwSiaiiJpZlRSIRr9drWdb48ePLy8uffPJJ0zRLSkocx1EJyq4xIC0tzbbtYDCohicAWLFixa5du+6//341VqpBVghh23YgENB1PRgMulOs0l1M01T1WNWqiHOuelJaWvree++puuxKodE0bdu2be+9915GRoaiaF29evWKFSvmzJkzcODAkpISv9/v9XqllFVVVQAQDocXLVpUVVWl67oQwuPxKA2gurpard78fn8wGJRSpqenR6PRmpoaJTYajWZmZirDhuqSWj76fD4V8q00KvVR1/VAIFBTU6M0gN/UqusXh1penlrfejyexMNcb5q7xK817/7ACJhac3MtPsHEPh853x9nRj/SslXrvL96VSDGzSsYcIkqQYBLkAIJgBCZbrEg4wBIgEKZbxEJVblmIsEYIMSLEMhYYTfyAqjEP0KUiICgEQBDxuJFm1EKiRqgDhwQiCSDmB1AMkXfRERIuuSmbTkoGOm6o0nOiUkSQgUTABLKugwRSOoBpwzqBwckKTmhUWlXc90g8PoyWglHhsArQT+dB81cX7R+quVIznWNIbNtU9hFJaXPv72wb9sm5bu/Sc/Mat620+aNW1o2b6IjOEIi56QqVh5RcrSysnLcuHF33HEHAPTq1Wvfvn3btm0DgB07dqxdu7agoODLL7/Mzs5u3br1zp07t2/fHggE2rVrJ4SwLCstLU3tbN26dV5eXiQSWbdu3ebNm4cOHdqtW7e8vDwVfxQOhzMzM1NSUjweT01NzcqVKxs1aqR8n6oz6enpauXt9k2tlVNSUrZu3XrgwIHmzZvn5+eXlJR4PJ60tLRNmzYVFxc3bNiwcePGak41DKOwsDA3NzczM1PNtYnjl8/n45yvWLFCOVZnzZo1cuTIt956a/DgwRkZGQcOHCgsLPT7/W3btlW6UWZmZnp6unL37t+//7vvvvN6vZ06dZJSlpWVffbZZ+rIDz/8sKCgoEWLFmVlZX6/PxAIbNiwIRwOt23bNi0trbKyMjMzc9euXZ988klWVlb79u2j0WgwGNy4cWN6eroQoqKiolWrVqo2jGuG/dWPtr9QHBkTc8Lj1cbJFyg6PhLluC/v/yDn+K2O/PY3ogTEC78jETGpGJKIA0cwiADQLLX17Fh2HiGwuEseUAIiAovb70EiABFjsVKMNiAyQOAx/gHFC8AYYWzWVvREqnQgITLgKjtQAlKsEhwDAORMcm5JJEQuGbfAI0EKGSYSGCMRqkuS+KQecOqgiKqk1DQjSvT400/e+f/uSPH7CT3gNQzimY7jQQ85Ukr0oEkgg4xJlLmm56N3l+47WJR5zllF27YG0Ldt5/55CxbeNX6crnPkzHaEekxqebiVBbuiokK9/9Fo1Lbt4uLizMzMV1555cUXX2zZsuW6desWLlxYVFQ0evTo4uJizvkVV1zx8MMPp6SkzJgxY9KkSSq6+Kmnnurateutt94KAIsWLSouLp42bVqvXr0eeOCBG2+8McZNhjh69Ohly5b9+9//btGiRU1NjXJtqonQHW6klD6fT0o5ceLEf/zjH+Xl5Y0bN540adKwYcOqqqr++te/PvvsswCQkZExYcKE66+/vqys7KGHHnrttddycnKaN2+upKk7qsz+yrpQXl6udqpEahXq9eGHH44fP37Hjh1+v3/AgAGvvPKKWscrl+3ixYvvvvvu3bt3p6enDxo0aPr06bt27brmmmsGDBiwZcuWr776qmHDhn/729/69Olz8ODBu+66a8mSJY7jnHHGGVOnTm3Tps2CBQsmTpy4ZcuWtLS0sWPH3nvvvVu2bLnpppt8Pt/27duHDh06depU1VvlrP0tjLa/UPyQpXxd/ayn6vH4rTyWFJtxAVRxJWDASDJAAAE1gfpWucZJA5KKV0gFX8f988qrK5FidQljaf56CGOrL2Cx9ALgsZpADElKIATgcUMPI0TGAIHFqzgixUISATWLOcQFkJ+jl5tYDFaeXg8RJCNAoDpdRCT1gFOH2LOFJJxPVq8u/GTVqv92HNhv0PbdeyPC2VO0u3+3zm+VlleWlTbKb5mSkvLd9q3S9J7TtkXp1u8+WFPY5swW9bLrderS05OSvvXbnZIoLS11x5avy6tqWrZqgwxce4B7QmU5dMP6lGagQpOIaN++fX379i0sLExPTx84cGD//v3vuOOOO++8c+rUqTfffLNpmrfeeuv48ePvvvvuu+66a9SoUWvXrn3zzTc7dOhw/vnnT5kyRbGpRyIRZZyPRCK33HLL/PnzX3jhhUGDBlVUVLjlzmJXj6iiAXRdZ4xNnjz5oYceeuyxxy6++OJHHnnk6quv/vjjj1NSUqZPn/7www/37t17yJAhjzzyyGWXXfbpp59OmzZt7Nixo0aNeu6559R1uWKV1xYAhg0bpgz4Bw4c6Nix48iRIysrKydNmpSbm7tgwYLrrrtu1qxZ9913n2mayp5vWdbjjz/eqlWrBQsW3HHHHTNmzPjb3/7mOE5JScncuXPfeustABg6dOi4ceM2bdr09NNPz5kzZ+7cuXl5eRdeeOFdd901e/bse+65BwB279794osv3nfffZ07d87Pzy8rKzt48ODcuXNVVLZrN05maSeRxCmEitNHplb0SAwJUOMGACHTBz/6rEMejNGxUfxPBQdQnP1FxQ9C/FsEMOKkyxjjI1QKJUj3tHFmRkqgA3LPov6V8VBAGxiBNIFMklHQSPflRYhrTLEcszrU15J6wKmEekYYUKiiVANRXVlOSC8+//y+kpJLRgwPIqWkZ2Y0afjR+i16VeSi3p0/3L7z3a8+PUPzBIV1YM+e6urg1OdfbtSkac9evVL8vh3btz/+5NMXXzy84xmdqqqqlJ/bTQRyF9+xU8ej690AQMbYRRdd1K5du8rKyjlz5nz++eePP/54YWGhCi1etmyZ4zimaa5cuTI/P//gwYOrVq268sorASA9Pb1Zs2Y7d+5UZvZwOBwIBJYuXQoAw4cPHzVqVGIovhux6IZkq25MnTq1W7duN9xwQ25u7h/+8IeZM2f+61//euSRR958883Vq1c//PDDBw8eLCgoCIVCy5cvR8RrrrmmQ4cOl1566YsvvnjYLUVUik7Tpk1VUFXDhg3Xr1//9NNP/+Uvf3nuuee++OKLKVOmbN++Xdf1qqqqjIwMFbZtGMbkyZM3b978zDPPfP7556rGq1Kk+vXrd95559m23bRpU9u2HcdZtWpVIBC47LLLhBBFRUWI+P7772/atGnEiBGrVq2qqqqSUv7zn/+cOHGiEKJNmzb9+vVTPHTqt6j1oySRxC8NCYUGfqmBLgSAkpEkopjXP8bvD0xLyWsO4D3VPYyXQQJVAMkhYFEpGEOIRyvW1WmSesCpBCIIIT0eo1ePcxa//c6QocMCWRkVVSW/u3bkkIsvWF9RWbFxl7PfdiyZZqbK0gpZGvL74exOp3/QpnXHM1rXb5gvCExTNzTc/NWGJ7Z/e92NN3fp3CkSCat49VphwEca/dwD1AytWu3atWv48OGc8z/84Q/RaHTmzJmIWFVVhYjr16/fs2dPenr6U0891bJlS8Vupoqgq1OotbUKuBsyZMiiRYtmz559+eWXl5aWqgArN4La7/cbhqF855FIRCkZqgPKSm+a5scff3zBBRf07Nnzqquu2rx5s6r5Fo1G3Q4n8gS4yYTqiubNm9eoUSO1PzMz85133rnyyisvv/zyYDB4++23n3baafv27VMmCpVlsHv37quvvloIMWbMmL179y5atMhNW8jPz1e9Uo4Vta0kV1VVqWhKpVEdPHhwwYIFXq9X3Z9gMKg6ozK+3E7W2kjiR0Rc/VRbsW0iOLTKSyBsTeLYIHDvH8WHDGXSpEN39ZfzSBMiA5LECFBxBnFAIOBAROiQxkmQIg+KuRDchX6thwVjRn2MUw+ge2RiUYZj4PBc6ThRIBChUJ9RchIYqxsnTHCATMVrEKcdqoOQjqRl8pRB8UQhoCNlMGSJKLelHgLSA4aH8eKoeGP91+Vcz8jOKjdM22/uLq4pSM/o3boNrwlbwWgwGiEiSYKB4NLKSgv4fN7SiiqVEeeeAmPcWJQ45bt+ATexzU1yY4xt2rRp27Zto0ePvuOOO4qLi1WU8rnnnktEI0aMeOmll1q2bLl69er8/Hw37t3dUPH/NTU1PXr0eOWVV1q0aPHggw8WFxerEH33FJWVlYsXL37jjTfeeOONf/3rXxUVFRdccMHatWvXrFnDGFuxYgUR9e7de8WKFeFw+Kmnnrr++uuVvYExNmDAACIqLCxExNWrV9e6HHfkf/XVV2fPnj1r1qzHHnussrKyYcOGX3/99ebNm6+++urx48erAAWVyKfIVb766qutW7f+/ve/HzdunMt0pHiK3PRxlWZpGEarVq1qamrWr19vmuZFF110+eWXn3baafXr1w8EAi+99NLFF1+8atWqnJwclXjm5kS4v8X/HPaVxPeFGyCjasUggdpWNl6Mp2wn/07yL/4Yx8Ps4v5xiuXc/2LsA8qwz5A4IiPgJLgkEMgkMZI204ABMEz4l4DB4X8Je7i7QfEmCIzF/2XAGMb/df8AGQBDdP84ImPIATkC6pJpyDkwQE5oAJlAHkADlZoQR52YFZP2gFMGRJQxvirp9aU4Er/evPWsjE6hSJQQUOMhx+mQlpGXm7L0m+/qpeed2Shnr0XeABd20JHVTFMPhAAQ0Ugor17uDaP+cPud9wgrdOHQ84PBkJvpfqy8oERrgZqo1FTdoUOH00477Z577nnmmWcUj8q2bduGDx/+xz/+cezYsffcc8+BAwduu+22tLQ0N+SwVpkyzrlhGKZpPvroo5dccsmcOXPGjBmj8vRU4nJZWdm4ceOUAhGJRObPn//kk0/u37//uuuuS0tLCwaDEydO7Nu3L+c8Ozu7X79+6enpPp+vqKho//79ffv2HTp06N133/3000+r/ZFIxH0llI8DACZNmqTyDC3LysvLu+WWW7p06dKtW7dnn3329ddf93g8mqZ9/fXX3bp1Q8RgMHjWWWd17tx54sSJ06ZNUwrHF198oTK/DcNQopRKJIT405/+9OWXX/bv3z8QCBQXF//lL39p1qzZmDFjJk2a1KBBg9LS0rPPPvu0007buXPnUUkVk8aAnwzxYZJISiKMBX8LEbWsiO3okhGipgi9TnVXf+YgIscRkqTj2JpHAgADRkQylk9PKAkRCJjycJ/q/p4IcSYxBOQMgZAkuFS+SMphqy7DNQmoi3J5iBM/Hn69Ks8AKdF+QEdoSUfPSSEgkqBUVhKEjgQkNJCjilcEImRMksS4kB+uCiT1gFOGmHkNAQTkZGdfdOUFH3+0pFlB7hUjrs5olu8VkXtOK3hjz65Pa8zB7duXlpQt2Li5SWZafmaLKj2z13lDGmZnOo4zcMC5mVnZGbn5Z3Q9J7tevYcevGfLlq2uEnDkSROVgDvvvFMxBUWj0cGDB9evX//000+PRCJNmzZdsmTJ22+/3aBBg969e8+YMaNevXqWZT366KP9+vXbsmVLt27devfuHQ6HTdOcPHlys2bNFHnqlClTzjrrLMMwnnzyyezsbNu2+/TpM23atPr164dCIRWQaFnW7bfffumll7pk5tFoND8/3+v1zp49e8mSJdu2bevZs2f37t2rq6t79uy5aNGijz766Oyzz65fv/68efMMw/B6vTNnznzrrbeklOecc86qVatU1oC6XiHEoEGDMjIy1LQtpQwEAt26dWvRogUAzJ8/f/78+SkpKYMGDZo9e3ZqampaWtpTTz2lSsHOnTt34cKFDRo0OOOMM5YsWSKEyM/Pnzx5csuWLZXv47777jMMIxQKdezYcdmyZe+///7Bgwf79+9/5plnVlZW3nvvveeee+6KFSsaN2580UUXMcZycnImTZoUCAQUo1zSBnAKQASMgZQGZ0Gh60BcOik+wzQM0zBOded+aTABANKzfBWhKBFRVDP8MsyBQHpFVJPMYidhCf95wH0ZHeGAAM45clXshwORJ2YxcnHkFeER23j8FkSHIqLUSHWsOimMMeVckA4g6gxRxRYLxyEiAKlMjHXIRIKNGrcBgJ07Nv5wWb9xKN+OQEQSjmUZpvfSa28dMuyiG0cMjlSU2sxkSIm/OcX1Q8aYFMLv9zONR6JRSZIQraiFOjdZABEsQZwhA9AR7FDQIKkZRg1zyBGarit6UV3X1cSsaVo4HD5WPFoiM0kgEHAJczwej2makUhEed8554FAQEpZXV2dlpamipUBQCAQUBqGiv+XUqalpQkhgsGgotxRpDqpqam2bavcgdTUVMdxVGlUlSCgeHwTFVgVQ+fKj0ajoVBIHW+apsfjsSxLEQi6tVZ9Pp/jOOFwWBEfhUIh92J9Pp8yYyTKj0ajSjNITU1Vfn3FA2/bts/nU8zEmqapq1asSiqvMhAI2Lat+p+SkuISMCOi3+9XeoxidHccx+v1mqapSIoUD53P5xNCVFdX1yItTuKnwaFREskS4E1Ne/jx/3vp5ZcH9uouJRmGZkcFaR78RSxhTykIgKQwdGPtyo+uG/vHB0bfVHmwEk2wNUGAhkBDMJurZfCJqe6klIau7dhfOvS621e++UL93ByHiAEykIQsVntPZeDV3ftSi0zFJVRWSdSKJjV2KEKM4h8hXgQo/s3hew6FXh0eQXDkAYndcElFE6kqFVTMU639ylPpMr0qKPqyeK+S9oBfLAiAMbRtmyOrrq4mBETkmmY5DjIUjkCrgjGNEzlAqLGIdDSOkoSwoqibioFHPU+O46gYOpfkvBb1/WHnJVK1yV2G4HA4HAwGXYI/IcTBgwdV8aGKigr1nGmaplgCVUShCvcrKytTbxRjrLS0VD2X5eXlLk9OWVkZACgWQkT0er0VFRWJAX2JRKrV1dUqvV4FGyr7QSgUUt+WlJSYpmkYhtJX1GusOuAmR3DOKysrlVjFnKreFnWZqpOqw+Xl5couUlVVJYRQLoCysjJV0KW4uFh599Vhqrm6FnV7FTOjSklwOWVDoVAoFFL8r0Sk9A83NSOpAZwCxIdn27F0j7+6pvqySy48vUO7/QcO6Bp3HEvX/A5oiISEhPEwr/iGMu6iSjNL2DhE5XLcDXc6iXUkUSwcCi9DAHn4hhLCCOhIsXhYLFot+Yf69n3kH3ai48hnxFDr3qdnvz7nhCOOrjNBtpqwY/x5JBXl3s8zYLBWzTA1Dvz973//4osvVAZyIpF5PG6a1EillhZSStt21JJduQgTQ5XVcOo4jnrZXbp0N3rJLXimyEY3btx41113KWOhGl1vuOGGUaNGIeI333zzzDPPbNmypUePHuPGjVM1WYqLix977LHPPvusYcOGY8aM6datmzuKJvWAXzAYgCSpGzoDFFJKUll8UmeMEHWGjuEAOpIxQSSZkEA2IAMOCB6KURIqA5FSD9X0nMjSX2v6OTJxoFaUgFIpVHUyxajv5rsr+Ynzt9qj5mPbtlW+vtJeE2dHtVO1Vb585SNQQmo5twzDUOdVdg71LqmJXL1g6kRuKJ8S7jiOruvKlqB0AlfV8Hg87k1QAf+uZcI10+m67mrcikvA4/EomepuqDuj67pycCinhlr6Ky1EeVjcexWNRjnnpmmq++nehKQq8FMjlvUtDU0Xju3herOC/HatW6hAcD3uynan/2MKqeUU/l4dOGHbYx1zMqerE/kn11apFw5AsDpoRWo0kowjk4jIAFAgxHh3f65P+ZFV04QQM2bM+O6770aMGNGvXz9la6zVyiU+VwOXEXcnqdGv1sJd7XRPp+b7Wn1QG4i4bdu29evXjxs3Tg13wWCwZcuWiDh37twJEyaMGjXqiiuueO21184///y33347NTX1uuuuk1JefPHFmzZtGjJkyJNPPnnTTTepcewH3pmkHnDKgIggCRmTQhIBMEBEQCQhGWckJcSSVgiF0JCTAwx1ImQEgDqBDYSu/d+lOnfJxmtVvFVIVIfVmtVNL3RFJT73tV4b95mrVchYKb+uiqAi7dWRqie1jF1uCkOtN9OtveYu7l1FJ7H+kIraS2zuTu1uW7e5y5Hg5jWozrhVWGqdNPG8ieqUkuBqFa4VxCVqTPTCuAqZe9LEGoan7qH7zQExVpaFSYnAiAQDiFZWKet1mEgjB0H+PNevPzco16dEpnGNM0DGBEhGTCIhsVgBv0Pmg58jXKeAsju+8cYbubm5vXv3njVr1rnnnquIQOrVq7dixYrt27ePHz9+586dr7/+eu/evS+55BJE/O67715++eVgMNi/f/8LL7xw2bJlixcvVi5CxtjFF1/csWPHt99+e/ny5S1atFD0a4WFhYqCXYVXN2rUKLHM2Omnnz5hwoTEHgaDwYcffnjOnDldunQBgL59+1511VULFiw466yzvvzyy6KiInXY0KFD9+/fnzjs/xAk9YAfFRSvH32UZBoiUgt6RYZHymoHxBijmGINEjkgMSAk4IQoEBkiIUmwNWRQW/k+slRurbnnqMVLapXKPbL2bq2NxOZHJcg7VpWUI0905LfHKXN81L4dS8hRJ92jTsNHrhKOelddTeio5ZhrdcONgjyq/CR+SsTeMVIzlGDAOEOSAMQQSDLdYT9fU/bPCbEcdkaCkSBCBwGRkUSlCKjIgLhP/HtIrfW5zvt9LCDijBkzLrroogEDBlx55ZW7d+8uKChYtWrVSy+9dPfdd1dXV19wwQXDhw9v0qTJ+PHjGzZsWK9evauvvnrEiBE5OTl//vOfdV1v0KBBIBBo1arVyy+//Mknn9x0002PP/74kiVLFJ/YBx98MHPmzEWLFs2dO/f222/ftGnTqFGjZs2alZ2drZyVKmXpj3/8oztijB079uDBgx6Pp0uXLorHDACmTJliWZZhGM2aNevXr9/AgQMHDRqkal67eUw/EEk9oO7gMpYkxiYpl6D6PuFfiAWcxMiolWeOEBjFHJUEgCQlMmIkCRhKUjo3ISBHICTFP4mHvTfqY+K/iRvueWPm0kMHJPbw0AFHFVKrOWKM2MrdSPjqhCc68luq1YFjnf3YF3uUzh8p52g37ZgNMVbL+ciTnvhajnpwEj8dYq+WUImByvkNJJUSDSCQC0RUiWEYrzLvxgJgAo1sjIr2hBtuHEHCnkM9OXxDccrSyYg9Uv7hAQtHlV8r2OGHyleZzsAIpKqWQ4CISEAgiREAoERiJ/ZnuCROgHFWQgJCItUJ9/bUKdzYQGX/2759+9atW8866yxVF23BggWjR482DGPAgAGjR4/evXt33759hw0b1r59+1WrVq1du7ZLly7t27e/8sory8vLlyxZ8sknnzzwwAMdOnTYu3fvs88+u3z5co/HM3369BkzZvTq1evWW2/t3r37unXr/H5/r169br755iuuuKJLly6FhYVDhgxx1wmquKvyRSrNQBG1uT5ZIUR2drbq//vvv//cc8/Nmzdv5syZ2dnZ06dPP+200+ok8CipB9QZCJFJSYzFp8RYNqpKTUWKc5fVbhYvMeG+HEoYAQDoQoAkVSRIlaySwCQCAmixMlk/9WUeHXTExq8Vv/oL/HWBYnU8wOZKK0cAYAQAJFVQLDm640gGjBKj8Q6fTuOaOcYZ41wOOYjvgaO0PYa02hu1xZ60/JPcqC3Npb5j7h7CGDPQiaSpynwSuUAQwDgQJ0CS6PKiHWWJf9QfJsZPSIrUCZRrAZFkrP5OnL6wDuFa7JQXf/ny5Xv27Ln77rs55xs2bNi7d++YMWNs227VqhURlZWVZWdnK+4QTdMsy2rcuHFNTc2oUaMaNGhw4MABxY1WXl4+ZMiQm2++uWvXrh999FGjRo1atmwZDoe9Xm+rVq2Ki4s9Hk/Dhg2llDU1NXl5eW5Ik4qjatOmzQsvvOD2UCUrHThwQNM0lavMGNu5c2dlZaXK2Bo3bty4cePKy8v/9Kc/3XLLLYsXLz4yoOF/QFIPqDOoR4wTkURC5WAGj1d3EB1/JklmMOvoQTQJT/thOSfx9xWRZHw0kKjKU6mMmp/6GpNI4pcHAkDQDq3yY4neEhTrDUPQuZroDosXpISlOqrEwsRoeoy58uImhkNNjroBtdoevvGjyod4mltMWmLb+B6GMSfm8eTHdAZADoyrlU9sECIeYxM62VBKKaRu6Iapa5ojCYCQC6kYdBEEj9kWjXDAbgAACLJJREFU6p6SSMX6aJpWVVU1c+bMe+65p2/fvrZth8PhP/zhD1u3blXp07EHJx5UpGKTJ0yYsH///g8//BAABg0apOz2N9100/Dhw2+77TYAaNGiRVFR0caNG88999ySkpINGzbccsstu3fvdhf3qjqJy3imAowSu8cYa9u2rc/nmzZt2ujRo9XO66+/fuDAgWlpaRMnTty5c6ff78/IyOjSpcunn35KLhtSMl/g5wIiQCYcCwDDtjBNjNRUb9q0acdZbUsqoqaGklj8tTqUiRMvNpToPTjsAFLOtkO6wiET3hFvSO22R3uFTuaYY17hL0T+sY75keTXbf+Pc8D3+qpu5R+n+cnf5B9y7T+0/3j4AYm272M8o5QgJPENPE6Q/cnnFdQ68iQte/+z/BPisCJ4x2kV727CePQ/PWBSkqHrRfv2lVUUE4vZJADIQeAAGpGMqSZ1v9ZRToEVK1Z8++238+bNy8jIUPtff/316dOnN2vWTNVSSYzyUaG+ffr0eeSRR55++unCwsJvvvnmmmuueeaZZxYvXjxs2LDJkydHo9Hzzz//9ttvv+mmm8aMGfPuu++2bt26U6dOy5Ytc8uvuBHEEI+h+Prrr0eOHGkYhlJNzj777Ntuu23q1KkXX3zx+vXrzzzzzNmzZ3u93ltvvTU9Pb2wsLBLly5t27aVUqo4Bq/Xm8gi8D8jySNUZyC1ZAfpSBlxpFfXJz35t8WL5pmBdFs4JCXxFEBEkoSJ44s8fCA4yojj6vKHv1S1mrjFMGpVxZBHO9GRTU4o/8gTJXayDuUf/SYcPmJ+32s/efk//N6eUP7JnOhY97YOb/JR7+3x5See6Hs8wN//Jh9V/o/7ACMoT5u7dCa1UI5vHPYmHrItHC7/EHlM3Dh+RNtE+XC0E7GEr2rf25OQDwlijy4/wUjgXnLitZ+s/B/6ABMAQykiS998PS0lRdoOaeQAMEAduCRU8Yd1ziOkZuX169cXFxcPGjRIcQAwxvbu3bthw4YWLVpYlnXmmWeWl5f/97//7du3b1pa2kcffZSRkdGxY8elS5d++eWXffv2zczM3LdvHyJ+9dVXKuXYtu3u3bt37dp19erVa9eubdmy5eDBgxljn376Kef8jDPOCAaDH374YceOHQsKClRG9J49e5YsWaL4URhj4XC4devWgwYNMgyjoqLinXfeKSkpadas2aBBg1RKtuM477///ubNm30+3+DBgwsKChKLyf0QJPWAOoMkYohSOoRSkhZ2RIqhJy33SSSRRBLHgUWgCUHSQR0dZAwYV9z5DKBOCz+oNGCVA5xYUcV1FtQ6EuK8KS6/SC2i0qNci2W5BAPKcaDEusGJimPAZWw7UoIiX0n8ymUiqtWBRHdA0i/wc8EhS70EjZFf1yzbhnh+ICIyEpisaJJEEkn85iEJGJIklICGpqlIDSSmKasCIgMpgbHjsTt9b7iEaS4jiJrsXfoTN5bQJVNRJGaK21SxDiQmSLuTsUs0oqhTXBeA61xwmUvctm7mQi2eN7dVLa+EauLuV6dzO/wD70xSD6gzqCxAAERiAMABuKbFLWRIyjIHxN2S1idvGj/G+b6HkB9J/gkPPs5Z/re+HdUtcEqu/VTJP5YX/n+W/yNd+y9C/glbJR/gH37tR3uAOQAQcVAldCQgA0A3DTpeV4BOolLB90AiBW+tlfSxVucntLqreT2xbS2ykFrcLe5M77Y6auy4S+Raq5NHhhYm6w7/vECxPFpUZU6JVDgtkaqbAeiARizOLu6GLR1jA+AEevBx2p5w41DcwbFPcjLSjnXwYfKPcYLvJb9Wqx9y7ceX/8PvbV3Jh/gDcLwf8eR+jpN8wA7pGHFN9Yde+7Fuwg++tyd4gL//D5R8gH+UB/g4BwNJQIbEyK1MpIiekIEq/BsvYFx3isBxSq7AkfV/j73z5E9Xa8/xC778EJlJv8DPBUoPkMhidTsQVA1qlRILBIiSUSxjIJ5cTCjVcW4Cb2zjMLX6/7d3RusNgjAYTewb9P0ftZ/ZBaKAIlSw28o5F5tT+CEhdSkqHt0FlVYxsSl6CjjVDxpaPpDmnyqu0Zf0KeOwb1n97eUtTfpRQ6aRgaHtkROyvj3R932r0882JH7hoZztsf7RIK4BkOpvq8KkfSvrnwbYEgzbbWwntl8N4MSu7gF8oj9KAJvI+/p3BPA6OJkAVpnFVE1NplnMPSY4zWaqNs1uadU4dFrp8kqeFnILrTbCfMAfQv06wfP2TcidS5alMiaZ/YK06ynSf9LCtYRs/bQF6rbb2Fexfd1AP21Itv2V+md9y+tbF/2c4M52C9Su+7ZOP9tQ0bc7/cpBPPbtzskn+sVBrLK9IYAv217p5BbbvyGA6wex5eRQM4gFfVMTU5XJLbW27F7SCvNrIfbMA36dw0sSfwHygH6oislD9SFbtr48jeOC2R7bGcBd4nFTB8cbvkyOmrrlMvkrgW/1LVdm/bNRP6lVZWCLb7von/j2nQBIDjnJ6ajKNf2N9Wmuq32rcXJn/Z2Tr/XtewK4fhBvDuBgZiYTwG6CRNXcKk8itv5rfPja3FT9CcgDuqEiosFEQPTbBf0u+1M3xeYrS7IR1o030pLBJU2Jy6z6Bw35QjX6533L6Wsn/bAh0VQkvVzsRZp8W6F/1lDRt5cGsWz7qX7RCfW+PexbWf/mAL5s+1cF8Pv6dwSwZPQTkSNZ9ftDQ+E+yAO6sXznPzjg7ggQMdM47LeaNerFwrlDb9Wt6cw/0u/u26KTr+kXdW7ybRf9FrtqyrQEfw0jB3B326v1t0kD03X+372szL1/aL2VoqJVaII8oBsa/IwPaLhBUAMAxLMAyUly2UcS8Bm4+gIAADAu5AEAAADjQh4AAAAwLuQBAAAA40IeAAAAMC7kAQAAAONCHgAAADAu5AEAAADjQh4AAAAwLuQBAAAAI/J6vbZ1hZ/P52/3BwAAAD4N8wEAAADj8gNwRl+/R2KwuQAAAABJRU5ErkJggg==;" vertex="1" parent="1">
          <mxGeometry x="915" y="675" width="685" height="247" as="geometry" />
        </mxCell>
      </root>
    </mxGraphModel>
  </diagram>
</mxfile>
